<svg width="68" height="68" viewBox="0 0 68 68" fill="none" xmlns="http://www.w3.org/2000/svg">
<g filter="url(#filter0_d_252_2)">
<path d="M31.6422 0.0928128C37.6992 -0.38469 43.7584 0.98815 49.018 4.02967C54.2776 7.07119 58.4898 11.638 61.0971 17.1259C63.7045 22.6137 64.5841 28.7639 63.6195 34.7626C62.655 40.7613 59.8918 46.3257 55.6955 50.7196C51.4993 55.1135 46.0678 58.1297 40.1199 59.3691C34.1719 60.6086 27.9878 60.0128 22.3858 57.6606C16.7838 55.3085 12.0281 51.3108 8.74788 46.1966C5.46766 41.0824 3.81759 35.0928 4.01601 29.0203C4.03789 28.2744 4.35519 27.5677 4.8981 27.0557C5.44102 26.5438 6.16508 26.2684 6.91101 26.2903C7.65693 26.3122 8.3636 26.6295 8.87558 27.1724C9.38755 27.7153 9.66288 28.4394 9.641 29.1853C9.45097 34.9335 11.2996 40.5638 14.8601 45.0805C18.4206 49.5973 23.4635 52.7095 29.0972 53.867C34.7309 55.0244 40.5924 54.1525 45.6452 51.4054C50.6981 48.6583 54.6169 44.213 56.7085 38.8555C58.8002 33.498 58.9301 27.5734 57.0752 22.1294C55.2203 16.6854 51.5001 12.0726 46.5725 9.10673C41.6448 6.14086 35.8272 5.01293 30.1482 5.92241C24.4692 6.83189 19.2947 9.72017 15.5398 14.0766L14.7748 15.0103H21.8135L22.196 15.0366C22.872 15.1261 23.4925 15.4583 23.9419 15.9712C24.3913 16.4841 24.639 17.1428 24.639 17.8247C24.639 18.5066 24.3913 19.1653 23.9419 19.6782C23.4925 20.1911 22.872 20.5232 22.196 20.6128L21.8135 20.6353H8.696L8.3135 20.6128C7.70489 20.5291 7.14041 20.2485 6.70634 19.8137C6.27228 19.379 5.99249 18.8141 5.90976 18.2053L5.88351 17.8228V2.82281L5.90976 2.44406C5.99249 1.83532 6.27228 1.2704 6.70634 0.835657C7.14041 0.400913 7.70489 0.12025 8.3135 0.0365624L8.696 0.0140623L9.0785 0.0365624C9.68712 0.12025 10.2516 0.400913 10.6857 0.835657C11.1197 1.2704 11.3995 1.83532 11.4823 2.44406L11.5085 2.82281L11.5048 10.1466C16.6524 4.3015 23.8769 0.694659 31.6422 0.0928128V0.0928128ZM33.0597 15.0103L33.4422 15.0366C34.0509 15.1202 34.6153 15.4009 35.0494 15.8357C35.4835 16.2704 35.7633 16.8353 35.846 17.4441L35.8722 17.8228V29.999L42.4347 30.0028L42.8172 30.0291C43.4904 30.1217 44.1073 30.4549 44.5538 30.9671C45.0004 31.4793 45.2464 32.1358 45.2464 32.8153C45.2464 33.4948 45.0004 34.1513 44.5538 34.6635C44.1073 35.1757 43.4904 35.5089 42.8172 35.6015L42.4347 35.6278H33.0597L32.6772 35.6015C32.0692 35.5181 31.5051 35.2379 31.0711 34.8039C30.6371 34.3699 30.357 33.8059 30.2735 33.1978L30.2472 32.8115V17.8228L30.2735 17.4441C30.3562 16.8353 30.636 16.2704 31.0701 15.8357C31.5041 15.4009 32.0686 15.1202 32.6772 15.0366L33.0597 15.0141V15.0103Z" fill="#F97A55"/>
<path d="M31.6422 0.0928128C37.6992 -0.38469 43.7584 0.98815 49.018 4.02967C54.2776 7.07119 58.4898 11.638 61.0971 17.1259C63.7045 22.6137 64.5841 28.7639 63.6195 34.7626C62.655 40.7613 59.8918 46.3257 55.6955 50.7196C51.4993 55.1135 46.0678 58.1297 40.1199 59.3691C34.1719 60.6086 27.9878 60.0128 22.3858 57.6606C16.7838 55.3085 12.0281 51.3108 8.74788 46.1966C5.46766 41.0824 3.81759 35.0928 4.01601 29.0203C4.03789 28.2744 4.35519 27.5677 4.8981 27.0557C5.44102 26.5438 6.16508 26.2684 6.91101 26.2903C7.65693 26.3122 8.3636 26.6295 8.87558 27.1724C9.38755 27.7153 9.66288 28.4394 9.641 29.1853C9.45097 34.9335 11.2996 40.5638 14.8601 45.0805C18.4206 49.5973 23.4635 52.7095 29.0972 53.867C34.7309 55.0244 40.5924 54.1525 45.6452 51.4054C50.6981 48.6583 54.6169 44.213 56.7085 38.8555C58.8002 33.498 58.9301 27.5734 57.0752 22.1294C55.2203 16.6854 51.5001 12.0726 46.5725 9.10673C41.6448 6.14086 35.8272 5.01293 30.1482 5.92241C24.4692 6.83189 19.2947 9.72017 15.5398 14.0766L14.7748 15.0103H21.8135L22.196 15.0366C22.872 15.1261 23.4925 15.4583 23.9419 15.9712C24.3913 16.4841 24.639 17.1428 24.639 17.8247C24.639 18.5066 24.3913 19.1653 23.9419 19.6782C23.4925 20.1911 22.872 20.5232 22.196 20.6128L21.8135 20.6353H8.696L8.3135 20.6128C7.70489 20.5291 7.14041 20.2485 6.70634 19.8137C6.27228 19.379 5.99249 18.8141 5.90976 18.2053L5.88351 17.8228V2.82281L5.90976 2.44406C5.99249 1.83532 6.27228 1.2704 6.70634 0.835657C7.14041 0.400913 7.70489 0.12025 8.3135 0.0365624L8.696 0.0140623L9.0785 0.0365624C9.68712 0.12025 10.2516 0.400913 10.6857 0.835657C11.1197 1.2704 11.3995 1.83532 11.4823 2.44406L11.5085 2.82281L11.5048 10.1466C16.6524 4.3015 23.8769 0.694659 31.6422 0.0928128V0.0928128ZM33.0597 15.0103L33.4422 15.0366C34.0509 15.1202 34.6153 15.4009 35.0494 15.8357C35.4835 16.2704 35.7633 16.8353 35.846 17.4441L35.8722 17.8228V29.999L42.4347 30.0028L42.8172 30.0291C43.4904 30.1217 44.1073 30.4549 44.5538 30.9671C45.0004 31.4793 45.2464 32.1358 45.2464 32.8153C45.2464 33.4948 45.0004 34.1513 44.5538 34.6635C44.1073 35.1757 43.4904 35.5089 42.8172 35.6015L42.4347 35.6278H33.0597L32.6772 35.6015C32.0692 35.5181 31.5051 35.2379 31.0711 34.8039C30.6371 34.3699 30.357 33.8059 30.2735 33.1978L30.2472 32.8115V17.8228L30.2735 17.4441C30.3562 16.8353 30.636 16.2704 31.0701 15.8357C31.5041 15.4009 32.0686 15.1202 32.6772 15.0366L33.0597 15.0141V15.0103Z" fill="url(#paint0_linear_252_2)" fill-opacity="0.78"/>
</g>
<defs>
<filter id="filter0_d_252_2" x="0.396157" y="0" width="67.2077" height="67.2077" filterUnits="userSpaceOnUse" color-interpolation-filters="sRGB">
<feFlood flood-opacity="0" result="BackgroundImageFix"/>
<feColorMatrix in="SourceAlpha" type="matrix" values="0 0 0 0 0 0 0 0 0 0 0 0 0 0 0 0 0 0 127 0" result="hardAlpha"/>
<feOffset dy="3.60384"/>
<feGaussianBlur stdDeviation="1.80192"/>
<feComposite in2="hardAlpha" operator="out"/>
<feColorMatrix type="matrix" values="0 0 0 0 0 0 0 0 0 0 0 0 0 0 0 0 0 0 0.25 0"/>
<feBlend mode="normal" in2="BackgroundImageFix" result="effect1_dropShadow_252_2"/>
<feBlend mode="normal" in="SourceGraphic" in2="effect1_dropShadow_252_2" result="shape"/>
</filter>
<linearGradient id="paint0_linear_252_2" x1="34" y1="0" x2="34" y2="60" gradientUnits="userSpaceOnUse">
<stop stop-color="#FFCC80" stop-opacity="0"/>
<stop offset="1" stop-color="#FF8F80"/>
</linearGradient>
</defs>
</svg>
