<svg width="180" height="180" viewBox="0 0 180 180" fill="none" xmlns="http://www.w3.org/2000/svg">
<g filter="url(#filter0_i_109_293)">
<path d="M69.3232 101.206C67.5941 109.679 60.3174 114.463 56.8952 115.796C44.4671 121.199 97.3133 153.404 95.1519 137.193C93.4228 124.225 100.267 122.352 103.906 123.036C119.986 127.013 125.087 116.768 125.628 111.149C134.597 105.097 125.628 83.3747 93.2066 80.0245C93.2066 60.0316 67.5941 24.4766 63.8116 46.5228C60.7857 64.1599 71.2685 80.4568 76.8881 86.4006C75.0869 87.8055 71.0523 92.7335 69.3232 101.206Z" fill="#DAFA1F" fill-opacity="0.28"/>
<path d="M96.9891 78.0793C94.309 57.2434 84.6331 46.0185 80.3463 43.9292C93.0986 22.099 101.312 79.9165 100.231 78.8358C99.3666 77.9712 97.7816 77.9352 96.9891 78.0793Z" fill="#DAFA1F" fill-opacity="0.28"/>
</g>
<path d="M69.3232 101.206C67.5941 109.679 60.3174 114.463 56.8952 115.796C44.4671 121.199 97.3133 153.404 95.1519 137.193C93.4228 124.225 100.267 122.352 103.906 123.036C119.986 127.013 125.087 116.768 125.628 111.149C134.597 105.097 125.628 83.3747 93.2066 80.0245C93.2066 60.0316 67.5941 24.4766 63.8116 46.5228C60.7857 64.1599 71.2685 80.4568 76.8881 86.4006C75.0869 87.8055 71.0523 92.7335 69.3232 101.206Z" stroke="#B0CC0B" stroke-width="0.935567"/>
<path d="M96.9891 78.0793C94.309 57.2434 84.6331 46.0185 80.3463 43.9292C93.0986 22.099 101.312 79.9165 100.231 78.8358C99.3666 77.9712 97.7816 77.9352 96.9891 78.0793Z" stroke="#B0CC0B" stroke-width="0.935567"/>
<defs>
<filter id="filter0_i_109_293" x="54.5323" y="38.5317" width="74.8453" height="107.648" filterUnits="userSpaceOnUse" color-interpolation-filters="sRGB">
<feFlood flood-opacity="0" result="BackgroundImageFix"/>
<feBlend mode="normal" in="SourceGraphic" in2="BackgroundImageFix" result="shape"/>
<feColorMatrix in="SourceAlpha" type="matrix" values="0 0 0 0 0 0 0 0 0 0 0 0 0 0 0 0 0 0 127 0" result="hardAlpha"/>
<feOffset dy="4"/>
<feGaussianBlur stdDeviation="2"/>
<feComposite in2="hardAlpha" operator="arithmetic" k2="-1" k3="1"/>
<feColorMatrix type="matrix" values="0 0 0 0 0 0 0 0 0 0 0 0 0 0 0 0 0 0 0.25 0"/>
<feBlend mode="normal" in2="shape" result="effect1_innerShadow_109_293"/>
</filter>
</defs>
</svg>
