<svg width="180" height="180" viewBox="0 0 180 180" fill="none" xmlns="http://www.w3.org/2000/svg">
<g clip-path="url(#clip0_109_223)">
<g filter="url(#filter0_d_109_223)">
<path fill-rule="evenodd" clip-rule="evenodd" d="M20.7758 13C10.9585 13 3 20.9585 3 30.7758V149.593C3 159.41 10.9585 167.369 20.7758 167.369H159.24C169.057 167.369 177.015 159.41 177.015 149.593V30.7758C177.015 20.9585 169.057 13 159.24 13H20.7758ZM80.3463 44.1252C84.6331 46.2146 94.309 57.4394 96.9891 78.2753C97.7816 78.1312 99.3666 78.1672 100.231 79.0318C101.312 80.1125 93.0986 22.2951 80.3463 44.1252ZM56.8952 115.992C60.3174 114.659 67.5941 109.875 69.3232 101.402C71.0523 92.9296 75.0869 88.0016 76.8881 86.5967C71.2685 80.6528 60.7857 64.3559 63.8116 46.7189C67.5941 24.6726 93.2066 60.2276 93.2066 80.2206C125.628 83.5707 134.597 105.293 125.628 111.345C125.087 116.964 119.986 127.209 103.906 123.232C100.267 122.548 93.4228 124.421 95.1519 137.39C97.3133 153.6 44.4671 121.395 56.8952 115.992Z" fill="#D5F908"/>
<path fill-rule="evenodd" clip-rule="evenodd" d="M20.7758 13C10.9585 13 3 20.9585 3 30.7758V149.593C3 159.41 10.9585 167.369 20.7758 167.369H159.24C169.057 167.369 177.015 159.41 177.015 149.593V30.7758C177.015 20.9585 169.057 13 159.24 13H20.7758ZM80.3463 44.1252C84.6331 46.2146 94.309 57.4394 96.9891 78.2753C97.7816 78.1312 99.3666 78.1672 100.231 79.0318C101.312 80.1125 93.0986 22.2951 80.3463 44.1252ZM56.8952 115.992C60.3174 114.659 67.5941 109.875 69.3232 101.402C71.0523 92.9296 75.0869 88.0016 76.8881 86.5967C71.2685 80.6528 60.7857 64.3559 63.8116 46.7189C67.5941 24.6726 93.2066 60.2276 93.2066 80.2206C125.628 83.5707 134.597 105.293 125.628 111.345C125.087 116.964 119.986 127.209 103.906 123.232C100.267 122.548 93.4228 124.421 95.1519 137.39C97.3133 153.6 44.4671 121.395 56.8952 115.992Z" fill="url(#paint0_linear_109_223)" fill-opacity="0.39"/>
</g>
</g>
<defs>
<filter id="filter0_d_109_223" x="-1" y="13" width="184.016" height="167.369" filterUnits="userSpaceOnUse" color-interpolation-filters="sRGB">
<feFlood flood-opacity="0" result="BackgroundImageFix"/>
<feColorMatrix in="SourceAlpha" type="matrix" values="0 0 0 0 0 0 0 0 0 0 0 0 0 0 0 0 0 0 127 0" result="hardAlpha"/>
<feOffset dx="1" dy="8"/>
<feGaussianBlur stdDeviation="2.5"/>
<feComposite in2="hardAlpha" operator="out"/>
<feColorMatrix type="matrix" values="0 0 0 0 0 0 0 0 0 0 0 0 0 0 0 0 0 0 0.14 0"/>
<feBlend mode="normal" in2="BackgroundImageFix" result="effect1_dropShadow_109_223"/>
<feBlend mode="normal" in="SourceGraphic" in2="effect1_dropShadow_109_223" result="shape"/>
</filter>
<linearGradient id="paint0_linear_109_223" x1="-153" y1="13" x2="-152.992" y2="167.369" gradientUnits="userSpaceOnUse">
<stop/>
<stop offset="0.0001" stop-color="#EBFF75" stop-opacity="0"/>
<stop offset="1" stop-color="#ECFF80"/>
</linearGradient>
<clipPath id="clip0_109_223">
<rect width="180" height="180" fill="white"/>
</clipPath>
</defs>
</svg>
