<svg width="180" height="180" viewBox="0 0 180 180" fill="none" xmlns="http://www.w3.org/2000/svg">
<g filter="url(#filter0_i_109_302)">
<path d="M93.6565 50.9215C90.5076 50.9215 87.4426 51.2797 84.5 51.9576C80.6188 52.8517 76.9503 54.3019 73.5825 56.2197C61.2874 63.2214 53 76.456 53 91.6186C53 97.8066 54.3803 103.673 56.8499 108.927C63.3461 122.744 77.3796 132.316 93.6565 132.316C101.833 132.316 109.446 129.909 115.825 125.767C122.168 121.649 127.29 115.815 130.536 108.927C133.011 103.673 134.394 97.8066 134.394 91.6186C134.394 83.9162 132.251 76.7114 128.527 70.5684C124.92 64.6185 119.83 59.6647 113.769 56.2197C109.869 54.0035 105.568 52.4118 101 51.581C98.6181 51.1478 96.1638 50.9215 93.6565 50.9215Z" fill="#DAFA1F" fill-opacity="0.28"/>
<path d="M84.5 51.9576C87.4426 51.2797 90.5076 50.9215 93.6565 50.9215C96.1638 50.9215 98.6181 51.1478 101 51.581V49.1264C101 45.3906 98.7344 41.7992 95.0454 41.2102C93.3456 40.9388 91.8053 40.9342 90.2424 41.1731C86.6425 41.7234 84.5 45.2965 84.5 48.9383V51.9576Z" fill="#DAFA1F" fill-opacity="0.28"/>
</g>
<path d="M53 91.6186H61.4201M53 91.6186C53 76.456 61.2874 63.2214 73.5825 56.2197M53 91.6186C53 97.8066 54.3803 103.673 56.8499 108.927M93.6565 132.316V124.831M93.6565 132.316C77.3796 132.316 63.3461 122.744 56.8499 108.927M93.6565 132.316C101.833 132.316 109.446 129.909 115.825 125.767M134.394 91.6186H126.442M134.394 91.6186C134.394 83.9162 132.251 76.7114 128.527 70.5684M134.394 91.6186C134.394 97.8066 133.011 103.673 130.536 108.927M93.6565 51.857V58.406M73.5825 56.2197L76.3892 60.2771M73.5825 56.2197C76.9503 54.3019 80.6188 52.8517 84.5 51.9576M59.549 70.5684L63.2912 72.9073M56.8499 108.927L61.4201 106.588M72.1791 125.767L74.9858 122.025M113.769 56.2197L111.473 60.2771M113.769 56.2197C119.83 59.6647 124.92 64.6185 128.527 70.5684M113.769 56.2197C109.869 54.0035 105.568 52.4118 101 51.581M128.527 70.5684L125.506 72.9073M130.536 108.927L126.442 106.588M130.536 108.927C127.29 115.815 122.168 121.649 115.825 125.767M115.825 125.767L112.876 122.025M84.5 51.9576C87.4426 51.2797 90.5076 50.9215 93.6565 50.9215C96.1638 50.9215 98.6181 51.1478 101 51.581M84.5 51.9576V48.9383C84.5 45.2965 86.6425 41.7234 90.2424 41.1731C91.8053 40.9342 93.3456 40.9388 95.0454 41.2102C98.7344 41.7992 101 45.3906 101 49.1264V51.581" stroke="#B0CC0B" stroke-width="0.935567"/>
<g filter="url(#filter1_i_109_302)">
<path fill-rule="evenodd" clip-rule="evenodd" d="M96.0005 71.9214C96.0005 70.8168 95.1051 69.9214 94.0005 69.9214C92.896 69.9214 92.0005 70.8168 92.0005 71.9214L92.0005 97.8069C92.0005 97.8159 92.0006 97.8248 92.0007 97.8338C91.9971 97.9678 92.0071 98.1042 92.0316 98.2413C92.2261 99.3286 93.2652 100.052 94.3525 99.8579L113.999 96.3438C115.087 96.1493 115.81 95.1102 115.616 94.0229C115.422 92.9355 114.382 92.2118 113.295 92.4062L96.0005 95.4997V71.9214Z" fill="#A8C500"/>
</g>
<defs>
<filter id="filter0_i_109_302" x="52.5322" y="40.5322" width="82.3298" height="96.2515" filterUnits="userSpaceOnUse" color-interpolation-filters="sRGB">
<feFlood flood-opacity="0" result="BackgroundImageFix"/>
<feBlend mode="normal" in="SourceGraphic" in2="BackgroundImageFix" result="shape"/>
<feColorMatrix in="SourceAlpha" type="matrix" values="0 0 0 0 0 0 0 0 0 0 0 0 0 0 0 0 0 0 127 0" result="hardAlpha"/>
<feOffset dy="4"/>
<feGaussianBlur stdDeviation="2"/>
<feComposite in2="hardAlpha" operator="arithmetic" k2="-1" k3="1"/>
<feColorMatrix type="matrix" values="0 0 0 0 0 0 0 0 0 0 0 0 0 0 0 0 0 0 0.25 0"/>
<feBlend mode="normal" in2="shape" result="effect1_innerShadow_109_302"/>
</filter>
<filter id="filter1_i_109_302" x="92" y="69.9214" width="23.6476" height="30.9683" filterUnits="userSpaceOnUse" color-interpolation-filters="sRGB">
<feFlood flood-opacity="0" result="BackgroundImageFix"/>
<feBlend mode="normal" in="SourceGraphic" in2="BackgroundImageFix" result="shape"/>
<feColorMatrix in="SourceAlpha" type="matrix" values="0 0 0 0 0 0 0 0 0 0 0 0 0 0 0 0 0 0 127 0" result="hardAlpha"/>
<feOffset dy="1"/>
<feGaussianBlur stdDeviation="1"/>
<feComposite in2="hardAlpha" operator="arithmetic" k2="-1" k3="1"/>
<feColorMatrix type="matrix" values="0 0 0 0 0 0 0 0 0 0 0 0 0 0 0 0 0 0 0.32 0"/>
<feBlend mode="normal" in2="shape" result="effect1_innerShadow_109_302"/>
</filter>
</defs>
</svg>
