<svg width="180" height="180" viewBox="0 0 180 180" fill="none" xmlns="http://www.w3.org/2000/svg">
<g clip-path="url(#clip0_109_199)">
<g filter="url(#filter0_d_109_199)">
<path fill-rule="evenodd" clip-rule="evenodd" d="M20.7758 13C10.9585 13 3 20.9585 3 30.7758V149.593C3 159.41 10.9585 167.369 20.7758 167.369H159.24C169.057 167.369 177.015 159.41 177.015 149.593V30.7758C177.015 20.9585 169.057 13 159.24 13H20.7758ZM91.4855 42.0732L138.644 89.1971C141.506 92.0593 141.506 96.6962 138.655 99.5584C137.281 100.944 135.415 101.711 133.469 101.711H128.5V135.336C128.5 137.363 126.863 139 124.836 139H94.3936V113.354H81.5707V139H52.9598C50.9334 139 49.2962 137.363 49.2962 135.336V101.711H44.3273C40.2858 101.711 37 98.4249 37 94.3835C37 92.4371 37.7785 90.571 39.1524 89.1971L86.3106 42.0732C86.6501 41.733 87.0535 41.4631 87.4975 41.279C87.9414 41.0948 88.4174 41 88.8981 41C89.3787 41 89.8547 41.0948 90.2987 41.279C90.7427 41.4631 91.146 41.733 91.4855 42.0732Z" fill="#D5F908"/>
<path fill-rule="evenodd" clip-rule="evenodd" d="M20.7758 13C10.9585 13 3 20.9585 3 30.7758V149.593C3 159.41 10.9585 167.369 20.7758 167.369H159.24C169.057 167.369 177.015 159.41 177.015 149.593V30.7758C177.015 20.9585 169.057 13 159.24 13H20.7758ZM91.4855 42.0732L138.644 89.1971C141.506 92.0593 141.506 96.6962 138.655 99.5584C137.281 100.944 135.415 101.711 133.469 101.711H128.5V135.336C128.5 137.363 126.863 139 124.836 139H94.3936V113.354H81.5707V139H52.9598C50.9334 139 49.2962 137.363 49.2962 135.336V101.711H44.3273C40.2858 101.711 37 98.4249 37 94.3835C37 92.4371 37.7785 90.571 39.1524 89.1971L86.3106 42.0732C86.6501 41.733 87.0535 41.4631 87.4975 41.279C87.9414 41.0948 88.4174 41 88.8981 41C89.3787 41 89.8547 41.0948 90.2987 41.279C90.7427 41.4631 91.146 41.733 91.4855 42.0732Z" fill="url(#paint0_linear_109_199)" fill-opacity="0.39"/>
</g>
</g>
<defs>
<filter id="filter0_d_109_199" x="-1" y="13" width="184.016" height="167.369" filterUnits="userSpaceOnUse" color-interpolation-filters="sRGB">
<feFlood flood-opacity="0" result="BackgroundImageFix"/>
<feColorMatrix in="SourceAlpha" type="matrix" values="0 0 0 0 0 0 0 0 0 0 0 0 0 0 0 0 0 0 127 0" result="hardAlpha"/>
<feOffset dx="1" dy="8"/>
<feGaussianBlur stdDeviation="2.5"/>
<feComposite in2="hardAlpha" operator="out"/>
<feColorMatrix type="matrix" values="0 0 0 0 0 0 0 0 0 0 0 0 0 0 0 0 0 0 0.14 0"/>
<feBlend mode="normal" in2="BackgroundImageFix" result="effect1_dropShadow_109_199"/>
<feBlend mode="normal" in="SourceGraphic" in2="effect1_dropShadow_109_199" result="shape"/>
</filter>
<linearGradient id="paint0_linear_109_199" x1="-153" y1="13" x2="-152.992" y2="167.369" gradientUnits="userSpaceOnUse">
<stop/>
<stop offset="0.0001" stop-color="#EBFF75" stop-opacity="0"/>
<stop offset="1" stop-color="#ECFF80"/>
</linearGradient>
<clipPath id="clip0_109_199">
<rect width="180" height="180" fill="white"/>
</clipPath>
</defs>
</svg>
