<svg width="180" height="180" viewBox="0 0 180 180" fill="none" xmlns="http://www.w3.org/2000/svg">
<g filter="url(#filter0_i_109_284)">
<path fill-rule="evenodd" clip-rule="evenodd" d="M126.66 87.8133C122.385 84.8248 117.164 83.0468 111.528 83.0468C107.06 83.0446 102.664 84.1737 98.7507 86.3288C94.8371 88.4839 91.5328 91.5948 89.1459 95.3715C86.759 99.1482 85.3672 103.468 85.1003 107.928C84.8333 112.387 85.6999 116.842 87.6192 120.877H58.566C54.3668 120.877 51 117.51 51 113.311L51.0378 71.6979C51.0378 67.4988 54.3668 64.1319 58.566 64.1319H73.6979V56.566C73.6979 52.3668 77.0647 49 81.2638 49H96.3957C100.595 49 103.962 52.3668 103.962 56.566V64.1319H119.094C123.293 64.1319 126.66 67.4988 126.66 71.6979V87.8133ZM96.3957 56.566H81.2638V64.1319H96.3957V56.566ZM135.834 126.123L146.611 136.9C147.616 137.916 147.616 139.559 146.6 140.575L143.541 143.634C142.536 144.65 140.893 144.65 139.876 143.634L129.099 132.857C128.613 132.371 128.343 131.711 128.343 131.02V129.258C124.527 132.241 119.728 134.014 114.507 134.014C102.087 134.014 92.0234 123.95 92.0234 111.53C92.0234 99.1103 102.087 89.0468 114.507 89.0468C126.927 89.0468 136.99 99.1103 136.99 111.53C136.99 116.751 135.218 121.551 132.234 125.366H133.996C134.688 125.366 135.347 125.636 135.834 126.123ZM100.671 111.53C100.671 119.183 106.865 125.366 114.507 125.366C122.16 125.366 128.343 119.172 128.343 111.53C128.343 103.877 122.149 97.6943 114.507 97.6943C106.854 97.6943 100.671 103.888 100.671 111.53Z" fill="#DAFA1F" fill-opacity="0.28"/>
</g>
<path d="M111.528 83.0468L111.527 83.5146H111.528V83.0468ZM126.66 87.8133L126.391 88.1967L127.127 88.7111V87.8133H126.66ZM98.7507 86.3288L98.9763 86.7386L98.9763 86.7386L98.7507 86.3288ZM89.1459 95.3715L88.7505 95.1216L88.7505 95.1216L89.1459 95.3715ZM85.1003 107.928L84.6333 107.9L84.6333 107.9L85.1003 107.928ZM87.6192 120.877V121.344H88.3598L88.0416 120.676L87.6192 120.877ZM51 113.311L50.5322 113.31V113.311H51ZM51.0378 71.6979L51.5056 71.6983V71.6979H51.0378ZM73.6979 64.1319V64.5997H74.1656V64.1319H73.6979ZM103.962 64.1319H103.494V64.5997H103.962V64.1319ZM81.2638 56.566V56.0982H80.796V56.566H81.2638ZM96.3957 56.566H96.8635V56.0982H96.3957V56.566ZM81.2638 64.1319H80.796V64.5997H81.2638V64.1319ZM96.3957 64.1319V64.5997H96.8635V64.1319H96.3957ZM146.611 136.9L146.943 136.571L146.941 136.569L146.611 136.9ZM143.541 143.634L143.21 143.303L143.208 143.305L143.541 143.634ZM139.876 143.634L139.546 143.965L139.546 143.965L139.876 143.634ZM128.343 129.258H128.811V128.298L128.055 128.889L128.343 129.258ZM132.234 125.366L131.866 125.078L131.275 125.834H132.234V125.366ZM111.528 83.5146C117.064 83.5146 122.192 85.2608 126.391 88.1967L126.928 87.4299C122.577 84.3887 117.264 82.579 111.528 82.579V83.5146ZM98.9763 86.7386C102.821 84.6216 107.139 83.5125 111.527 83.5146L111.528 82.579C106.981 82.5768 102.508 83.7259 98.525 85.919L98.9763 86.7386ZM89.5413 95.6214C91.886 91.9114 95.1319 88.8555 98.9763 86.7386L98.525 85.919C94.5422 88.1122 91.1796 91.2781 88.7505 95.1216L89.5413 95.6214ZM85.5672 107.955C85.8295 103.575 87.1967 99.3313 89.5413 95.6214L88.7505 95.1216C86.3214 98.965 84.905 103.361 84.6333 107.9L85.5672 107.955ZM88.0416 120.676C86.1562 116.712 85.305 112.336 85.5672 107.955L84.6333 107.9C84.3617 112.438 85.2435 116.972 87.1968 121.077L88.0416 120.676ZM58.566 121.344H87.6192V120.409H58.566V121.344ZM50.5322 113.311C50.5322 117.768 54.1085 121.344 58.566 121.344V120.409C54.6252 120.409 51.4678 117.251 51.4678 113.311H50.5322ZM50.57 71.6974L50.5322 113.31L51.4678 113.311L51.5056 71.6983L50.57 71.6974ZM58.566 63.6641C54.1054 63.6641 50.57 67.2435 50.57 71.6979H51.5056C51.5056 67.754 54.6283 64.5997 58.566 64.5997V63.6641ZM73.6979 63.6641H58.566V64.5997H73.6979V63.6641ZM73.2301 56.566V64.1319H74.1656V56.566H73.2301ZM81.2638 48.5322C76.8064 48.5322 73.2301 52.1085 73.2301 56.566H74.1656C74.1656 52.6252 77.3231 49.4678 81.2638 49.4678V48.5322ZM96.3957 48.5322H81.2638V49.4678H96.3957V48.5322ZM104.429 56.566C104.429 52.1085 100.853 48.5322 96.3957 48.5322V49.4678C100.336 49.4678 103.494 52.6252 103.494 56.566H104.429ZM104.429 64.1319V56.566H103.494V64.1319H104.429ZM119.094 63.6641H103.962V64.5997H119.094V63.6641ZM127.127 71.6979C127.127 67.2404 123.551 63.6641 119.094 63.6641V64.5997C123.034 64.5997 126.192 67.7571 126.192 71.6979H127.127ZM127.127 87.8133V71.6979H126.192V87.8133H127.127ZM81.2638 57.0337H96.3957V56.0982H81.2638V57.0337ZM81.7316 64.1319V56.566H80.796V64.1319H81.7316ZM96.3957 63.6641H81.2638V64.5997H96.3957V63.6641ZM95.9279 56.566V64.1319H96.8635V56.566H95.9279ZM146.941 136.569L136.164 125.792L135.503 126.454L146.28 137.231L146.941 136.569ZM146.931 140.906C148.129 139.707 148.129 137.769 146.943 136.571L146.278 137.229C147.103 138.062 147.103 139.411 146.269 140.244L146.931 140.906ZM143.872 143.965L146.931 140.906L146.269 140.244L143.21 143.303L143.872 143.965ZM139.546 143.965C140.743 145.163 142.684 145.165 143.873 143.963L143.208 143.305C142.387 144.135 141.042 144.138 140.207 143.303L139.546 143.965ZM128.769 133.188L139.546 143.965L140.207 143.303L129.43 132.526L128.769 133.188ZM127.875 131.02C127.875 131.834 128.193 132.613 128.769 133.188L129.43 132.526C129.033 132.129 128.811 131.589 128.811 131.02H127.875ZM127.875 129.258V131.02H128.811V129.258H127.875ZM114.507 134.481C119.836 134.481 124.736 132.672 128.631 129.626L128.055 128.889C124.319 131.81 119.62 133.546 114.507 133.546V134.481ZM91.5556 111.53C91.5556 124.209 101.829 134.481 114.507 134.481V133.546C102.345 133.546 92.4912 123.692 92.4912 111.53H91.5556ZM114.507 88.579C101.829 88.579 91.5556 98.852 91.5556 111.53H92.4912C92.4912 99.3687 102.345 89.5146 114.507 89.5146V88.579ZM137.458 111.53C137.458 98.852 127.185 88.579 114.507 88.579V89.5146C126.668 89.5146 136.523 99.3687 136.523 111.53H137.458ZM132.603 125.654C135.648 121.759 137.458 116.859 137.458 111.53H136.523C136.523 116.643 134.787 121.342 131.866 125.078L132.603 125.654ZM133.996 124.898H132.234V125.834H133.996V124.898ZM136.164 125.792C135.589 125.217 134.81 124.898 133.996 124.898V125.834C134.566 125.834 135.105 126.056 135.503 126.454L136.164 125.792ZM114.507 124.898C107.123 124.898 101.139 118.925 101.139 111.53H100.203C100.203 119.442 106.607 125.834 114.507 125.834V124.898ZM127.875 111.53C127.875 118.914 121.901 124.898 114.507 124.898V125.834C122.418 125.834 128.811 119.431 128.811 111.53H127.875ZM114.507 98.1621C121.891 98.1621 127.875 104.136 127.875 111.53H128.811C128.811 103.619 122.407 97.2265 114.507 97.2265V98.1621ZM101.139 111.53C101.139 104.146 107.112 98.1621 114.507 98.1621V97.2265C106.595 97.2265 100.203 103.63 100.203 111.53H101.139Z" fill="#B0CC0B"/>
<defs>
<filter id="filter0_i_109_284" x="50.5322" y="48.5322" width="97.2988" height="100.332" filterUnits="userSpaceOnUse" color-interpolation-filters="sRGB">
<feFlood flood-opacity="0" result="BackgroundImageFix"/>
<feBlend mode="normal" in="SourceGraphic" in2="BackgroundImageFix" result="shape"/>
<feColorMatrix in="SourceAlpha" type="matrix" values="0 0 0 0 0 0 0 0 0 0 0 0 0 0 0 0 0 0 127 0" result="hardAlpha"/>
<feOffset dy="4"/>
<feGaussianBlur stdDeviation="2"/>
<feComposite in2="hardAlpha" operator="arithmetic" k2="-1" k3="1"/>
<feColorMatrix type="matrix" values="0 0 0 0 0 0 0 0 0 0 0 0 0 0 0 0 0 0 0.25 0"/>
<feBlend mode="normal" in2="shape" result="effect1_innerShadow_109_284"/>
</filter>
</defs>
</svg>
