<svg width="180" height="180" viewBox="0 0 180 180" fill="none" xmlns="http://www.w3.org/2000/svg">
<g clip-path="url(#clip0_109_214)">
<g filter="url(#filter0_d_109_214)">
<path fill-rule="evenodd" clip-rule="evenodd" d="M20.7758 13C10.9585 13 3 20.9585 3 30.7758V149.593C3 159.41 10.9585 167.369 20.7758 167.369H159.24C169.057 167.369 177.015 159.41 177.015 149.593V30.7758C177.015 20.9585 169.057 13 159.24 13H20.7758ZM111.528 83.0116C117.164 83.0116 122.385 84.7896 126.66 87.7782V71.6627C126.66 67.4636 123.293 64.0967 119.094 64.0967H103.962V56.5308C103.962 52.3317 100.595 48.9648 96.3957 48.9648H81.2638C77.0647 48.9648 73.6979 52.3317 73.6979 56.5308V64.0967H58.566C54.3668 64.0967 51.0378 67.4636 51.0378 71.6627L51 113.275C51 117.475 54.3668 120.841 58.566 120.841H87.6192C85.6999 116.807 84.8333 112.352 85.1003 107.892C85.3672 103.433 86.759 99.113 89.1459 95.3363C91.5328 91.5596 94.8371 88.4487 98.7507 86.2936C102.664 84.1386 107.06 83.0095 111.528 83.0116ZM81.2638 56.5308H96.3957V64.0967H81.2638V56.5308ZM146.611 136.865L135.834 126.088C135.347 125.601 134.688 125.331 133.996 125.331H132.234C135.218 121.515 136.99 116.716 136.99 111.495C136.99 99.0752 126.927 89.0117 114.507 89.0117C102.087 89.0117 92.0234 99.0752 92.0234 111.495C92.0234 123.915 102.087 133.979 114.507 133.979C119.728 133.979 124.527 132.206 128.343 129.222V130.984C128.343 131.676 128.613 132.336 129.099 132.822L139.876 143.599C140.893 144.615 142.536 144.615 143.541 143.599L146.6 140.54C147.616 139.524 147.616 137.881 146.611 136.865ZM114.507 125.331C106.865 125.331 100.671 119.148 100.671 111.495C100.671 103.853 106.854 97.6591 114.507 97.6591C122.149 97.6591 128.343 103.842 128.343 111.495C128.343 119.137 122.16 125.331 114.507 125.331Z" fill="#D5F908"/>
<path fill-rule="evenodd" clip-rule="evenodd" d="M20.7758 13C10.9585 13 3 20.9585 3 30.7758V149.593C3 159.41 10.9585 167.369 20.7758 167.369H159.24C169.057 167.369 177.015 159.41 177.015 149.593V30.7758C177.015 20.9585 169.057 13 159.24 13H20.7758ZM111.528 83.0116C117.164 83.0116 122.385 84.7896 126.66 87.7782V71.6627C126.66 67.4636 123.293 64.0967 119.094 64.0967H103.962V56.5308C103.962 52.3317 100.595 48.9648 96.3957 48.9648H81.2638C77.0647 48.9648 73.6979 52.3317 73.6979 56.5308V64.0967H58.566C54.3668 64.0967 51.0378 67.4636 51.0378 71.6627L51 113.275C51 117.475 54.3668 120.841 58.566 120.841H87.6192C85.6999 116.807 84.8333 112.352 85.1003 107.892C85.3672 103.433 86.759 99.113 89.1459 95.3363C91.5328 91.5596 94.8371 88.4487 98.7507 86.2936C102.664 84.1386 107.06 83.0095 111.528 83.0116ZM81.2638 56.5308H96.3957V64.0967H81.2638V56.5308ZM146.611 136.865L135.834 126.088C135.347 125.601 134.688 125.331 133.996 125.331H132.234C135.218 121.515 136.99 116.716 136.99 111.495C136.99 99.0752 126.927 89.0117 114.507 89.0117C102.087 89.0117 92.0234 99.0752 92.0234 111.495C92.0234 123.915 102.087 133.979 114.507 133.979C119.728 133.979 124.527 132.206 128.343 129.222V130.984C128.343 131.676 128.613 132.336 129.099 132.822L139.876 143.599C140.893 144.615 142.536 144.615 143.541 143.599L146.6 140.54C147.616 139.524 147.616 137.881 146.611 136.865ZM114.507 125.331C106.865 125.331 100.671 119.148 100.671 111.495C100.671 103.853 106.854 97.6591 114.507 97.6591C122.149 97.6591 128.343 103.842 128.343 111.495C128.343 119.137 122.16 125.331 114.507 125.331Z" fill="url(#paint0_linear_109_214)" fill-opacity="0.39"/>
</g>
</g>
<defs>
<filter id="filter0_d_109_214" x="-1" y="13" width="184.016" height="167.369" filterUnits="userSpaceOnUse" color-interpolation-filters="sRGB">
<feFlood flood-opacity="0" result="BackgroundImageFix"/>
<feColorMatrix in="SourceAlpha" type="matrix" values="0 0 0 0 0 0 0 0 0 0 0 0 0 0 0 0 0 0 127 0" result="hardAlpha"/>
<feOffset dx="1" dy="8"/>
<feGaussianBlur stdDeviation="2.5"/>
<feComposite in2="hardAlpha" operator="out"/>
<feColorMatrix type="matrix" values="0 0 0 0 0 0 0 0 0 0 0 0 0 0 0 0 0 0 0.14 0"/>
<feBlend mode="normal" in2="BackgroundImageFix" result="effect1_dropShadow_109_214"/>
<feBlend mode="normal" in="SourceGraphic" in2="effect1_dropShadow_109_214" result="shape"/>
</filter>
<linearGradient id="paint0_linear_109_214" x1="-153" y1="13" x2="-152.992" y2="167.369" gradientUnits="userSpaceOnUse">
<stop/>
<stop offset="0.0001" stop-color="#EBFF75" stop-opacity="0"/>
<stop offset="1" stop-color="#ECFF80"/>
</linearGradient>
<clipPath id="clip0_109_214">
<rect width="180" height="180" fill="white"/>
</clipPath>
</defs>
</svg>
