<svg width="180" height="180" viewBox="0 0 180 180" fill="none" xmlns="http://www.w3.org/2000/svg">
<g clip-path="url(#clip0_109_187)">
<g filter="url(#filter0_d_109_187)">
<path fill-rule="evenodd" clip-rule="evenodd" d="M20.7758 13C10.9585 13 3 20.9585 3 30.7758V149.593C3 159.41 10.9585 167.369 20.7758 167.369H159.24C169.057 167.369 177.015 159.41 177.015 149.593V30.7758C177.015 20.9585 169.057 13 159.24 13H20.7758ZM129.149 109.49H71.9074L73.13 107.506C73.6542 106.656 73.8082 105.628 73.5571 104.66L72.3638 100.066L125.488 97.306C127.503 97.2033 129.149 95.4675 129.149 93.4513V69.1647C129.149 67.1485 127.499 65.4988 125.483 65.4988H63.3805L62.6639 62.7439C62.4597 61.9582 62.0005 61.2625 61.3582 60.7659C60.716 60.2693 59.9271 59.9999 59.1153 60H46.6659C45.6936 60 44.7612 60.3862 44.0737 61.0737C43.3862 61.7612 43 62.6936 43 63.6659C43 64.6382 43.3862 65.5706 44.0737 66.2581C44.7612 66.9456 45.6936 67.3318 46.6659 67.3318H56.2815L66.0695 104.99L62.2203 111.231C61.8779 111.786 61.6901 112.423 61.6762 113.075C61.6624 113.727 61.823 114.371 62.1415 114.941C62.4587 115.511 62.9224 115.986 63.4848 116.316C64.0471 116.647 64.6876 116.821 65.34 116.821H129.149C130.121 116.821 131.053 116.435 131.741 115.748C132.428 115.06 132.814 114.128 132.814 113.155C132.814 112.183 132.428 111.251 131.741 110.563C131.053 109.876 130.121 109.49 129.149 109.49ZM77.8261 125.986C77.8261 130.035 74.5436 133.318 70.4944 133.318C66.4451 133.318 63.1626 130.035 63.1626 125.986C63.1626 121.937 66.4451 118.654 70.4944 118.654C74.5436 118.654 77.8261 121.937 77.8261 125.986ZM130.982 125.986C130.982 130.035 127.699 133.318 123.65 133.318C119.601 133.318 116.318 130.035 116.318 125.986C116.318 121.937 119.601 118.654 123.65 118.654C127.699 118.654 130.982 121.937 130.982 125.986Z" fill="#D5F908"/>
<path fill-rule="evenodd" clip-rule="evenodd" d="M20.7758 13C10.9585 13 3 20.9585 3 30.7758V149.593C3 159.41 10.9585 167.369 20.7758 167.369H159.24C169.057 167.369 177.015 159.41 177.015 149.593V30.7758C177.015 20.9585 169.057 13 159.24 13H20.7758ZM129.149 109.49H71.9074L73.13 107.506C73.6542 106.656 73.8082 105.628 73.5571 104.66L72.3638 100.066L125.488 97.306C127.503 97.2033 129.149 95.4675 129.149 93.4513V69.1647C129.149 67.1485 127.499 65.4988 125.483 65.4988H63.3805L62.6639 62.7439C62.4597 61.9582 62.0005 61.2625 61.3582 60.7659C60.716 60.2693 59.9271 59.9999 59.1153 60H46.6659C45.6936 60 44.7612 60.3862 44.0737 61.0737C43.3862 61.7612 43 62.6936 43 63.6659C43 64.6382 43.3862 65.5706 44.0737 66.2581C44.7612 66.9456 45.6936 67.3318 46.6659 67.3318H56.2815L66.0695 104.99L62.2203 111.231C61.8779 111.786 61.6901 112.423 61.6762 113.075C61.6624 113.727 61.823 114.371 62.1415 114.941C62.4587 115.511 62.9224 115.986 63.4848 116.316C64.0471 116.647 64.6876 116.821 65.34 116.821H129.149C130.121 116.821 131.053 116.435 131.741 115.748C132.428 115.06 132.814 114.128 132.814 113.155C132.814 112.183 132.428 111.251 131.741 110.563C131.053 109.876 130.121 109.49 129.149 109.49ZM77.8261 125.986C77.8261 130.035 74.5436 133.318 70.4944 133.318C66.4451 133.318 63.1626 130.035 63.1626 125.986C63.1626 121.937 66.4451 118.654 70.4944 118.654C74.5436 118.654 77.8261 121.937 77.8261 125.986ZM130.982 125.986C130.982 130.035 127.699 133.318 123.65 133.318C119.601 133.318 116.318 130.035 116.318 125.986C116.318 121.937 119.601 118.654 123.65 118.654C127.699 118.654 130.982 121.937 130.982 125.986Z" fill="url(#paint0_linear_109_187)" fill-opacity="0.39"/>
</g>
</g>
<defs>
<filter id="filter0_d_109_187" x="-1" y="13" width="184.015" height="167.369" filterUnits="userSpaceOnUse" color-interpolation-filters="sRGB">
<feFlood flood-opacity="0" result="BackgroundImageFix"/>
<feColorMatrix in="SourceAlpha" type="matrix" values="0 0 0 0 0 0 0 0 0 0 0 0 0 0 0 0 0 0 127 0" result="hardAlpha"/>
<feOffset dx="1" dy="8"/>
<feGaussianBlur stdDeviation="2.5"/>
<feComposite in2="hardAlpha" operator="out"/>
<feColorMatrix type="matrix" values="0 0 0 0 0 0 0 0 0 0 0 0 0 0 0 0 0 0 0.14 0"/>
<feBlend mode="normal" in2="BackgroundImageFix" result="effect1_dropShadow_109_187"/>
<feBlend mode="normal" in="SourceGraphic" in2="effect1_dropShadow_109_187" result="shape"/>
</filter>
<linearGradient id="paint0_linear_109_187" x1="-153" y1="13" x2="-152.992" y2="167.369" gradientUnits="userSpaceOnUse">
<stop/>
<stop offset="0.0001" stop-color="#EBFF75" stop-opacity="0"/>
<stop offset="1" stop-color="#ECFF80"/>
</linearGradient>
<clipPath id="clip0_109_187">
<rect width="180" height="180" fill="white"/>
</clipPath>
</defs>
</svg>
