<svg width="180" height="180" viewBox="0 0 180 180" fill="none" xmlns="http://www.w3.org/2000/svg">
<g filter="url(#filter0_i_109_268)">
<path fill-rule="evenodd" clip-rule="evenodd" d="M71.9074 109.49H129.149C130.121 109.49 131.053 109.876 131.741 110.563C132.428 111.251 132.814 112.183 132.814 113.155C132.814 114.128 132.428 115.06 131.741 115.748C131.053 116.435 130.121 116.821 129.149 116.821H65.34C64.6876 116.821 64.0471 116.647 63.4848 116.316C62.9224 115.986 62.4587 115.511 62.1415 114.941C61.823 114.371 61.6624 113.727 61.6762 113.075C61.6901 112.423 61.8779 111.786 62.2203 111.231L66.0695 104.99L56.2815 67.3318H46.6659C45.6936 67.3318 44.7612 66.9456 44.0737 66.2581C43.3862 65.5706 43 64.6382 43 63.6659C43 62.6936 43.3862 61.7612 44.0737 61.0737C44.7612 60.3862 45.6936 60 46.6659 60H59.1153C59.9271 59.9999 60.716 60.2693 61.3582 60.7659C62.0005 61.2625 62.4597 61.9582 62.6639 62.7439L63.3805 65.4988H125.483C127.499 65.4988 129.149 67.1485 129.149 69.1647V93.4513C129.149 95.4675 127.503 97.2033 125.488 97.306L72.3638 100.066L73.5571 104.66C73.8082 105.628 73.6542 106.656 73.13 107.506L71.9074 109.49ZM70.4944 133.318C74.5436 133.318 77.8261 130.035 77.8261 125.986C77.8261 121.937 74.5436 118.654 70.4944 118.654C66.4451 118.654 63.1626 121.937 63.1626 125.986C63.1626 130.035 66.4451 133.318 70.4944 133.318ZM123.65 133.318C127.699 133.318 130.982 130.035 130.982 125.986C130.982 121.937 127.699 118.654 123.65 118.654C119.601 118.654 116.318 121.937 116.318 125.986C116.318 130.035 119.601 133.318 123.65 133.318Z" fill="#DAFA1F" fill-opacity="0.28"/>
</g>
<path d="M71.9074 109.49L71.5092 109.244L71.0695 109.957H71.9074V109.49ZM131.741 110.563L131.41 110.894L131.41 110.894L131.741 110.563ZM131.741 115.748L131.41 115.417L131.41 115.417L131.741 115.748ZM65.34 116.821L65.34 117.289H65.34V116.821ZM63.4848 116.316L63.2477 116.72L63.2477 116.72L63.4848 116.316ZM62.1415 114.941L62.5502 114.713L62.5497 114.712L62.1415 114.941ZM61.6762 113.075L62.1439 113.085L62.1439 113.085L61.6762 113.075ZM62.2203 111.231L61.8221 110.985L61.8221 110.985L62.2203 111.231ZM66.0695 104.99L66.4676 105.235L66.5725 105.065L66.5222 104.872L66.0695 104.99ZM56.2815 67.3318L56.7343 67.2141L56.6433 66.864H56.2815V67.3318ZM44.0737 66.2581L44.4045 65.9273L44.4045 65.9273L44.0737 66.2581ZM44.0737 61.0737L43.7429 60.7429L43.7429 60.7429L44.0737 61.0737ZM59.1153 60L59.1153 60.4678L59.1153 60.4678L59.1153 60ZM61.3582 60.7659L61.6444 60.3958L61.6444 60.3958L61.3582 60.7659ZM62.6639 62.7439L62.2111 62.8616L62.2111 62.8617L62.6639 62.7439ZM63.3805 65.4988L62.9278 65.6166L63.0189 65.9666H63.3805V65.4988ZM125.488 97.306L125.464 96.8388L125.464 96.8388L125.488 97.306ZM72.3638 100.066L72.3395 99.5992L71.7669 99.629L71.9111 100.184L72.3638 100.066ZM73.5571 104.66L74.0099 104.542L74.0098 104.542L73.5571 104.66ZM73.13 107.506L73.5282 107.752L73.5282 107.752L73.13 107.506ZM129.149 109.022H71.9074V109.957H129.149V109.022ZM132.071 110.233C131.296 109.457 130.245 109.022 129.149 109.022V109.957C129.997 109.957 130.81 110.294 131.41 110.894L132.071 110.233ZM133.282 113.155C133.282 112.059 132.847 111.008 132.071 110.233L131.41 110.894C132.01 111.494 132.347 112.307 132.347 113.155H133.282ZM132.071 116.078C132.847 115.303 133.282 114.252 133.282 113.155H132.347C132.347 114.004 132.01 114.817 131.41 115.417L132.071 116.078ZM129.149 117.289C130.245 117.289 131.296 116.854 132.071 116.078L131.41 115.417C130.81 116.017 129.997 116.354 129.149 116.354V117.289ZM65.34 117.289H129.149V116.354H65.34V117.289ZM63.2477 116.72C63.8819 117.093 64.6042 117.289 65.34 117.289L65.34 116.354C64.771 116.354 64.2124 116.202 63.7219 115.913L63.2477 116.72ZM61.7327 115.168C62.0904 115.811 62.6135 116.347 63.2477 116.72L63.7219 115.913C63.2314 115.625 62.8269 115.211 62.5502 114.713L61.7327 115.168ZM61.2085 113.065C61.1929 113.801 61.3741 114.527 61.7332 115.169L62.5497 114.712C62.2719 114.216 62.1318 113.654 62.1439 113.085L61.2085 113.065ZM61.8221 110.985C61.436 111.612 61.2242 112.33 61.2085 113.065L62.1439 113.085C62.156 112.516 62.3198 111.961 62.6185 111.476L61.8221 110.985ZM65.6713 104.744L61.8221 110.985L62.6184 111.476L66.4676 105.235L65.6713 104.744ZM55.8288 67.4495L65.6167 105.107L66.5222 104.872L56.7343 67.2141L55.8288 67.4495ZM46.6659 67.7996H56.2815V66.864H46.6659V67.7996ZM43.7429 66.5888C44.5182 67.3641 45.5696 67.7996 46.6659 67.7996V66.864C45.8177 66.864 45.0043 66.5271 44.4045 65.9273L43.7429 66.5888ZM42.5322 63.6659C42.5322 64.7622 42.9677 65.8136 43.7429 66.5888L44.4045 65.9273C43.8047 65.3275 43.4678 64.5141 43.4678 63.6659H42.5322ZM43.7429 60.7429C42.9677 61.5182 42.5322 62.5696 42.5322 63.6659H43.4678C43.4678 62.8177 43.8047 62.0043 44.4045 61.4045L43.7429 60.7429ZM46.6659 59.5322C45.5696 59.5322 44.5182 59.9677 43.7429 60.7429L44.4045 61.4045C45.0043 60.8047 45.8177 60.4678 46.6659 60.4678V59.5322ZM59.1153 59.5322H46.6659V60.4678H59.1153V59.5322ZM61.6444 60.3958C60.9202 59.8358 60.0306 59.5321 59.1152 59.5322L59.1153 60.4678C59.8236 60.4677 60.5118 60.7027 61.0721 61.1359L61.6444 60.3958ZM63.1166 62.6263C62.8864 61.7403 62.3686 60.9558 61.6444 60.3958L61.0721 61.1359C61.6324 61.5691 62.033 62.1761 62.2111 62.8616L63.1166 62.6263ZM63.8333 65.3811L63.1166 62.6262L62.2111 62.8617L62.9278 65.6166L63.8333 65.3811ZM125.483 65.0311H63.3805V65.9666H125.483V65.0311ZM129.616 69.1647C129.616 66.8901 127.757 65.0311 125.483 65.0311V65.9666C127.241 65.9666 128.681 67.4068 128.681 69.1647H129.616ZM129.616 93.4513V69.1647H128.681V93.4513H129.616ZM125.512 97.7732C127.776 97.6578 129.616 95.7161 129.616 93.4513H128.681C128.681 95.219 127.229 96.7489 125.464 96.8388L125.512 97.7732ZM72.3881 100.534L125.512 97.7731L125.464 96.8388L72.3395 99.5992L72.3881 100.534ZM74.0098 104.542L72.8166 99.9488L71.9111 100.184L73.1043 104.777L74.0098 104.542ZM73.5282 107.752C74.1194 106.793 74.2929 105.633 74.0099 104.542L73.1043 104.777C73.3235 105.622 73.189 106.519 72.7318 107.261L73.5282 107.752ZM72.3056 109.735L73.5282 107.752L72.7318 107.261L71.5092 109.244L72.3056 109.735ZM77.3584 125.986C77.3584 129.777 74.2852 132.85 70.4944 132.85V133.786C74.8019 133.786 78.2939 130.294 78.2939 125.986H77.3584ZM70.4944 119.122C74.2852 119.122 77.3584 122.195 77.3584 125.986H78.2939C78.2939 121.678 74.8019 118.186 70.4944 118.186V119.122ZM63.6303 125.986C63.6303 122.195 66.7035 119.122 70.4944 119.122V118.186C66.1868 118.186 62.6948 121.678 62.6948 125.986H63.6303ZM70.4944 132.85C66.7035 132.85 63.6303 129.777 63.6303 125.986H62.6948C62.6948 130.294 66.1868 133.786 70.4944 133.786V132.85ZM130.514 125.986C130.514 129.777 127.441 132.85 123.65 132.85V133.786C127.957 133.786 131.449 130.294 131.449 125.986H130.514ZM123.65 119.122C127.441 119.122 130.514 122.195 130.514 125.986H131.449C131.449 121.678 127.957 118.186 123.65 118.186V119.122ZM116.786 125.986C116.786 122.195 119.859 119.122 123.65 119.122V118.186C119.342 118.186 115.85 121.678 115.85 125.986H116.786ZM123.65 132.85C119.859 132.85 116.786 129.777 116.786 125.986H115.85C115.85 130.294 119.342 133.786 123.65 133.786V132.85Z" fill="#B0CC0B"/>
<defs>
<filter id="filter0_i_109_268" x="42.5322" y="59.5322" width="90.75" height="78.2534" filterUnits="userSpaceOnUse" color-interpolation-filters="sRGB">
<feFlood flood-opacity="0" result="BackgroundImageFix"/>
<feBlend mode="normal" in="SourceGraphic" in2="BackgroundImageFix" result="shape"/>
<feColorMatrix in="SourceAlpha" type="matrix" values="0 0 0 0 0 0 0 0 0 0 0 0 0 0 0 0 0 0 127 0" result="hardAlpha"/>
<feOffset dy="4"/>
<feGaussianBlur stdDeviation="2"/>
<feComposite in2="hardAlpha" operator="arithmetic" k2="-1" k3="1"/>
<feColorMatrix type="matrix" values="0 0 0 0 0 0 0 0 0 0 0 0 0 0 0 0 0 0 0.25 0"/>
<feBlend mode="normal" in2="shape" result="effect1_innerShadow_109_268"/>
</filter>
</defs>
</svg>
