<svg width="59" height="57" viewBox="0 0 59 57" fill="none" xmlns="http://www.w3.org/2000/svg">
<g filter="url(#filter0_d_37_2341)">
<path d="M48.218 11.8656H9.56173V10.3194L43.5792 7.59798V10.3194H48.218V5.68063C48.218 2.27888 45.4626 -0.108527 42.0979 0.37081L11.0461 4.80546C7.67839 5.28789 4.92297 8.46389 4.92297 11.8656V42.7906C4.92297 44.431 5.57461 46.0042 6.73452 47.1641C7.89443 48.324 9.46761 48.9756 11.108 48.9756H48.218C49.8584 48.9756 51.4315 48.324 52.5914 47.1641C53.7514 46.0042 54.403 44.431 54.403 42.7906V18.0506C54.403 16.4103 53.7514 14.8371 52.5914 13.6772C51.4315 12.5173 49.8584 11.8656 48.218 11.8656ZM43.5792 33.5317C42.9699 33.5315 42.3665 33.4113 41.8036 33.1779C41.2407 32.9445 40.7293 32.6025 40.2985 32.1715C39.8678 31.7405 39.5261 31.2288 39.2931 30.6657C39.0601 30.1027 38.9403 29.4992 38.9405 28.8899C38.9407 28.2805 39.0609 27.6771 39.2943 27.1142C39.5277 26.5513 39.8697 26.0399 40.3007 25.6091C40.7317 25.1784 41.2434 24.8367 41.8064 24.6037C42.3695 24.3707 42.973 24.2509 43.5823 24.2511C44.813 24.2515 45.9931 24.7408 46.8631 25.6113C47.733 26.4818 48.2215 27.6623 48.2211 28.8929C48.2207 30.1236 47.7314 31.3037 46.8609 32.1737C45.9904 33.0436 44.8099 33.5321 43.5792 33.5317Z" fill="#D5F908"/>
</g>
<defs>
<filter id="filter0_d_37_2341" x="0.922974" y="0.30957" width="57.48" height="56.666" filterUnits="userSpaceOnUse" color-interpolation-filters="sRGB">
<feFlood flood-opacity="0" result="BackgroundImageFix"/>
<feColorMatrix in="SourceAlpha" type="matrix" values="0 0 0 0 0 0 0 0 0 0 0 0 0 0 0 0 0 0 127 0" result="hardAlpha"/>
<feOffset dy="4"/>
<feGaussianBlur stdDeviation="2"/>
<feComposite in2="hardAlpha" operator="out"/>
<feColorMatrix type="matrix" values="0 0 0 0 0 0 0 0 0 0 0 0 0 0 0 0 0 0 0.09 0"/>
<feBlend mode="normal" in2="BackgroundImageFix" result="effect1_dropShadow_37_2341"/>
<feBlend mode="normal" in="SourceGraphic" in2="effect1_dropShadow_37_2341" result="shape"/>
</filter>
</defs>
</svg>
