<svg width="447" height="579" viewBox="0 0 447 579" fill="none" xmlns="http://www.w3.org/2000/svg">
<g clip-path="url(#clip0_296_1723)">
<rect width="447" height="579" rx="25" fill="#B61BFF" fill-opacity="0.3"/>
<g opacity="0.28" filter="url(#filter0_f_296_1723)">
<path d="M418.108 303.002C394.83 315.777 363.124 314.389 336.311 301.634C324.92 296.215 314.412 288.744 305.809 279.436C276.956 248.22 280.454 208.158 313.621 189.957C346.788 171.755 397.066 182.306 425.919 213.523C454.772 244.739 451.275 284.801 418.108 303.002Z" fill="#8C61E8" fill-opacity="0.71"/>
</g>
<g opacity="0.14" filter="url(#filter1_f_296_1723)">
<path d="M156.572 609.171C115.889 631.497 60.4757 629.071 13.6151 606.779C-6.29306 597.308 -24.6576 584.252 -39.6933 567.984C-90.1205 513.426 -84.0082 443.41 -26.041 411.599C31.9263 379.788 119.797 398.228 170.225 452.786C220.652 507.344 214.54 577.36 156.572 609.171Z" fill="#8C61E8" fill-opacity="0.71"/>
</g>
<g opacity="0.28" filter="url(#filter2_f_296_1723)">
<path d="M86.9354 132.402C57.0707 148.791 18.7285 149.536 -12.2565 136.866C-25.42 131.483 -37.2557 123.679 -46.5493 113.624C-77.7185 79.9017 -68.4907 33.634 -25.9384 10.2822C16.6139 -13.0696 76.377 -4.66261 107.546 29.0598C138.715 62.7822 129.488 109.05 86.9354 132.402Z" fill="#B461E8" fill-opacity="0.71"/>
</g>
<g opacity="0.28" filter="url(#filter3_f_296_1723)">
<path d="M247.92 487.402C218.055 503.791 179.713 504.536 148.728 491.866C135.564 486.483 123.729 478.679 114.435 468.624C83.2659 434.902 92.4937 388.634 135.046 365.282C177.598 341.93 237.361 350.337 268.531 384.06C299.7 417.782 290.472 464.05 247.92 487.402Z" fill="#B461E8" fill-opacity="0.71"/>
</g>
<g opacity="0.28" filter="url(#filter4_f_296_1723)">
<path d="M157.896 67.4559C139.829 77.3706 116.634 77.8217 97.8891 70.1566C89.9257 66.9002 82.7656 62.179 77.1434 56.0963C58.2874 35.6957 63.8698 7.7057 89.6121 -6.42113C115.354 -20.5479 151.508 -15.4621 170.365 4.93851C189.221 25.3391 183.638 53.3291 157.896 67.4559Z" fill="#B461E8" fill-opacity="0.71"/>
</g>
<g opacity="0.28" filter="url(#filter5_f_296_1723)">
<path d="M341.626 93.9283C329.105 100.8 313.029 101.112 300.038 95.8C294.519 93.5432 289.557 90.2711 285.66 86.0554C272.592 71.9167 276.461 52.5182 294.302 42.7275C312.143 32.9369 337.199 36.4617 350.268 50.6004C363.336 64.7391 359.467 84.1376 341.626 93.9283Z" fill="#B461E8" fill-opacity="0.71"/>
</g>
<g opacity="0.28" filter="url(#filter6_f_296_1723)">
<path d="M338.878 351.696C321.07 361.469 296.814 360.407 276.302 350.649C267.587 346.503 259.549 340.788 252.967 333.667C230.893 309.786 233.569 279.138 258.943 265.213C284.317 251.288 322.781 259.36 344.854 283.242C366.928 307.123 364.252 337.771 338.878 351.696Z" fill="#E69EFF" fill-opacity="0.32"/>
</g>
<g opacity="0.37" filter="url(#filter7_f_296_1723)">
<path d="M346.648 340.077C344.157 354.15 302.277 359.321 243.136 355.065C218.011 353.258 189.77 349.748 160.111 344.498C60.6388 326.888 -17.1217 296.358 -13.5719 276.306C-10.0222 256.255 73.4935 254.276 172.966 271.885C272.438 289.495 350.198 320.026 346.648 340.077Z" fill="#BE35FF" fill-opacity="0.4"/>
</g>
<path opacity="0.37" d="M303.892 284.748C306.226 286.601 307.864 288.4 308.728 290.114L308.374 290.293C308.96 291.456 309.157 292.547 308.977 293.569C308.812 294.5 308.332 295.378 307.529 296.201L307.812 296.478C306.585 297.736 304.682 298.829 302.176 299.756L302.039 299.384C300.256 300.044 298.155 300.621 295.761 301.113L295.841 301.501C293.865 301.907 291.695 302.255 289.346 302.543L289.298 302.15C287.257 302.4 285.078 302.606 282.773 302.768L282.801 303.163C280.711 303.309 278.518 303.419 276.228 303.491L276.216 303.094C274.109 303.161 271.92 303.196 269.654 303.199L269.655 303.596C267.527 303.599 265.331 303.574 263.074 303.522L263.083 303.125C260.948 303.075 258.757 303.001 256.514 302.901L256.497 303.297C254.354 303.201 252.163 303.083 249.929 302.941L249.954 302.546C248.872 302.477 247.779 302.403 246.676 302.324C245.633 302.249 244.58 302.169 243.519 302.084L243.487 302.479C241.413 302.314 239.307 302.129 237.17 301.926L237.207 301.532C235.134 301.335 233.032 301.12 230.904 300.888L230.861 301.283C228.785 301.056 226.684 300.813 224.561 300.554L224.609 300.16C222.535 299.906 220.44 299.636 218.324 299.351L218.271 299.744C216.196 299.463 214.103 299.168 211.992 298.857L212.05 298.464C209.978 298.159 207.889 297.838 205.786 297.503L205.723 297.895C203.652 297.565 201.565 297.22 199.466 296.86L199.533 296.469C198.496 296.292 197.455 296.111 196.411 295.926C195.21 295.713 194.014 295.497 192.823 295.279L192.751 295.669C190.346 295.227 187.963 294.772 185.604 294.307L185.681 293.918C183.277 293.443 180.898 292.956 178.548 292.459L178.465 292.847C176.063 292.339 173.69 291.819 171.349 291.289L171.437 290.902C169.044 290.361 166.685 289.808 164.363 289.246L164.269 289.632C161.871 289.052 159.512 288.461 157.195 287.862L157.294 287.478C154.908 286.86 152.566 286.233 150.273 285.598L150.167 285.981C147.778 285.319 145.441 284.649 143.161 283.971L143.274 283.591C140.898 282.885 138.584 282.171 136.336 281.451L136.215 281.829C133.833 281.067 131.524 280.297 129.293 279.523L129.424 279.148C127.054 278.325 124.774 277.497 122.589 276.666L122.448 277.036C120.082 276.136 117.826 275.232 115.69 274.328L115.845 273.962C113.488 272.964 111.278 271.966 109.225 270.972L109.052 271.33C106.702 270.192 104.555 269.059 102.628 267.937L102.828 267.594C100.487 266.232 98.4784 264.889 96.8274 263.577L96.5807 263.888C94.2473 262.035 92.6091 260.236 91.745 258.522L92.0992 258.343C91.5127 257.18 91.3154 256.089 91.4962 255.068C91.677 254.046 92.2369 253.089 93.1872 252.198L92.9158 251.908C94.3159 250.595 96.4722 249.468 99.2998 248.528L99.4249 248.905C101.426 248.24 103.774 247.669 106.44 247.192L106.37 246.802C108.565 246.41 110.97 246.082 113.568 245.821L113.607 246.215C115.877 245.987 118.296 245.808 120.852 245.68L120.832 245.284C123.149 245.168 125.577 245.093 128.109 245.06L128.114 245.457C130.452 245.426 132.878 245.431 135.385 245.471L135.392 245.075C137.752 245.113 140.185 245.183 142.684 245.284L142.668 245.681C145.027 245.776 147.446 245.901 149.919 246.053L149.944 245.657C152.318 245.804 154.743 245.976 157.214 246.175L157.182 246.57C159.554 246.761 161.968 246.977 164.422 247.216L164.46 246.821C166.842 247.054 169.261 247.309 171.713 247.587L171.668 247.981C174.042 248.251 176.447 248.542 178.881 248.855L178.931 248.461C181.312 248.767 183.719 249.094 186.15 249.441L186.094 249.834C188.472 250.174 190.873 250.533 193.294 250.913L193.356 250.521C195.731 250.893 198.125 251.285 200.536 251.695L200.469 252.086C201.663 252.29 202.86 252.498 204.062 252.71C205.263 252.923 206.459 253.139 207.65 253.358L207.722 252.968C210.127 253.41 212.51 253.864 214.869 254.329L214.792 254.719C217.196 255.193 219.575 255.68 221.925 256.177L222.007 255.789C224.41 256.298 226.783 256.817 229.124 257.347L229.036 257.734C231.429 258.276 233.788 258.828 236.11 259.39L236.203 259.004C238.602 259.585 240.961 260.175 243.278 260.774L243.179 261.158C245.565 261.776 247.907 262.403 250.2 263.038L250.306 262.656C252.695 263.317 255.032 263.987 257.312 264.665L257.199 265.045C259.574 265.751 261.889 266.465 264.137 267.185L264.258 266.807C266.64 267.57 268.949 268.339 271.179 269.114L271.049 269.488C273.419 270.311 275.699 271.139 277.884 271.971L278.025 271.6C280.391 272.5 282.647 273.404 284.783 274.309L284.628 274.674C286.985 275.672 289.195 276.67 291.248 277.664L291.421 277.307C293.771 278.444 295.917 279.577 297.845 280.699L297.645 281.042C299.986 282.405 301.994 283.748 303.646 285.059L303.892 284.748Z" stroke="white" stroke-width="0.793373" stroke-dasharray="6.96 6.96"/>
<path opacity="0.37" d="M371.5 217.582L375.843 234.347L375.886 234.517L376.041 234.598L388.151 241L376.041 247.402L375.886 247.483L375.843 247.653L371.5 264.418L367.157 247.653L367.114 247.483L366.959 247.402L354.849 241L366.959 234.598L367.114 234.517L367.157 234.347L371.5 217.582Z" stroke="white" stroke-width="0.793373"/>
</g>
<rect x="2.5" y="2.5" width="442" height="574" rx="22.5" stroke="#B61BFF" stroke-width="5"/>
<defs>
<filter id="filter0_f_296_1723" x="239.741" y="134.515" width="252.249" height="223.929" filterUnits="userSpaceOnUse" color-interpolation-filters="sRGB">
<feFlood flood-opacity="0" result="BackgroundImageFix"/>
<feBlend mode="normal" in="SourceGraphic" in2="BackgroundImageFix" result="shape"/>
<feGaussianBlur stdDeviation="23.2625" result="effect1_foregroundBlur_296_1723"/>
</filter>
<filter id="filter1_f_296_1723" x="-155.164" y="314.702" width="440.859" height="391.366" filterUnits="userSpaceOnUse" color-interpolation-filters="sRGB">
<feFlood flood-opacity="0" result="BackgroundImageFix"/>
<feBlend mode="normal" in="SourceGraphic" in2="BackgroundImageFix" result="shape"/>
<feGaussianBlur stdDeviation="40.6563" result="effect1_foregroundBlur_296_1723"/>
</filter>
<filter id="filter2_f_296_1723" x="-111.541" y="-49.4605" width="284.077" height="241.605" filterUnits="userSpaceOnUse" color-interpolation-filters="sRGB">
<feFlood flood-opacity="0" result="BackgroundImageFix"/>
<feBlend mode="normal" in="SourceGraphic" in2="BackgroundImageFix" result="shape"/>
<feGaussianBlur stdDeviation="23.2625" result="effect1_foregroundBlur_296_1723"/>
</filter>
<filter id="filter3_f_296_1723" x="34.9688" y="291.064" width="313.027" height="270.555" filterUnits="userSpaceOnUse" color-interpolation-filters="sRGB">
<feFlood flood-opacity="0" result="BackgroundImageFix"/>
<feBlend mode="normal" in="SourceGraphic" in2="BackgroundImageFix" result="shape"/>
<feGaussianBlur stdDeviation="30.5" result="effect1_foregroundBlur_296_1723"/>
</filter>
<filter id="filter4_f_296_1723" x="18.9727" y="-61.417" width="209.562" height="183.869" filterUnits="userSpaceOnUse" color-interpolation-filters="sRGB">
<feFlood flood-opacity="0" result="BackgroundImageFix"/>
<feBlend mode="normal" in="SourceGraphic" in2="BackgroundImageFix" result="shape"/>
<feGaussianBlur stdDeviation="23.5" result="effect1_foregroundBlur_296_1723"/>
</filter>
<filter id="filter5_f_296_1723" x="241.918" y="1.18555" width="152.09" height="134.284" filterUnits="userSpaceOnUse" color-interpolation-filters="sRGB">
<feFlood flood-opacity="0" result="BackgroundImageFix"/>
<feBlend mode="normal" in="SourceGraphic" in2="BackgroundImageFix" result="shape"/>
<feGaussianBlur stdDeviation="18" result="effect1_foregroundBlur_296_1723"/>
</filter>
<filter id="filter6_f_296_1723" x="202.423" y="222.799" width="192.979" height="171.312" filterUnits="userSpaceOnUse" color-interpolation-filters="sRGB">
<feFlood flood-opacity="0" result="BackgroundImageFix"/>
<feBlend mode="normal" in="SourceGraphic" in2="BackgroundImageFix" result="shape"/>
<feGaussianBlur stdDeviation="17.7965" result="effect1_foregroundBlur_296_1723"/>
</filter>
<filter id="filter7_f_296_1723" x="-77.7063" y="195.852" width="488.491" height="224.678" filterUnits="userSpaceOnUse" color-interpolation-filters="sRGB">
<feFlood flood-opacity="0" result="BackgroundImageFix"/>
<feBlend mode="normal" in="SourceGraphic" in2="BackgroundImageFix" result="shape"/>
<feGaussianBlur stdDeviation="32.0094" result="effect1_foregroundBlur_296_1723"/>
</filter>
<clipPath id="clip0_296_1723">
<rect width="447" height="579" rx="25" fill="white"/>
</clipPath>
</defs>
</svg>
