<svg width="33" height="33" viewBox="0 0 33 33" fill="none" xmlns="http://www.w3.org/2000/svg">
<path d="M18.4504 25.6966C19.5011 23.2261 18.9234 20.6149 17.1589 19.864C17.0072 19.7995 16.8494 19.7508 16.6919 19.7171L17.9468 16.7723L25.3539 16.5348C26.0346 16.4651 26.6938 16.1594 27.1997 15.6221C27.665 15.1289 27.9459 14.4902 27.9948 13.814L27.9843 13.4982L19.2276 13.7645L22.6598 5.70405L22.3695 5.57944C21.707 5.37365 20.9932 5.40834 20.3538 5.67741C19.7144 5.94648 19.1906 6.43264 18.8746 7.05018L15.9599 13.8639L12.7604 13.9621C12.7871 13.8007 12.7981 13.6372 12.7934 13.4736C12.7355 11.5569 10.5143 10.0684 7.82963 10.1497C5.145 10.2309 3.0175 11.8492 3.07426 13.7666C3.13217 15.6834 5.35339 17.1718 8.03802 17.0906L14.6699 16.878L12.0604 22.9786C11.0096 25.4492 11.5874 28.0604 13.3519 28.8113C15.1163 29.5622 17.3985 28.168 18.4504 25.6966V25.6966ZM7.97438 15.0079C6.76628 15.0443 5.88634 14.6328 5.46425 14.2366C5.32679 14.1067 5.16199 13.9098 5.15502 13.7026C5.14819 13.4735 5.34562 13.1839 5.68288 12.9266C6.22985 12.5109 7.03522 12.2567 7.88941 12.2316C9.09751 12.1952 9.97745 12.6067 10.3995 13.003C10.537 13.1328 10.7018 13.3297 10.7088 13.5369C10.7156 13.7661 10.5182 14.0557 10.1809 14.313C9.6328 14.7295 8.82857 14.9828 7.97438 15.0079V15.0079ZM16.144 15.8693C16.0401 15.7172 16.0009 15.5301 16.035 15.3491C16.0691 15.1681 16.1736 15.008 16.3257 14.9041C16.4778 14.8003 16.6649 14.761 16.8459 14.7951C17.0269 14.8292 17.187 14.9338 17.2909 15.0858C17.3948 15.2379 17.434 15.4251 17.3999 15.6061C17.3659 15.7871 17.2613 15.9471 17.1092 16.051C16.9571 16.1549 16.77 16.1941 16.589 16.1601C16.408 16.126 16.2479 16.0214 16.144 15.8693ZM15.0826 26.6836C14.7202 26.9042 14.3786 26.9828 14.1677 26.8932C13.978 26.8125 13.8537 26.5862 13.7827 26.4109C13.5659 25.8744 13.5037 24.9043 13.9769 23.7922C14.312 23.0048 14.8405 22.3477 15.4266 21.9894C15.789 21.7688 16.1306 21.6901 16.3415 21.7798C16.5312 21.8605 16.6555 22.0868 16.7265 22.262C16.9433 22.7985 17.0055 23.7687 16.5323 24.8808C16.1972 25.6682 15.6687 26.3253 15.0826 26.6836Z" fill="white"/>
</svg>
