<svg width="447" height="579" viewBox="0 0 447 579" fill="none" xmlns="http://www.w3.org/2000/svg">
<g clip-path="url(#clip0_296_1700)">
<rect width="447" height="579" rx="25" fill="#DEFF1E" fill-opacity="0.3"/>
<g opacity="0.37" filter="url(#filter0_f_296_1700)">
<path d="M263.707 316.174C262.537 326.494 249.317 334.059 230.971 336.455C223.177 337.473 214.458 337.558 205.345 336.524C174.78 333.059 151.353 318.329 153.02 303.625C154.688 288.92 180.817 279.809 211.382 283.275C241.947 286.74 265.374 301.47 263.707 316.174Z" fill="#BFF793" fill-opacity="0.42"/>
</g>
<g opacity="0.37" filter="url(#filter1_f_296_1700)">
<path d="M386.302 288.071C383.822 309.951 366.465 327.2 343.17 334.048C333.274 336.958 322.306 337.99 310.951 336.703C272.871 332.385 244.866 303.612 248.401 272.436C251.935 241.26 285.671 219.486 323.752 223.804C361.832 228.121 389.837 256.895 386.302 288.071Z" fill="#D5E861" fill-opacity="0.71"/>
</g>
<g opacity="0.29" filter="url(#filter2_f_296_1700)">
<path d="M138.852 344.385C137.325 357.857 126.637 368.478 112.294 372.694C106.201 374.486 99.4475 375.121 92.4563 374.329C69.0091 371.67 51.7656 353.954 53.9421 334.758C56.1185 315.561 76.8906 302.155 100.338 304.813C123.785 307.472 141.029 325.188 138.852 344.385Z" fill="#D5E861" fill-opacity="0.71"/>
</g>
<g opacity="0.29" filter="url(#filter3_f_296_1700)">
<path d="M142.689 90.5472C140.674 108.319 126.576 122.328 107.657 127.89C99.6187 130.253 90.7104 131.092 81.4884 130.046C50.5593 126.539 27.8137 103.17 30.6846 77.8484C33.5555 52.527 60.9558 34.8427 91.8849 38.3494C122.814 41.8561 145.56 65.2259 142.689 90.5472Z" fill="#D5E861" fill-opacity="0.71"/>
</g>
<g opacity="0.29" filter="url(#filter4_f_296_1700)">
<path d="M73.2044 134.547C71.1895 152.319 57.0921 166.328 38.1722 171.89C30.1343 174.253 21.2261 175.092 12.0041 174.046C-18.925 170.539 -41.6707 147.17 -38.7998 121.848C-35.9289 96.527 -8.52858 78.8427 22.4005 82.3494C53.3296 85.8561 76.0753 109.226 73.2044 134.547Z" fill="#D5E861" fill-opacity="0.71"/>
</g>
<g opacity="0.29" filter="url(#filter5_f_296_1700)">
<path d="M413.356 541.068C409.258 577.209 380.588 605.701 342.111 617.012C325.764 621.818 307.648 623.523 288.893 621.397C225.992 614.265 179.734 566.738 185.573 515.242C191.411 463.746 247.135 427.781 310.036 434.913C372.937 442.044 419.194 489.572 413.356 541.068Z" fill="#D5E861" fill-opacity="0.71"/>
</g>
<g opacity="0.37" filter="url(#filter6_f_296_1700)">
<path d="M367.395 353.147C365.498 369.886 352.219 383.082 334.398 388.321C326.827 390.547 318.436 391.336 309.75 390.351C280.617 387.048 259.193 365.036 261.897 341.185C264.601 317.335 290.41 300.678 319.542 303.981C348.675 307.284 370.1 329.296 367.395 353.147Z" fill="#F1FF9E" fill-opacity="0.32"/>
</g>
<path opacity="0.37" d="M296.091 273.661C298.663 275.454 300.501 277.236 301.521 278.98L301.161 279.19C301.853 280.374 302.132 281.507 302.009 282.592C301.897 283.581 301.45 284.534 300.661 285.451L300.977 285.723C299.77 287.125 297.844 288.398 295.272 289.536L295.103 289.154C293.273 289.964 291.105 290.708 288.623 291.381L288.733 291.784C286.684 292.34 284.427 292.848 281.979 293.305L281.903 292.894C279.775 293.291 277.501 293.651 275.09 293.971L275.145 294.385C272.959 294.675 270.663 294.934 268.263 295.16L268.224 294.744C266.016 294.952 263.719 295.132 261.34 295.284L261.366 295.701C259.131 295.843 256.824 295.961 254.449 296.054L254.433 295.637C252.187 295.725 249.881 295.79 247.519 295.832L247.526 296.249C245.269 296.289 242.961 296.308 240.605 296.306L240.605 295.889C239.464 295.888 238.311 295.882 237.148 295.871C236.047 295.86 234.936 295.845 233.816 295.826L233.808 296.243C231.619 296.205 229.395 296.149 227.137 296.076L227.151 295.659C224.96 295.588 222.738 295.501 220.488 295.397L220.469 295.814C218.273 295.712 216.051 295.594 213.804 295.461L213.829 295.044C211.634 294.914 209.415 294.768 207.175 294.606L207.145 295.022C204.947 294.864 202.729 294.691 200.491 294.502L200.526 294.086C198.33 293.901 196.115 293.702 193.884 293.487L193.844 293.903C191.647 293.692 189.433 293.466 187.205 293.227L187.249 292.812C186.148 292.693 185.043 292.571 183.935 292.445C182.659 292.301 181.388 292.152 180.123 292.001L180.074 292.415C177.518 292.108 174.985 291.787 172.478 291.453L172.533 291.039C169.976 290.698 167.446 290.343 164.945 289.975L164.884 290.388C162.327 290.011 159.801 289.621 157.308 289.218L157.375 288.806C154.826 288.394 152.312 287.968 149.836 287.53L149.763 287.941C147.206 287.489 144.69 287.023 142.217 286.546L142.296 286.136C139.749 285.644 137.248 285.139 134.798 284.622L134.711 285.031C132.159 284.492 129.661 283.941 127.222 283.379L127.315 282.972C124.774 282.387 122.297 281.789 119.888 281.18L119.785 281.585C117.234 280.94 114.758 280.283 112.365 279.616L112.477 279.213C109.935 278.505 107.485 277.784 105.136 277.054L105.012 277.453C102.468 276.662 100.04 275.861 97.7366 275.051L97.8751 274.657C95.3345 273.763 92.9476 272.86 90.7259 271.951L90.5677 272.337C88.0251 271.296 85.6964 270.247 83.5989 269.195L83.7861 268.822C81.2383 267.544 79.0403 266.265 77.2203 264.996L76.9815 265.339C74.4094 263.545 72.5708 261.763 71.5508 260.019L71.9112 259.809C71.2189 258.625 70.9402 257.492 71.0631 256.407C71.1861 255.323 71.7114 254.281 72.6511 253.282L72.3471 252.996C73.7315 251.525 75.9224 250.2 78.8308 249.028L78.9868 249.415C81.0448 248.586 83.4732 247.832 86.2424 247.157L86.1436 246.751C88.4234 246.195 90.9278 245.694 93.639 245.249L93.7066 245.661C96.0755 245.272 98.6041 244.926 101.28 244.624L101.233 244.209C103.659 243.935 106.205 243.697 108.862 243.497L108.893 243.913C111.347 243.728 113.895 243.574 116.532 243.452L116.512 243.035C118.994 242.92 121.554 242.834 124.185 242.777L124.194 243.194C126.679 243.14 129.227 243.112 131.835 243.11L131.834 242.693C134.338 242.691 136.896 242.713 139.504 242.76L139.497 243.178C142 243.223 144.551 243.291 147.143 243.381L147.158 242.964C149.675 243.052 152.232 243.162 154.825 243.293L154.804 243.71C157.315 243.838 159.861 243.986 162.437 244.155L162.464 243.738C164.984 243.904 167.534 244.089 170.11 244.294L170.077 244.71C172.597 244.911 175.143 245.132 177.711 245.372L177.75 244.956C180.268 245.192 182.809 245.446 185.368 245.719L185.324 246.134C186.59 246.269 187.862 246.409 189.138 246.554C190.413 246.699 191.684 246.847 192.949 246.999L192.999 246.584C195.554 246.891 198.087 247.212 200.594 247.546L200.539 247.96C203.096 248.301 205.626 248.656 208.127 249.025L208.188 248.612C210.745 248.988 213.271 249.378 215.764 249.781L215.698 250.193C218.246 250.606 220.76 251.031 223.236 251.469L223.309 251.058C225.866 251.51 228.383 251.976 230.855 252.454L230.776 252.863C233.323 253.355 235.824 253.86 238.275 254.377L238.361 253.969C240.913 254.507 243.411 255.058 245.851 255.62L245.757 256.027C248.298 256.612 250.776 257.21 253.185 257.819L253.287 257.414C255.839 258.059 258.314 258.716 260.707 259.384L260.595 259.786C263.138 260.495 265.587 261.215 267.936 261.945L268.06 261.546C270.605 262.337 273.033 263.138 275.336 263.948L275.197 264.342C277.738 265.236 280.125 266.139 282.346 267.049L282.504 266.662C285.047 267.703 287.376 268.752 289.473 269.804L289.286 270.177C291.834 271.455 294.032 272.734 295.852 274.003L296.091 273.661Z" stroke="white" stroke-width="0.834911" stroke-dasharray="7.33 7.33"/>
</g>
<rect x="2.5" y="2.5" width="442" height="574" rx="22.5" stroke="#DEFF1E" stroke-width="5"/>
<defs>
<filter id="filter0_f_296_1700" x="106.413" y="236.014" width="203.901" height="147.771" filterUnits="userSpaceOnUse" color-interpolation-filters="sRGB">
<feFlood flood-opacity="0" result="BackgroundImageFix"/>
<feBlend mode="normal" in="SourceGraphic" in2="BackgroundImageFix" result="shape"/>
<feGaussianBlur stdDeviation="23.2625" result="effect1_foregroundBlur_296_1700"/>
</filter>
<filter id="filter1_f_296_1700" x="201.577" y="176.733" width="231.55" height="207.04" filterUnits="userSpaceOnUse" color-interpolation-filters="sRGB">
<feFlood flood-opacity="0" result="BackgroundImageFix"/>
<feBlend mode="normal" in="SourceGraphic" in2="BackgroundImageFix" result="shape"/>
<feGaussianBlur stdDeviation="23.2625" result="effect1_foregroundBlur_296_1700"/>
</filter>
<filter id="filter2_f_296_1700" x="-2.24219" y="248.478" width="197.281" height="182.187" filterUnits="userSpaceOnUse" color-interpolation-filters="sRGB">
<feFlood flood-opacity="0" result="BackgroundImageFix"/>
<feBlend mode="normal" in="SourceGraphic" in2="BackgroundImageFix" result="shape"/>
<feGaussianBlur stdDeviation="28" result="effect1_foregroundBlur_296_1700"/>
</filter>
<filter id="filter3_f_296_1700" x="-43.4277" y="-35.9629" width="260.23" height="240.321" filterUnits="userSpaceOnUse" color-interpolation-filters="sRGB">
<feFlood flood-opacity="0" result="BackgroundImageFix"/>
<feBlend mode="normal" in="SourceGraphic" in2="BackgroundImageFix" result="shape"/>
<feGaussianBlur stdDeviation="36.9346" result="effect1_foregroundBlur_296_1700"/>
</filter>
<filter id="filter4_f_296_1700" x="-112.912" y="8.03711" width="260.23" height="240.321" filterUnits="userSpaceOnUse" color-interpolation-filters="sRGB">
<feFlood flood-opacity="0" result="BackgroundImageFix"/>
<feBlend mode="normal" in="SourceGraphic" in2="BackgroundImageFix" result="shape"/>
<feGaussianBlur stdDeviation="36.9346" result="effect1_foregroundBlur_296_1700"/>
</filter>
<filter id="filter5_f_296_1700" x="34.8465" y="283.784" width="529.233" height="488.742" filterUnits="userSpaceOnUse" color-interpolation-filters="sRGB">
<feFlood flood-opacity="0" result="BackgroundImageFix"/>
<feBlend mode="normal" in="SourceGraphic" in2="BackgroundImageFix" result="shape"/>
<feGaussianBlur stdDeviation="75.1139" result="effect1_foregroundBlur_296_1700"/>
</filter>
<filter id="filter6_f_296_1700" x="226.075" y="267.971" width="177.143" height="158.391" filterUnits="userSpaceOnUse" color-interpolation-filters="sRGB">
<feFlood flood-opacity="0" result="BackgroundImageFix"/>
<feBlend mode="normal" in="SourceGraphic" in2="BackgroundImageFix" result="shape"/>
<feGaussianBlur stdDeviation="17.7965" result="effect1_foregroundBlur_296_1700"/>
</filter>
<clipPath id="clip0_296_1700">
<rect width="447" height="579" rx="25" fill="white"/>
</clipPath>
</defs>
</svg>
