<svg width="86" height="86" viewBox="0 0 86 86" fill="none" xmlns="http://www.w3.org/2000/svg">
<path fill-rule="evenodd" clip-rule="evenodd" d="M43 86C66.7482 86 86 66.7482 86 43C86 19.2518 66.7482 0 43 0C19.2518 0 0 19.2518 0 43C0 66.7482 19.2518 86 43 86ZM53.0892 21.3671C53.0892 24.0991 50.8539 26.3344 48.1218 26.3344C45.3898 26.3344 43.1545 24.0991 43.1545 21.3671C43.1545 18.635 45.3898 16.3997 48.1218 16.3997C50.8539 16.3997 53.0892 18.635 53.0892 21.3671ZM41.6643 49.9292L40.2486 56.1384C39.9627 57.4008 39.1954 58.5018 38.1099 59.2069C37.0243 59.912 35.7065 60.1656 34.4369 59.9136L24.229 57.877C22.8878 57.6037 22.0185 56.2874 22.2917 54.9462V54.8469C22.5649 53.5057 23.8813 52.6364 25.2225 52.9096L34.9584 54.8966L38.9323 34.7789L34.4617 36.5174V42.4782C34.4617 43.8442 33.344 44.9619 31.978 44.9619C30.612 44.9619 29.4944 43.8442 29.4944 42.4782V36.5919C29.4935 35.6134 29.7803 34.6562 30.319 33.8392C30.8577 33.0223 31.6246 32.3818 32.5244 31.9972L42.4094 27.8246C42.782 27.8246 43.0924 27.7625 43.4029 27.7004C43.7133 27.6383 44.0238 27.5762 44.3963 27.5762C46.1349 27.5762 47.6251 28.5697 48.6186 30.0599L51.1022 34.0338C52.7663 36.9645 55.8957 39.1998 59.6709 39.8207C60.8879 40.0194 61.782 41.0377 61.782 42.2547C61.782 43.7697 60.4408 44.9619 58.9506 44.7384C54.7523 44.0704 50.9207 41.9525 48.1218 38.7527L46.6316 46.2037L50.3075 49.7057C51.3009 50.6495 51.8473 51.941 51.8473 53.307V67.3149C51.8473 68.6809 50.7297 69.7985 49.3637 69.7985C47.9977 69.7985 46.88 68.6809 46.88 67.3149V54.8966L41.6643 49.9292Z" fill="#DCF746"/>
</svg>
