<svg width="82" height="82" viewBox="0 0 82 82" fill="none" xmlns="http://www.w3.org/2000/svg">
<path fill-rule="evenodd" clip-rule="evenodd" d="M41 82C63.6437 82 82 63.6437 82 41C82 18.3563 63.6437 0 41 0C18.3563 0 0 18.3563 0 41C0 63.6437 18.3563 82 41 82ZM26.9378 58.5297C23.6179 58.5297 20.5065 56.5155 19.4828 53.359C18.6842 50.8993 19.0183 48.5889 20.0373 46.7618C17.8524 45.3377 16.4045 42.8898 16.4045 40.0983C16.4034 38.218 17.0742 36.3992 18.2961 34.97C19.518 33.5408 21.2105 32.5954 23.0681 32.3044C22.2386 31.2435 21.7545 29.9538 21.6809 28.6092C21.6073 27.2646 21.9479 25.9298 22.6567 24.7848C23.3654 23.6398 24.4083 22.7397 25.6445 22.2059C26.8808 21.6721 28.2511 21.5303 29.5705 21.7996V21.6692C29.5705 19.7095 30.6037 17.8256 32.3667 16.982C33.4509 16.4422 34.6827 16.2748 35.8715 16.5057C36.402 16.6211 36.8766 16.9157 37.2154 17.34C37.5542 17.7642 37.7365 18.2922 37.7317 18.8351V60.9634C37.7369 61.3897 37.6261 61.8094 37.4112 62.1775C37.1962 62.5457 36.8852 62.8485 36.5113 63.0534C35.6156 63.5226 34.6037 63.7951 33.5208 63.7951C32.0033 63.7949 30.5325 63.2708 29.3568 62.3115C28.1811 61.3521 27.3727 60.0163 27.0681 58.5297H26.9378ZM58.5219 28.6092C58.4483 29.9538 57.9642 31.2435 57.1347 32.3044C58.9923 32.5954 60.6848 33.5408 61.9067 34.97C63.1286 36.3992 63.7994 38.218 63.7983 40.0983C63.7972 41.4234 63.4644 42.7271 62.8303 43.8906C62.1962 45.0541 61.2809 46.0404 60.1679 46.7595C61.1869 48.5865 61.521 50.8969 60.7224 53.3567C59.6987 56.5131 56.5849 58.5273 53.2674 58.5273H53.1347C52.8306 60.0143 52.0223 61.3507 50.8466 62.3105C49.6709 63.2704 48.1998 63.7948 46.682 63.7951C45.5991 63.7951 44.5896 63.5226 43.6938 63.0511C42.9261 62.6482 42.4711 61.8259 42.4711 60.961V18.8351C42.4667 18.2923 42.6493 17.7645 42.988 17.3404C43.3267 16.9162 43.801 16.6215 44.3313 16.5057C45.5194 16.2746 46.7505 16.442 47.8337 16.982C49.5967 17.8256 50.6323 19.7119 50.6323 21.6692V21.7996C51.9517 21.5303 53.322 21.6721 54.5583 22.2059C55.7946 22.7397 56.8374 23.6398 57.5462 24.7848C58.2549 25.9298 58.5955 27.2646 58.5219 28.6092Z" fill="#DCF746"/>
</svg>
