<svg width="82" height="83" viewBox="0 0 82 83" fill="none" xmlns="http://www.w3.org/2000/svg">
<path fill-rule="evenodd" clip-rule="evenodd" d="M41 82.4941C63.6437 82.4941 82 64.1378 82 41.4941C82 18.8505 63.6437 0.494141 41 0.494141C18.3563 0.494141 0 18.8505 0 41.4941C0 64.1378 18.3563 82.4941 41 82.4941ZM33.0471 13.5981C32.7474 13.8222 32.5284 14.1374 32.4229 14.4964L23.7656 43.9313C23.6897 44.1896 23.675 44.462 23.7228 44.7269C23.7706 44.9918 23.8795 45.242 24.0408 45.4574C24.2022 45.6729 24.4115 45.8478 24.6523 45.9682C24.8931 46.0886 25.1586 46.1512 25.4278 46.1511H36.9351L30.6984 66.4196C30.5783 66.8072 30.5982 67.2246 30.7544 67.5989C30.9107 67.9733 31.1935 68.281 31.5534 68.4681C31.9134 68.6553 32.3276 68.7102 32.7239 68.6231C33.1201 68.5361 33.4732 68.3126 33.7215 67.9918L57.9621 36.8254C58.1612 36.5695 58.2844 36.2628 58.3177 35.9402C58.3511 35.6177 58.2931 35.2923 58.1506 35.0011C58.008 34.7098 57.7866 34.4645 57.5114 34.2929C57.2363 34.1214 56.9185 34.0306 56.5942 34.0308H43.4143L49.5783 15.5318C49.665 15.2716 49.6886 14.9946 49.6472 14.7235C49.6059 14.4525 49.5007 14.1951 49.3405 13.9726C49.1802 13.7501 48.9694 13.5689 48.7253 13.4438C48.4813 13.3187 48.2111 13.2534 47.9369 13.2532H34.0851C33.7109 13.2529 33.3467 13.374 33.0471 13.5981Z" fill="#DCF746"/>
</svg>
