<svg width="87" height="94" viewBox="0 0 87 94" fill="none" xmlns="http://www.w3.org/2000/svg">
<path d="M62.0481 86.7966V25.2354C62.0481 20.4817 65.4827 16.4453 70.1167 15.3854C74.0109 14.4947 78.0732 13.4207 82.3793 12.1666C83.9574 11.7063 85.2881 10.6379 86.0786 9.19646C86.8691 7.75503 87.0545 6.05862 86.5942 4.48043C86.1339 2.90224 85.0656 1.57155 83.6241 0.781089C82.1827 -0.00937437 80.4863 -0.194857 78.9081 0.265448L62.0481 86.7966ZM62.0481 86.7966C62.05 88.3932 61.4357 89.9289 60.3333 91.0838C59.2309 92.2386 57.7253 92.9236 56.1304 92.9959C54.5355 93.0682 52.9741 92.5223 51.7717 91.472C50.5693 90.4216 49.8186 88.9478 49.6759 87.3576L46.5767 53.2658L62.0481 86.7966ZM84.8572 8.52668C84.2444 9.64419 83.2128 10.4725 81.9892 10.8293C77.7038 12.0774 73.6685 13.144 69.8061 14.0275C64.583 15.2221 60.6552 19.7879 60.6552 25.2354L60.6552 86.7966L60.6552 86.7982C60.6566 88.036 60.1804 89.2266 59.3257 90.1219C58.471 91.0173 57.3038 91.5483 56.0673 91.6044C54.8308 91.6604 53.6203 91.2372 52.6881 90.4229C51.7559 89.6086 51.1739 88.466 51.0633 87.2331L51.0632 87.2315L47.9641 53.1413C47.9641 53.1412 47.964 53.1411 47.964 53.141C47.9511 52.9965 47.9447 52.8515 47.9448 52.7064L47.9464 51.3119H46.5519H40.3534H38.9588L38.9604 52.7064C38.9606 52.8515 38.9542 52.9965 38.9412 53.141C38.9412 53.1411 38.9412 53.1412 38.9412 53.1413L35.8421 87.2315L35.8419 87.2331C35.7313 88.466 35.1493 89.6086 34.2171 90.4229C33.2849 91.2372 32.0745 91.6604 30.8379 91.6044C29.6014 91.5483 28.4342 91.0173 27.5796 90.1219C26.7249 89.2266 26.2486 88.036 26.2501 86.7982V86.7966V25.1054C26.2501 19.6672 22.3349 15.0971 17.1072 13.9224C13.2579 13.0575 9.23974 12.0292 4.97594 10.846L4.96894 10.8441L4.96192 10.8422C4.34798 10.6787 3.77254 10.3951 3.26891 10.0078C2.76528 9.62047 2.34346 9.13712 2.02785 8.58572C1.71223 8.03431 1.50909 7.4258 1.43018 6.79538C1.35127 6.16496 1.39815 5.52514 1.56811 4.91296C1.73808 4.30077 2.02775 3.72836 2.42037 3.22885C2.81299 2.72934 3.30076 2.31264 3.85547 2.00287C4.41017 1.6931 5.0208 1.49639 5.65202 1.42414C6.28325 1.35189 6.92253 1.40553 7.53288 1.58194L7.54013 1.58404L7.5474 1.58605C21.8826 5.56183 32.7475 7.5617 43.4744 7.60897C54.181 7.65626 65.0271 5.76156 79.2978 1.60278L79.2981 1.6027C80.5216 1.24583 81.8368 1.38963 82.9543 2.00246C84.0718 2.61528 84.9001 3.64693 85.257 4.87046C85.6138 6.09399 85.47 7.40918 84.8572 8.52668Z" stroke="white" stroke-width="2.78593"/>
</svg>
