<svg width="37" height="37" viewBox="0 0 37 37" fill="none" xmlns="http://www.w3.org/2000/svg">
<g clip-path="url(#clip0_158_174)">
<path d="M18.2832 0.0650109C17.9436 0.173409 17.6689 0.346847 17.4016 0.628683C17.098 0.939425 16.9463 1.26462 16.874 1.73435C16.8379 2.00896 16.8523 2.09568 16.9824 2.26189C17.2643 2.61599 17.9219 2.44978 17.9219 2.02341C17.9219 1.48142 18.3988 1.05505 18.9336 1.10564C19.5406 1.17068 19.9525 1.86443 19.6924 2.40642C19.5695 2.6738 19.2227 2.8906 18.9191 2.8906C18.6518 2.8906 18.2687 3.1363 18.1242 3.40368C18.0158 3.60603 17.9941 3.8156 17.9941 4.63943V5.63669L15.9562 7.16872L13.9111 8.70075L11.4902 9.66911C10.1605 10.1967 8.97539 10.7097 8.85254 10.8037C8.73691 10.8904 7.07481 12.4802 5.16699 14.3302C1.2791 18.1097 1.30078 18.0808 1.30078 18.9625C1.30078 19.5912 1.52481 20.1043 1.95117 20.4728C2.10293 20.6029 3.54824 21.3545 5.15977 22.1422L8.09375 23.5802V26.7816C8.09375 29.7951 8.10098 29.983 8.23106 30.142C8.41895 30.3732 8.85254 30.3732 9.04043 30.142C9.17051 29.983 9.17774 29.665 9.17774 21.0871C9.17774 11.3601 9.15606 11.8804 9.59688 11.6203C9.83535 11.4758 13.4559 10.0449 13.5715 10.0449C13.6365 10.0449 13.6582 10.2906 13.6582 10.8976C13.6582 11.866 13.7594 12.3574 14.1207 13.1162C14.8578 14.6699 16.2236 15.6672 17.9508 15.9056C18.435 15.9707 18.7096 15.9707 19.201 15.9056C19.9092 15.8045 20.8125 15.4865 21.0727 15.2408C21.3039 15.024 21.2967 14.7133 21.0654 14.4892C20.8486 14.2652 20.6824 14.2652 20.2488 14.4748C19.4105 14.8939 18.276 14.9806 17.4016 14.6843C16.1441 14.2508 15.1035 13.1379 14.8217 11.9238C14.7494 11.6203 14.7061 10.1172 14.7711 10.1172C14.7855 10.1172 15.1686 10.2906 15.6166 10.5074C16.7223 11.0349 17.5027 11.2228 18.5723 11.2228C19.6635 11.2228 20.4439 11.0349 21.5279 10.5146C21.976 10.2978 22.359 10.1172 22.3734 10.1172C22.3879 10.1172 22.4023 10.4496 22.4023 10.8615C22.4023 11.7431 22.2723 12.2924 21.9254 12.9138C21.7953 13.1523 21.6797 13.4414 21.6797 13.5426C21.6797 13.8099 21.9182 14.0195 22.2144 14.0195C22.518 14.0195 22.7131 13.7955 23.0455 13.0801C23.3852 12.3502 23.4863 11.8515 23.4863 10.8976C23.4863 10.3556 23.5152 10.0449 23.5586 10.0449C23.6525 10.0449 26.9623 11.3818 27.3236 11.5697C27.8656 11.8371 27.8223 10.8687 27.8223 23.7176C27.8223 35.0054 27.8223 35.2367 27.6777 35.4607C27.3814 35.9449 28.0029 35.916 18.5 35.916C8.99707 35.916 9.61856 35.9449 9.32227 35.4607C9.19219 35.2511 9.17774 35.0849 9.17774 33.524C9.17774 31.9052 9.17051 31.8041 9.02598 31.6234C8.82363 31.3633 8.44785 31.3633 8.24551 31.6234C8.10098 31.8041 8.09375 31.9052 8.09375 33.5312C8.09375 35.6125 8.13711 35.8293 8.69356 36.3857C9.36563 37.0506 8.57793 37 18.5 37C28.4221 37 27.6344 37.0506 28.3064 36.3857C28.9352 35.7498 28.9062 36.1039 28.9062 29.4121V23.5802L31.8402 22.1494C33.4518 21.3545 34.8971 20.6029 35.0488 20.4728C35.4752 20.1043 35.6992 19.5912 35.6992 18.9697C35.6992 18.0664 35.757 18.1386 31.7824 14.2869C29.824 12.3935 28.1402 10.782 28.0463 10.717C27.9451 10.6519 26.825 10.1677 25.5531 9.64743L23.2334 8.70075L21.1594 7.1904L19.0781 5.68005V4.83454V3.98903L19.425 3.90954C19.9092 3.78669 20.3717 3.42536 20.6318 2.95564C20.8053 2.63044 20.8414 2.48591 20.8414 2.05954C20.8486 0.917745 20.0609 0.0866906 18.9336 0.0288781C18.6734 0.014425 18.3844 0.0288781 18.2832 0.0650109ZM20.2127 7.84802C21.116 8.50564 21.8676 9.06931 21.882 9.09821C21.9109 9.17771 20.3283 9.87146 19.8008 10.016C19.107 10.1967 17.9652 10.1822 17.2498 9.98708C16.5922 9.79919 15.1975 9.12712 15.2914 9.03318C15.4432 8.88142 18.4566 6.64841 18.5072 6.64841C18.5434 6.64841 19.3094 7.1904 20.2127 7.84802ZM8.09375 17.7051V22.4023L5.36211 21.0365C3.37481 20.0392 2.59434 19.6129 2.50039 19.4756C2.34864 19.2443 2.33418 18.8035 2.46426 18.5578C2.54375 18.4205 7.99258 13.0295 8.0793 13.015C8.08652 13.0078 8.09375 15.1252 8.09375 17.7051ZM34.5357 18.5578C34.6658 18.8035 34.6514 19.2443 34.4996 19.4756C34.4057 19.6129 33.6252 20.0392 31.6379 21.0365L28.9062 22.4023V17.6978V13.0006L31.674 15.6888C33.1916 17.1631 34.4779 18.4566 34.5357 18.5578Z" fill="white" fill-opacity="0.46"/>
<path d="M15.4289 18.8902C15.0748 19.042 14.9664 19.2299 14.6846 20.1332L14.41 20.9932L13.6223 21.34C13.1814 21.5279 12.7551 21.7592 12.6611 21.8387C12.2926 22.1928 12.2998 22.8359 12.6756 23.19C12.7767 23.284 13.2176 23.4719 13.7017 23.6236L14.5617 23.891L14.9086 24.6787C15.0965 25.1195 15.3277 25.5459 15.4072 25.6398C15.7613 26.0084 16.4045 26.0012 16.7586 25.6254C16.8525 25.5242 17.0404 25.0834 17.1922 24.5992L17.4596 23.7465L18.2473 23.3996C18.6881 23.2045 19.1145 22.9732 19.2084 22.8938C19.577 22.5397 19.5697 21.8965 19.1939 21.5424C19.0928 21.4484 18.652 21.2606 18.1678 21.1088L17.3078 20.8414L16.9609 20.0537C16.5779 19.1721 16.4768 19.0275 16.1371 18.8902C15.848 18.7674 15.7107 18.7674 15.4289 18.8902ZM16.1443 20.8848C16.3033 21.2533 16.4984 21.6002 16.5996 21.6797C16.7008 21.7592 17.0693 21.9109 17.4234 22.0121C17.7775 22.1205 18.0666 22.2289 18.0666 22.2506C18.0666 22.2795 17.7703 22.424 17.4162 22.5758C17.0549 22.7275 16.7008 22.9299 16.6285 23.0238C16.5562 23.1178 16.4045 23.4936 16.2889 23.8477C16.1805 24.209 16.0721 24.4981 16.0504 24.4981C16.0287 24.4981 15.8769 24.2018 15.7252 23.8404C15.5734 23.4863 15.3639 23.125 15.2627 23.0527C15.1687 22.9732 14.8002 22.8215 14.4461 22.7203C14.092 22.6119 13.8029 22.5035 13.8029 22.4818C13.8029 22.4602 14.0992 22.3084 14.4605 22.1566C14.8219 21.9977 15.176 21.7953 15.2555 21.6941C15.335 21.593 15.4867 21.2244 15.5879 20.8703C15.6963 20.5234 15.7975 20.2344 15.8264 20.2344C15.848 20.2344 15.9926 20.5307 16.1443 20.8848Z" fill="white" fill-opacity="0.46"/>
<path d="M19.6129 27.1936C19.4756 27.3164 19.3527 27.5693 19.1865 28.0752L18.9625 28.7834L18.3121 29.0652C17.5172 29.4049 17.3438 29.5855 17.3438 30.0625C17.3438 30.59 17.5244 30.7562 18.3916 31.0381L19.107 31.2693L19.3816 31.9125C19.7213 32.7074 19.902 32.8809 20.3789 32.8809C20.9064 32.8809 21.0727 32.7002 21.3545 31.8402L21.5857 31.1393L22.2289 30.8502C22.583 30.6912 22.9299 30.5033 23.0022 30.4311C23.2912 30.142 23.2768 29.4988 22.9732 29.2242C22.8938 29.152 22.5107 28.9857 22.135 28.8629L21.4557 28.6389L21.1666 27.9957C20.8197 27.2008 20.6391 27.0273 20.1621 27.0273C19.8947 27.0273 19.7574 27.0707 19.6129 27.1936ZM20.4223 28.9785C20.6318 29.4555 20.7475 29.5494 21.3039 29.7301C21.5063 29.8023 21.6797 29.8674 21.6797 29.8818C21.6797 29.8963 21.4846 29.9975 21.2461 30.1059C20.7691 30.3154 20.6752 30.4311 20.4873 30.9947L20.3572 31.3922L20.1332 30.9441C19.8803 30.4383 19.7791 30.3516 19.2227 30.1709L18.8324 30.0408L19.2588 29.8312C19.7863 29.5855 19.902 29.4482 20.0537 28.9424C20.1115 28.7256 20.1766 28.5449 20.1982 28.5449C20.2127 28.5449 20.3139 28.74 20.4223 28.9785Z" fill="white" fill-opacity="0.46"/>
</g>
<defs>
<clipPath id="clip0_158_174">
<rect width="37" height="37" fill="white"/>
</clipPath>
</defs>
</svg>
