<svg width="37" height="37" viewBox="0 0 37 37" fill="none" xmlns="http://www.w3.org/2000/svg">
<path d="M9.2862 13.5219C8.65487 11.7958 8.24371 10.1059 8.05007 8.45442C7.98376 7.89564 7.98376 6.76224 8.04742 6.38897C8.19066 5.57908 8.46919 5.1221 8.89095 5.0203C9.20927 4.94112 9.50371 5.08364 10.1377 5.62432C11.7611 7.00883 14.2413 10.2552 16.0239 13.3296C17.1937 15.3521 17.8701 16.8791 18.2653 18.3971C18.2759 18.4423 18.2972 18.4423 18.8224 18.4423C19.3476 18.4423 19.3688 18.4423 19.3794 18.3971C19.7402 17.0148 20.3238 15.653 21.3397 13.816C23.0533 10.7303 25.7961 7.08348 27.5071 5.62432C28.2233 5.01351 28.523 4.89813 28.9076 5.08364C29.2498 5.25105 29.47 5.66957 29.5973 6.38897C29.661 6.75998 29.661 7.89338 29.5947 8.45442C29.4647 9.58103 29.2472 10.6398 28.9023 11.841C28.1649 14.4087 27.1012 16.6936 25.7829 18.5509M9.2862 13.5219C9.36047 13.7278 9.44005 13.9427 9.46127 13.9992C9.54085 14.2255 9.95466 15.1824 10.135 15.5693C10.6682 16.7094 11.3818 17.9175 11.976 18.7002C12.1616 18.9446 12.2094 19.0441 12.2677 19.3088L12.2838 19.3794L9.2862 13.5219ZM25.7829 18.5509C25.568 18.8518 25.499 18.9853 25.4088 19.2726M25.7829 18.5509L25.4088 19.2726M25.7829 18.5509L25.6143 18.4312M25.4088 19.2726L25.3903 19.3304C25.353 19.3225 25.3084 19.3229 25.2611 19.3429C25.2288 19.3565 25.2047 19.3757 25.1873 19.3937C25.1856 19.3955 25.184 19.3972 25.1824 19.399C25.1674 19.4156 25.158 19.4307 25.1532 19.4389C25.1338 19.4718 25.1208 19.5129 25.1151 19.5311L25.1138 19.5354L25.2311 19.5729L25.2298 19.5742L25.1125 19.5393L25.154 19.391L25.1562 19.3838L25.2116 19.2107L25.4088 19.2726ZM25.4088 19.2726L25.2119 19.2096C25.3098 18.8978 25.3897 18.7457 25.6143 18.4312M25.4088 19.2726L25.6143 18.4312M25.6143 18.4312C26.9171 16.5958 27.9716 14.3328 28.7036 11.784M25.6143 18.4312L28.7036 11.784M25.0513 22.4829C24.9808 22.3487 24.9584 22.2858 24.9417 22.2376C24.9396 22.2316 24.938 22.227 24.9366 22.2232L24.866 22.1319L24.8596 22.1237L24.8541 22.1148L24.7445 21.9389L24.7426 21.9361L24.6304 21.7625L24.5675 21.6651L24.6177 21.5607L24.684 21.4227C24.8352 21.1054 24.9421 20.6678 24.9421 20.3947C24.9421 20.304 24.9673 20.152 24.9974 20.0051C25.0287 19.852 25.0704 19.681 25.112 19.541L25.0513 22.4829ZM25.0513 22.4829L25.2343 22.3868M25.0513 22.4829L25.0714 22.5213C25.3145 22.9906 25.5581 23.6681 25.6872 24.245C26.1406 26.2731 25.6619 28.6388 24.4065 30.5212C23.4502 31.96 22.1125 33.0092 20.6693 33.4705C19.217 33.9349 17.6443 33.7968 16.21 33.0712C14.1935 32.053 12.5959 29.9851 12.023 27.6438C11.8523 26.9423 11.8167 26.6196 11.8167 25.8173C11.8167 25.0731 11.837 24.8659 11.9581 24.2878C12.0817 23.7082 12.3091 23.0602 12.5873 22.5131L12.5879 22.5121L12.7315 22.2255L12.8309 22.0708C12.848 22.0447 12.8636 22.0116 12.8713 21.9737C12.8756 21.9525 12.8843 21.8947 12.8576 21.8335C12.8543 21.8208 12.8497 21.802 12.8441 21.778C12.833 21.7305 12.8189 21.6665 12.8047 21.5982C12.7614 21.3742 12.7251 21.1057 12.579 19.9259L12.5788 19.9243C12.5653 19.8216 12.5509 19.7266 12.5382 19.656C12.532 19.6213 12.5256 19.5891 12.5193 19.5637C12.5177 19.5576 12.5158 19.5501 12.5133 19.5419L12.5116 19.4668L12.5111 19.446L12.5065 19.4257L12.4697 19.2643C12.4393 19.1267 12.4086 19.017 12.356 18.9075C12.3042 18.7993 12.2353 18.6997 12.1406 18.5752C11.5571 17.8065 10.8507 16.6116 10.3223 15.4817C10.1421 15.0951 9.73222 14.1464 9.65631 13.9306L9.65489 13.9266C9.63399 13.8709 9.55467 13.6568 9.48069 13.4517C8.85438 11.7393 8.44702 10.0643 8.25543 8.43034C8.22367 8.16273 8.2071 7.74868 8.20677 7.35196C8.20643 6.95188 8.22268 6.59179 8.25114 6.42431C8.39349 5.62007 8.65228 5.29061 8.93947 5.22129L8.94087 5.22095C9.0461 5.19477 9.14977 5.20036 9.30581 5.27594C9.47283 5.35685 9.68783 5.51241 10.0035 5.78164C11.6011 7.14415 14.0674 10.3675 15.8449 13.4332C17.0089 15.4457 17.6757 16.9543 18.0646 18.4469C18.0676 18.4592 18.0752 18.4883 18.0939 18.5191C18.117 18.5572 18.1488 18.5856 18.1841 18.6048C18.2389 18.6347 18.3002 18.6401 18.3347 18.6428C18.4152 18.6491 18.5576 18.6491 18.8015 18.6491H18.8224H18.8433C19.0871 18.6491 19.2296 18.6491 19.31 18.6428C19.3446 18.6401 19.4058 18.6347 19.4606 18.6048C19.4959 18.5856 19.5278 18.5572 19.5509 18.5191C19.5695 18.4884 19.5771 18.4593 19.5801 18.447C19.935 17.0881 20.51 15.7434 21.5206 13.9162C23.2283 10.841 25.9568 7.21818 27.6412 5.78164C27.9997 5.4759 28.23 5.31623 28.4061 5.24826C28.4894 5.21613 28.5556 5.20672 28.6146 5.21034C28.6743 5.214 28.7385 5.2317 28.8172 5.26959C29.0626 5.3899 29.268 5.71485 29.3937 6.42458C29.4221 6.59082 29.4383 6.95016 29.438 7.35026C29.4377 7.74696 29.4211 8.16134 29.3893 8.43015C29.2607 9.54423 29.0457 10.5924 28.7036 11.784M28.7036 11.784L28.8971 11.8395M12.3728 19.6998L12.4543 19.6146L12.4204 19.5821L12.3728 19.6998ZM25.2543 19.6388L25.2093 19.5953L25.2286 19.5754L25.2543 19.6388Z" stroke="white" stroke-opacity="0.46" stroke-width="0.413523"/>
</svg>
