<svg width="80" height="62" viewBox="0 0 80 62" fill="none" xmlns="http://www.w3.org/2000/svg">
<mask id="path-1-inside-1_294_236" fill="white">
<path d="M0.174355 5.10677C0.701019 2.12899 1.72509 0.448799 3.27583 0.0744972C4.44619 -0.216625 5.52878 0.307388 7.85976 2.29535C13.8286 7.38585 22.9477 19.3219 29.5018 30.6258C33.8029 38.062 36.2899 43.6765 37.7431 49.2577C37.7821 49.4241 37.8602 49.4241 39.7912 49.4241H39.7913H39.7913C41.7224 49.4241 41.8004 49.4241 41.8394 49.2577C43.1658 44.1755 45.3115 39.1682 49.0469 32.4142C55.3474 21.0687 65.432 7.66034 71.7228 2.29535C74.3561 0.0495338 75.4582 -0.374676 76.8724 0.307384C78.1305 0.922901 78.94 2.4617 79.4082 5.10677C79.6422 6.47089 79.6422 10.6381 79.3984 12.7009C78.9205 16.8432 78.1208 20.7359 76.8529 25.1527C74.1415 34.5934 70.2305 42.9944 65.3833 49.8233C64.5933 50.9296 64.3397 51.4204 64.0081 52.4767L63.8033 53.1172L63.6472 53.6745C63.3546 54.656 63.0523 56.1116 63.0523 56.6024C63.0523 57.7419 62.6232 59.4637 62.0282 60.7114L61.7844 61.2188C41.6119 44.5938 23.4698 54.264 16.9203 61.1772C16.7545 60.3204 16.618 59.3057 16.0816 54.9721C15.9841 54.2318 15.8768 53.6246 15.8378 53.6246L15.828 53.2087L15.6915 52.6098C15.4769 51.6366 15.3013 51.2706 14.6186 50.3723C12.4339 47.4944 9.81037 43.0526 7.85001 38.8605C7.1868 37.4381 5.66532 33.9197 5.37273 33.0879C5.29471 32.8799 5.00212 32.0898 4.72903 31.3328C2.4078 24.9863 0.896081 18.7729 0.184108 12.7009C-0.0597188 10.6464 -0.0597188 6.47921 0.174355 5.10677Z"/>
</mask>
<path d="M16.4191 53.7741L16.1168 54.0902L14.9345 52.9593L15.2369 52.6433L16.4191 53.7741ZM63.5952 54.0543L63.2343 53.7049L64.3722 52.5295L64.7331 52.8788L63.5952 54.0543ZM62.8681 53.4253C62.8851 53.3721 62.9366 53.1973 63.0183 53.0589C63.059 52.99 63.1842 52.7908 63.4426 52.6818C63.7622 52.5471 64.0514 52.6387 64.2154 52.7336C64.354 52.8138 64.4455 52.9163 64.4873 52.9653C64.5377 53.0245 64.5827 53.0873 64.6196 53.1416C64.693 53.2493 64.7816 53.3932 64.8802 53.5534L63.4871 54.4111C63.3809 54.2386 63.3147 54.1319 63.2673 54.0623C63.244 54.028 63.2371 54.0205 63.2423 54.0266C63.2456 54.0305 63.2579 54.0448 63.2787 54.0639C63.2983 54.082 63.3376 54.1158 63.396 54.1496C63.5259 54.2247 63.7856 54.3127 64.0782 54.1893C64.3096 54.0918 64.4104 53.919 64.4273 53.8903C64.4541 53.8449 64.4628 53.8158 64.4552 53.8366C64.4496 53.8519 64.4415 53.8762 64.4264 53.9236L62.8681 53.4253ZM14.8072 53.666C14.885 53.5232 14.9717 53.3847 15.0524 53.2733C15.091 53.2201 15.1406 53.1559 15.1966 53.0968C15.2229 53.069 15.2693 53.0223 15.3314 52.9764C15.351 52.9618 15.5458 52.8066 15.8378 52.8066V54.4426C16.0003 54.4426 16.1207 54.3936 16.176 54.3677C16.2378 54.3388 16.282 54.3081 16.3053 54.2909C16.3514 54.2567 16.379 54.2275 16.3841 54.222C16.3978 54.2077 16.3955 54.2079 16.3768 54.2337C16.343 54.2804 16.2931 54.3581 16.2441 54.4482L14.8072 53.666ZM3.27583 0.0744972L3.67075 1.66215L3.65968 1.66482L3.27583 0.0744972ZM0.174355 5.10677L-1.43838 4.83171L-1.43664 4.82184L0.174355 5.10677ZM0.184108 12.7009L1.8087 12.5081L1.80897 12.5104L0.184108 12.7009ZM4.72903 31.3328L6.2655 30.7709L6.26793 30.7776L4.72903 31.3328ZM5.37273 33.0879L6.90445 32.5132L6.9104 32.529L6.91603 32.545L5.37273 33.0879ZM7.85001 38.8605L6.36804 39.5535L6.36728 39.5518L7.85001 38.8605ZM14.6186 50.3723L13.3161 51.3622L13.3156 51.3615L14.6186 50.3723ZM15.6915 52.6098L14.0964 52.9735L14.0938 52.9621L15.6915 52.6098ZM15.828 53.2087L17.4231 52.845L17.4597 53.0056L17.4636 53.1703L15.828 53.2087ZM63.8033 53.1172L62.2279 52.6761L62.2359 52.6473L62.245 52.6189L63.8033 53.1172ZM64.0081 52.4767L65.569 52.9667L65.5664 52.975L64.0081 52.4767ZM65.3833 49.8233L66.7174 50.7703L66.7146 50.7741L65.3833 49.8233ZM76.8529 25.1527L78.4254 25.6041L78.4253 25.6043L76.8529 25.1527ZM79.3984 12.7009L77.7732 12.5134L77.7737 12.5089L79.3984 12.7009ZM79.4082 5.10677L81.0191 4.82164L81.0206 4.83009L79.4082 5.10677ZM76.8724 0.307384L77.5831 -1.1662L77.5913 -1.16217L76.8724 0.307384ZM71.7228 2.29535L72.7844 3.54013L72.7844 3.54013L71.7228 2.29535ZM49.0469 32.4142L47.6153 31.6224L47.6167 31.6199L49.0469 32.4142ZM41.8394 49.2577L40.2466 48.8842L40.2513 48.8643L40.2564 48.8446L41.8394 49.2577ZM37.7431 49.2577L39.3263 48.8455L39.3314 48.8648L39.3359 48.8842L37.7431 49.2577ZM29.5018 30.6258L30.9171 29.8052L30.918 29.8067L29.5018 30.6258ZM7.85976 2.29535L8.92136 1.05056L8.92136 1.05056L7.85976 2.29535ZM61.7844 61.2188L63.259 61.9274L62.3548 63.8088L60.7439 62.4812L61.7844 61.2188ZM62.0282 60.7114L63.5049 61.4155L63.5028 61.42L62.0282 60.7114ZM63.6472 53.6745L65.2226 54.1156L65.219 54.1288L65.215 54.1419L63.6472 53.6745ZM16.0816 54.9721L17.7036 54.7584L17.7052 54.7711L16.0816 54.9721ZM16.9203 61.1772L18.108 62.3023L15.9189 64.613L15.3142 61.488L16.9203 61.1772ZM15.8378 53.6246V55.2606H14.2397L14.2022 53.6629L15.8378 53.6246ZM3.65968 1.66482C3.17316 1.78225 2.30478 2.45482 1.78535 5.3917L-1.43664 4.82184C-0.902739 1.80317 0.277024 -0.884656 2.89197 -1.51583L3.65968 1.66482ZM1.78706 5.38182C1.69621 5.91449 1.63479 7.17116 1.63601 8.64672C1.63721 10.0921 1.69785 11.5741 1.8087 12.5081L-1.44049 12.8937C-1.57346 11.7733 -1.63474 10.1444 -1.63597 8.64943C-1.63719 7.18465 -1.58158 5.67149 -1.43835 4.83172L1.78706 5.38182ZM1.80897 12.5104C2.50471 18.444 3.98393 24.5329 6.26548 30.7709L3.19258 31.8948C0.831679 25.4398 -0.712552 19.1019 -1.44075 12.8915L1.80897 12.5104ZM6.26793 30.7776C6.53875 31.5283 6.82895 32.3119 6.90445 32.5132L3.84101 33.6626C3.76047 33.448 3.46549 32.6513 3.19013 31.888L6.26793 30.7776ZM6.91603 32.545C7.1797 33.2946 8.67101 36.7499 9.33274 38.1691L6.36728 39.5518C5.70259 38.1263 4.15095 34.5448 3.82944 33.6308L6.91603 32.545ZM9.33197 38.1675C11.2544 42.2785 13.8211 46.616 15.9217 49.3831L13.3156 51.3615C11.0468 48.3728 8.36637 43.8268 6.36804 39.5535L9.33197 38.1675ZM15.9212 49.3824C16.2769 49.8506 16.5751 50.2745 16.8058 50.7556C17.0423 51.249 17.172 51.7265 17.2891 52.2576L14.0938 52.9621C13.9964 52.52 13.931 52.3279 13.8554 52.1703C13.774 52.0006 13.643 51.7924 13.3161 51.3622L15.9212 49.3824ZM17.2865 52.2461L17.4231 52.845L14.2329 53.5724L14.0964 52.9735L17.2865 52.2461ZM62.245 52.6189L62.4498 51.9784L65.5664 52.975L65.3615 53.6155L62.245 52.6189ZM62.4472 51.9867C62.8405 50.734 63.1829 50.0895 64.0519 48.8726L66.7146 50.7741C66.0037 51.7697 65.8389 52.1068 65.569 52.9667L62.4472 51.9867ZM64.0492 48.8764C68.7734 42.2208 72.6117 33.9935 75.2804 24.7011L78.4253 25.6043C75.6714 35.1933 71.6877 43.768 66.7174 50.7703L64.0492 48.8764ZM75.2804 24.7013C76.5264 20.3608 77.3067 16.5565 77.7732 12.5134L81.0236 12.8884C80.5343 17.1299 79.7151 21.1111 78.4254 25.6041L75.2804 24.7013ZM77.7737 12.5089C77.8847 11.5702 77.9453 10.0857 77.9465 8.64048C77.9477 7.16424 77.8862 5.91081 77.7957 5.38345L81.0206 4.83009C81.1642 5.66685 81.2197 7.17909 81.2185 8.64319C81.2173 10.1383 81.156 11.7689 81.0231 12.893L77.7737 12.5089ZM77.7972 5.39189C77.3416 2.81749 76.6474 2.01859 76.1534 1.77694L77.5913 -1.16217C79.6137 -0.172788 80.5385 2.10592 81.0191 4.82165L77.7972 5.39189ZM76.1617 1.78095C75.9441 1.676 75.819 1.65213 75.7413 1.64737C75.6696 1.64297 75.5525 1.64917 75.3437 1.72973C74.8501 1.92015 74.1041 2.41459 72.7844 3.54013L70.6612 1.05057C71.9747 -0.0697106 73.0964 -0.910286 74.1658 -1.32291C74.7385 -1.54386 75.3266 -1.6562 75.9416 -1.61848C76.5506 -1.58114 77.0936 -1.40226 77.5831 -1.16618L76.1617 1.78095ZM72.7844 3.54013C66.7032 8.72636 56.7313 21.9464 50.4772 33.2084L47.6167 31.6199C53.9635 20.1909 64.1608 6.59431 70.6612 1.05056L72.7844 3.54013ZM50.4785 33.2059C46.7809 39.8916 44.7022 44.7672 43.4224 49.6709L40.2564 48.8446C41.6295 43.5839 43.8421 38.4448 47.6153 31.6224L50.4785 33.2059ZM43.4322 49.6313C43.4186 49.6893 43.367 49.9152 43.2189 50.1599C43.0473 50.4434 42.8113 50.6522 42.5567 50.7908C42.1727 50.9998 41.7728 51.0249 41.6525 51.0343C41.3042 51.0616 40.7098 51.0601 39.7913 51.0601V47.7881C40.2773 47.7881 40.6352 47.7881 40.9053 47.7856C41.185 47.783 41.3265 47.7778 41.3973 47.7723C41.4314 47.7696 41.4109 47.7695 41.3611 47.7795C41.3185 47.7881 41.171 47.8197 40.9923 47.917C40.7806 48.0322 40.5722 48.2137 40.4199 48.4654C40.2911 48.6782 40.2505 48.8678 40.2466 48.8842L43.4322 49.6313ZM39.7913 51.0601H39.7913V47.7881H39.7913V51.0601ZM39.7913 51.0601H39.7912V47.7881H39.7913V51.0601ZM39.7912 51.0601C38.8727 51.0601 38.2783 51.0616 37.93 51.0343C37.8097 51.0249 37.4098 50.9998 37.0258 50.7908C36.7712 50.6522 36.5352 50.4434 36.3636 50.1599C36.2155 49.9152 36.1639 49.6893 36.1503 49.6313L39.3359 48.8842C39.3321 48.8678 39.2915 48.6782 39.1626 48.4654C39.0103 48.2137 38.8019 48.0322 38.5902 47.917C38.4115 47.8197 38.264 47.7881 38.2214 47.7795C38.1717 47.7695 38.1511 47.7696 38.1853 47.7723C38.2561 47.7778 38.3975 47.783 38.6772 47.7856C38.9473 47.7881 39.3052 47.7881 39.7912 47.7881V51.0601ZM36.1599 49.67C34.7573 44.2831 32.3457 38.8102 28.0856 31.4449L30.918 29.8067C35.26 37.3137 37.8225 43.0699 39.3263 48.8455L36.1599 49.67ZM28.0865 31.4464C21.5722 20.2111 12.563 8.45666 6.79816 3.54013L8.92136 1.05056C15.0942 6.31504 24.3233 18.4328 30.9171 29.8052L28.0865 31.4464ZM6.79816 3.54013C5.64293 2.5549 4.92493 2.04752 4.41936 1.80262C4.00071 1.59982 3.8293 1.62267 3.67074 1.66211L2.88092 -1.51312C3.89272 -1.7648 4.84779 -1.6255 5.84577 -1.14208C6.75683 -0.700768 7.74561 0.0478326 8.92136 1.05056L6.79816 3.54013ZM60.3098 60.5101L60.5537 60.0028L63.5028 61.42L63.259 61.9274L60.3098 60.5101ZM60.5515 60.0072C61.0636 58.9334 61.4163 57.4519 61.4163 56.6024H64.6883C64.6883 58.0319 64.1828 59.994 63.5049 61.4155L60.5515 60.0072ZM61.4163 56.6024C61.4163 56.1676 61.5285 55.5259 61.6373 54.9944C61.7571 54.4093 61.9169 53.7524 62.0794 53.2071L65.215 54.1419C65.085 54.5781 64.9474 55.1398 64.8428 55.6505C64.7908 55.9044 64.7497 56.133 64.7222 56.3171C64.6916 56.5222 64.6883 56.6064 64.6883 56.6024H61.4163ZM17.7052 54.7711C18.2453 59.1341 18.3741 60.0785 18.5265 60.8663L15.3142 61.488C15.135 60.5623 14.9908 59.4772 14.458 55.173L17.7052 54.7711ZM15.8378 51.9886C16.3854 51.9886 16.7549 52.2528 16.9138 52.3907C17.0808 52.5355 17.1802 52.6814 17.2251 52.7517C17.3178 52.897 17.3677 53.0262 17.3848 53.0711C17.4268 53.1816 17.4531 53.2835 17.466 53.3354C17.4963 53.4569 17.524 53.598 17.548 53.7315C17.5978 54.0089 17.6527 54.3726 17.7036 54.7584L14.4596 55.1858C14.4129 54.8313 14.3655 54.5212 14.3275 54.31C14.3076 54.1991 14.295 54.1421 14.2912 54.1266C14.287 54.11 14.2978 54.1587 14.3261 54.2332C14.3363 54.26 14.3799 54.3755 14.4666 54.5115C14.5085 54.5771 14.6052 54.7195 14.7694 54.862C14.9256 54.9975 15.2925 55.2606 15.8378 55.2606V51.9886ZM65.3787 53.5583L65.2226 54.1156L62.0718 53.2334L62.2279 52.6761L65.3787 53.5583ZM17.4636 53.1703L17.4733 53.5862L14.2022 53.6629L14.1925 53.247L17.4636 53.1703ZM15.7327 60.052C19.2219 56.369 25.7133 52.0198 33.9966 50.754C42.3535 49.4769 52.3962 51.3616 62.8249 59.9563L60.7439 62.4812C51.0001 54.451 41.8855 52.8584 34.4909 53.9884C27.0226 55.1297 21.1682 59.0721 18.108 62.3023L15.7327 60.052Z" fill="white" mask="url(#path-1-inside-1_294_236)"/>
</svg>
