<svg width="167" height="77" viewBox="0 0 167 77" fill="none" xmlns="http://www.w3.org/2000/svg">
<g filter="url(#filter0_d_148_114)">
<path fill-rule="evenodd" clip-rule="evenodd" d="M38.5968 0C18.3849 0 2 16.3849 2 36.5968C2 56.8086 18.385 73.1935 38.5968 73.1935H128.331C148.543 73.1935 164.928 56.8086 164.928 36.5968C164.928 16.3849 148.543 0 128.331 0H38.5968ZM39.6304 63.6825C54.7036 63.6825 66.9229 51.4632 66.9229 36.39C66.9229 21.3168 54.7036 9.0975 39.6304 9.0975C24.5572 9.0975 12.3379 21.3168 12.3379 36.39C12.3379 51.4632 24.5572 63.6825 39.6304 63.6825Z" fill="#BFDE09"/>
<path fill-rule="evenodd" clip-rule="evenodd" d="M38.5968 0C18.3849 0 2 16.3849 2 36.5968C2 56.8086 18.385 73.1935 38.5968 73.1935H128.331C148.543 73.1935 164.928 56.8086 164.928 36.5968C164.928 16.3849 148.543 0 128.331 0H38.5968ZM39.6304 63.6825C54.7036 63.6825 66.9229 51.4632 66.9229 36.39C66.9229 21.3168 54.7036 9.0975 39.6304 9.0975C24.5572 9.0975 12.3379 21.3168 12.3379 36.39C12.3379 51.4632 24.5572 63.6825 39.6304 63.6825Z" fill="url(#paint0_linear_148_114)" fill-opacity="0.78"/>
</g>
<defs>
<filter id="filter0_d_148_114" x="0.345909" y="0" width="166.236" height="76.5017" filterUnits="userSpaceOnUse" color-interpolation-filters="sRGB">
<feFlood flood-opacity="0" result="BackgroundImageFix"/>
<feColorMatrix in="SourceAlpha" type="matrix" values="0 0 0 0 0 0 0 0 0 0 0 0 0 0 0 0 0 0 127 0" result="hardAlpha"/>
<feOffset dy="1.65409"/>
<feGaussianBlur stdDeviation="0.827046"/>
<feComposite in2="hardAlpha" operator="out"/>
<feColorMatrix type="matrix" values="0 0 0 0 0 0 0 0 0 0 0 0 0 0 0 0 0 0 0.25 0"/>
<feBlend mode="normal" in2="BackgroundImageFix" result="effect1_dropShadow_148_114"/>
<feBlend mode="normal" in="SourceGraphic" in2="effect1_dropShadow_148_114" result="shape"/>
</filter>
<linearGradient id="paint0_linear_148_114" x1="83.464" y1="0" x2="83.464" y2="73.1935" gradientUnits="userSpaceOnUse">
<stop stop-color="#ECFF80" stop-opacity="0"/>
<stop offset="1" stop-color="#ECFF80"/>
</linearGradient>
</defs>
</svg>
