<svg width="81" height="107" viewBox="0 0 81 107" fill="none" xmlns="http://www.w3.org/2000/svg">
<path d="M18.4774 62.0473C18.4655 62.0014 18.4492 61.9345 18.4294 61.8495C18.3888 61.6752 18.337 61.4406 18.2849 61.1901C18.1262 60.369 17.9929 59.384 17.4559 55.0456L17.4551 55.0392C17.4053 54.6612 17.3522 54.311 17.3053 54.0501C17.2824 53.9223 17.2585 53.8022 17.2348 53.7072C17.2296 53.6863 17.2229 53.6604 17.2146 53.6318L17.2083 53.3635L17.2063 53.2812L17.188 53.2009L17.0528 52.6077C17.0526 52.6067 17.0524 52.6058 17.0521 52.6048C16.9402 52.0973 16.8266 51.6919 16.6307 51.2833C16.4374 50.8802 16.1811 50.5102 15.8327 50.0517C13.69 47.2292 11.0949 42.8396 9.15349 38.688C8.49083 37.2667 6.98496 33.781 6.70688 32.9905L6.70407 32.9825L6.70109 32.9745C6.62433 32.7699 6.33293 31.983 6.06098 31.2292L6.05976 31.2259C3.75837 24.9336 2.2629 18.7825 1.55904 12.7797L1.5589 12.7785C1.44252 11.7979 1.38172 10.2792 1.38052 8.8214C1.3793 7.35056 1.4391 6.03136 1.54278 5.42081C2.06592 2.46526 3.0119 1.28946 4.03025 1.04366L4.03579 1.04232C4.40765 0.949799 4.77498 0.967491 5.33846 1.24044C5.94541 1.53445 6.7311 2.10213 7.89146 3.09174C13.7583 8.09525 22.8225 19.9405 29.3566 31.2101C33.6347 38.6065 36.0835 44.148 37.5117 49.629C37.5231 49.6767 37.553 49.79 37.6259 49.9103C37.7165 50.06 37.8414 50.1712 37.9794 50.2463C38.1929 50.3626 38.4297 50.3829 38.5564 50.3928C38.8544 50.4161 39.3799 50.4161 40.2722 50.4161H40.3538H40.4354C41.3276 50.4161 41.8531 50.4161 42.1512 50.3928C42.2778 50.3829 42.5146 50.3626 42.7281 50.2463C42.8661 50.1712 42.991 50.06 43.0816 49.9103C43.1544 49.7901 43.1843 49.6769 43.1958 49.6291C44.4991 44.6393 46.611 39.6998 50.3252 32.984C56.6026 21.6806 66.6304 8.36716 72.8161 3.09174C74.1343 1.96752 74.9742 1.38655 75.6117 1.14058C75.9115 1.02491 76.1464 0.992188 76.3539 1.00491C76.5639 1.01778 76.7929 1.08015 77.0776 1.21722C77.9524 1.64651 78.7031 2.81483 79.1647 5.42036C79.2683 6.02563 79.3282 7.34296 79.327 8.81516C79.3258 10.2728 79.265 11.7938 79.1486 12.7789L79.1483 12.7812C78.6761 16.8739 77.8861 20.7224 76.6291 25.101M18.4774 62.0473L77.4154 25.3267M18.4774 62.0473C18.5806 62.2868 18.5462 62.512 18.5297 62.5935C18.4998 62.7412 18.4393 62.8696 18.373 62.9705L18.0093 63.5367L17.4827 64.5874L17.4805 64.5916C16.4598 66.5985 15.6254 68.976 15.1719 71.1024C14.7276 73.2232 14.6532 73.981 14.6532 76.7142C14.6532 79.6595 14.7838 80.8417 15.41 83.4152C17.5128 92.0085 23.376 99.5972 30.7744 103.333L30.7749 103.333C36.0355 105.995 41.8022 106.501 47.1268 104.798L47.1269 104.798C52.419 103.106 57.3271 99.2588 60.8366 93.9783L60.8373 93.9773C65.4451 87.0678 67.2011 78.3858 65.5376 70.9455L18.4774 62.0473ZM76.6291 25.101L77.4154 25.3267M76.6291 25.101C76.6291 25.101 76.6292 25.1009 76.6292 25.1009L77.4154 25.3267M76.6291 25.101C73.9393 34.4669 70.065 42.7805 65.2798 49.5224M77.4154 25.3267C74.704 34.7674 70.793 43.1684 65.9458 49.9973M65.2798 49.5224C65.2799 49.5223 65.28 49.5221 65.2801 49.522L65.9458 49.9973M65.2798 49.5224C64.451 50.683 64.1529 51.2506 63.7908 52.4036C63.7906 52.4043 63.7904 52.405 63.7901 52.4057L63.5867 53.042L63.5821 53.0563L63.5781 53.0706L63.4239 53.6213M65.2798 49.5224C65.2794 49.5229 65.2791 49.5234 65.2787 49.5239L65.9458 49.9973M65.9458 49.9973L63.4239 53.6213M63.4977 63.1145L63.0054 62.8306L62.984 62.8183L62.7891 62.7059C62.8337 62.6286 62.8785 62.549 62.9236 62.4671M63.4977 63.1145L62.0721 62.4743L62.0757 62.48L62.0793 62.4856L62.5865 62.1578M63.4977 63.1145L63.1759 62.6986M63.4977 63.1145L62.9962 63.5026L62.8508 63.6152L62.8129 63.5662L62.7831 63.5276C62.7706 63.4924 62.7648 63.4782 62.7572 63.4619L63.4977 63.1145ZM63.4977 63.1145L63.1759 62.6986M62.9236 62.4671L62.5865 62.1578M62.9236 62.4671C62.9403 62.4366 62.9571 62.4058 62.9739 62.3747L62.7663 62.0415M62.9236 62.4671L63.1759 62.6986M62.5865 62.1578L62.7663 62.0415M62.5865 62.1578L62.5838 62.1553L62.7663 62.0415M62.7663 62.0415L63.1759 62.6986M63.4239 53.6213C63.2701 54.1381 63.1166 54.7683 63.0012 55.3324C62.8907 55.8721 62.7968 56.4363 62.7968 56.7764C62.7968 57.7703 62.4063 59.3706 61.8534 60.5312C61.853 60.5319 61.8527 60.5326 61.8524 60.5333L63.4239 53.6213ZM63.9169 53.7549L63.4306 53.5993C63.432 53.595 63.4336 53.5899 63.4354 53.584C63.4562 53.5179 63.5058 53.3601 63.5808 53.2329C63.5975 53.2047 63.6282 53.1548 63.6764 53.0982C63.6824 53.0911 63.6886 53.084 63.6952 53.0767C63.7647 53 63.8654 52.9147 64.0051 52.8558C64.1939 52.7762 64.3722 52.7756 64.5203 52.8081L64.3658 53.2912L63.9169 53.7549ZM63.9169 53.7549L64.0151 53.7862M63.9169 53.7549L64.0151 53.7862M64.0151 53.7862C64.0145 53.7875 64.0139 53.7887 64.0133 53.7899L64.0151 53.7862ZM63.2786 64.6221L64.0049 64.2458L63.2803 64.6254L63.2794 64.6236C63.2792 64.6231 63.2789 64.6226 63.2786 64.6221ZM0.746608 12.8749C1.45858 18.9469 2.9703 25.1603 5.29153 31.5068C5.56462 32.2638 5.85721 33.0539 5.93523 33.2619C6.22782 34.0937 7.7493 37.6121 8.41251 39.0345C10.3729 43.2266 12.9964 47.6684 15.1811 50.5463C15.8638 51.4446 16.0394 51.8106 16.254 52.7838L0.746608 12.8749ZM16.4003 53.7986C16.4161 53.7986 16.4431 53.8983 16.4762 54.0663L16.4003 53.7986Z" stroke="white" stroke-width="1.63599"/>
</svg>
