<svg width="37" height="37" viewBox="0 0 37 37" fill="none" xmlns="http://www.w3.org/2000/svg">
<path opacity="0.46" d="M23.0816 4.84181C22.1566 5.0297 21.6001 5.51388 21.3183 6.38829L21.1954 6.74962L20.4077 6.8797C18.4566 7.20489 16.7077 7.75411 15.1396 8.52013C12.9933 9.57521 11.5552 10.7893 10.3917 12.5381C9.85695 13.3475 8.99699 15.0891 8.60675 16.1731C8.04308 17.734 7.46496 20.1332 7.32043 21.4918C7.28429 21.8098 7.23371 21.9688 7.11086 22.0772C7.02414 22.1639 5.89679 22.9588 4.61046 23.8404C1.90773 25.7121 0.816517 26.5215 0.36847 26.984C0.0721811 27.2803 0.0432749 27.3526 0.0143686 27.7356C-0.0362173 28.4871 0.332338 28.9713 1.01163 29.0363C1.27902 29.058 1.45246 29.0219 1.85714 28.8412C2.65929 28.4871 3.12902 28.3932 4.26359 28.3498C6.45324 28.2631 8.89582 28.7256 10.4929 29.5277C10.782 29.6723 11.5118 30.1059 12.1044 30.4961C14.229 31.8764 14.865 32.086 17.0546 32.1365C18.6228 32.1727 19.6489 32.0787 20.9425 31.7608C23.8404 31.0598 26.8177 29.1592 28.9279 26.6805L29.4482 26.0662L30.4021 26.1168C30.9224 26.1385 31.7534 26.2108 32.2448 26.2686C33.4734 26.4131 34.0732 26.4059 34.6296 26.2324C36.0316 25.7988 36.5013 24.5125 36.5013 21.0654C36.5013 19.3094 36.429 18.5072 36.1544 17.2787C35.1355 12.6465 32.0859 9.35118 27.0851 7.47228C26.1673 7.13263 26.1601 7.1254 26.1601 6.90138C26.1601 6.19317 25.7265 5.5211 25.0255 5.15255C24.404 4.82013 23.732 4.71173 23.0816 4.84181ZM24.3101 6.22931C24.5124 6.33048 24.7148 6.51114 24.7943 6.6629C24.8521 6.7713 24.8376 6.77853 24.628 6.69903C24.4907 6.65567 23.9993 6.61232 23.5079 6.61232H22.6263L22.807 6.42442C22.9081 6.31603 23.096 6.2004 23.2189 6.15704C23.479 6.07032 24.0788 6.10646 24.3101 6.22931ZM24.0427 8.23106C25.2495 9.07657 26.1023 10.4496 26.5648 12.2779C26.8827 13.5281 26.9767 14.5326 26.9333 16.3682C26.8827 18.6879 26.6298 20.4584 25.9722 23.1322L25.6398 24.4764L25.264 24.4113C23.0238 24.0428 21.2677 23.667 17.705 22.7998C16.173 22.4313 14.7349 22.0844 14.5036 22.041L14.0845 21.9543L14.1351 21.6219C14.7277 17.3871 16.1079 13.7955 18.0736 11.3457C19.0491 10.1317 20.1187 9.27169 21.4195 8.63575C22.0482 8.32501 23.2116 7.90587 23.4935 7.88419C23.5152 7.87696 23.7609 8.03595 24.0427 8.23106ZM18.2036 9.3006C16.9679 10.4858 16.0862 11.707 15.2552 13.3547C14.164 15.5227 13.3474 18.1893 12.9355 20.9209L12.8198 21.7158L12.0611 21.6797C11.6491 21.658 10.7097 21.6436 9.98703 21.6436H8.65734L8.70793 21.2461C8.93918 19.3238 9.7341 16.6789 10.623 14.8434C11.3673 13.3113 12.3935 11.9744 13.5497 11.035C14.0195 10.652 15.0673 10.016 15.8478 9.64747C16.5704 9.29337 18.6661 8.53458 18.9191 8.52735C18.9696 8.52735 18.6517 8.87423 18.2036 9.3006ZM28.2197 9.39454C30.8935 10.6953 32.7146 12.3936 33.9286 14.7494C35.0704 16.968 35.504 20.2055 35.0777 23.3779C34.9114 24.5992 34.6441 25.0111 33.9286 25.1123C33.7696 25.1412 33.2349 25.1051 32.7363 25.0473C32.2376 24.9895 31.2476 24.9027 30.5321 24.8594C28.039 24.7149 27.0056 24.6426 26.9839 24.6209C26.9695 24.6137 27.0779 24.1656 27.2079 23.6309C27.8656 21.0582 28.1763 18.9264 28.2341 16.5777C28.2775 14.8 28.2124 13.8317 27.9595 12.5092C27.7138 11.2229 27.1718 9.83536 26.5864 8.98263C26.4708 8.81642 26.3769 8.66466 26.3769 8.64298C26.3769 8.56349 27.2152 8.91036 28.2197 9.39454ZM12.3935 23.0166C13.622 23.1756 15.4431 23.5586 17.9941 24.1801C22.3228 25.2424 23.9126 25.5676 25.9071 25.8061C26.6226 25.8856 27.338 25.9795 27.497 26.0084L27.7861 26.0662L27.02 26.825C25.3073 28.5305 23.1972 29.759 20.9208 30.3877C19.5984 30.749 18.7023 30.8719 17.3798 30.8719C15.4142 30.8719 14.6915 30.6406 12.7982 29.3904C11.4685 28.516 10.6446 28.0897 9.61125 27.75C8.79464 27.4899 7.42882 27.2152 6.30148 27.0924C5.18136 26.9768 3.25187 27.0418 2.51476 27.2297C2.20402 27.3092 1.95109 27.3598 1.95109 27.3453C1.95109 27.302 3.29523 26.3481 4.98625 25.1846C5.96183 24.5197 7.07472 23.7465 7.45773 23.4719C8.11535 23.0094 8.19484 22.9733 8.68625 22.9082C9.40168 22.8215 11.3312 22.8721 12.3935 23.0166Z" fill="white"/>
</svg>
