<svg width="106" height="109" viewBox="0 0 106 109" fill="none" xmlns="http://www.w3.org/2000/svg">
<path d="M25.5561 29.0796C20.7279 36.381 3.41183 56.3317 3.41183 56.3317C-0.327355 60.7618 0.145517 67.3346 4.47008 70.9848C5.29192 71.6785 6.18371 72.2179 7.11641 72.6138C4.38973 77.161 5.24054 83.1196 9.36587 86.6016C10.7986 87.8109 12.4513 88.5812 14.172 88.9323C13.4082 93.044 14.7897 97.411 18.1679 100.262C21.9138 103.424 27.0849 103.845 31.2676 101.749C31.9569 103.222 32.9591 104.528 34.2045 105.575C38.8982 109.537 45.7848 109.073 49.5858 104.569L74.6942 74.8219C74.9553 78.5694 76.5536 82.0257 79.449 84.9587C79.6903 85.2052 79.9435 85.4399 80.2077 85.6618C82.7288 87.7898 85.914 88.4714 88.9447 87.5349C91.9645 86.5993 94.3938 84.1819 95.1331 81.3741C97.341 73.025 100.677 67.4891 102.994 64.0513C104.38 61.9955 104.984 59.7107 104.748 57.4193C104.807 54.3181 105.049 46.0156 105.495 43.2735C107.143 33.1801 100.38 19.1359 89.4179 9.8832C77.5224 -0.157202 58.9308 -5.35834 42.4299 10.1403C31.0649 20.8173 27.8719 25.578 25.5561 29.0796V29.0796ZM44.9465 12.8088C49.4066 8.61841 53.6404 6.16128 58.213 4.95835C69.1616 2.08029 88.4278 8.69632 97.5667 26.7105C103.327 38.0574 98.5095 51.9503 98.9569 57.9975C99.068 59.5036 98.2266 61.6031 97.2365 63.0703C94.285 67.4528 91.0314 73.3287 88.8373 81.5841C87.4548 86.7916 82.9792 83.3827 82.0398 82.4092C76.5777 76.7453 77.5985 71.8922 80.6124 66.5916L80.5883 62.2214C79.3691 62.7326 76.0626 65.0242 73.237 67.3228L45.0385 100.731C42.8301 103.348 38.3901 104.349 36.5941 102.833C33.3668 100.109 32.9668 95.5718 35.5189 92.5482L57.1182 66.9583C57.0343 67.5617 56.8918 68.1556 56.6927 68.7315C57.6211 68.2081 58.2305 67.2097 58.5813 66.2264C58.9574 65.2369 59.1139 64.2401 59.3322 63.3306C59.5206 62.4059 59.767 61.5552 60.123 60.7293C60.4856 59.9015 61.013 59.125 61.6262 58.2678C60.5765 58.5332 59.6433 59.1365 58.9703 59.9847C58.4045 60.6611 29.9768 94.3351 29.9768 94.3351C27.2293 97.5902 22.1281 98.8487 20.5123 97.4849C16.784 94.338 16.6338 89.2165 19.662 85.6289L45.0919 55.5005C45.0028 56.0186 44.8697 56.5282 44.6943 57.0238C45.6269 56.5014 46.235 55.5045 46.5898 54.5195C46.959 53.5292 47.117 52.5336 47.3392 51.6224C47.5262 50.6965 47.7726 49.8458 48.131 49.017C48.4938 48.1918 49.0171 47.4143 49.6303 46.5571C48.5811 46.8236 47.6485 47.4272 46.9759 48.2753C46.3422 49.0349 19.5564 80.7608 19.5564 80.7608C17.2021 83.5501 12.8967 84.6624 10.8516 82.9362C7.96124 80.4966 8.60666 76.3051 10.9659 73.5099L35.3361 44.637C35.2508 45.2458 35.1065 45.8449 34.9051 46.4257C35.8377 45.9033 36.4454 44.901 36.7991 43.9202C37.1724 42.9282 37.3264 41.9343 37.5486 41.0231C37.7356 40.0972 37.9807 39.248 38.3419 38.4189C38.7044 37.5911 39.2282 36.8189 39.8411 35.959C38.792 36.2255 37.8594 36.8292 37.1867 37.6772C36.6283 38.3448 13.9405 65.2185 13.9405 65.2185C11.7754 67.7836 8.10716 69.1277 5.95513 67.3113C3.54527 65.2772 4.04694 61.2679 6.21576 58.6984C6.21576 58.6984 23.7843 38.5318 28.6383 31.1166C30.7704 27.8564 33.6256 23.4453 44.9465 12.8088" fill="white"/>
</svg>
