<svg width="37" height="37" viewBox="0 0 37 37" fill="none" xmlns="http://www.w3.org/2000/svg">
<path d="M10.7298 10.8568C9.51143 12.6993 5.14164 17.7339 5.14164 17.7339C4.19804 18.8519 4.31737 20.5106 5.40869 21.4317C5.61609 21.6068 5.84113 21.7429 6.07651 21.8428C5.38842 22.9903 5.60312 24.494 6.64417 25.3727C7.00572 25.6779 7.42279 25.8723 7.85701 25.9608C7.66428 26.9985 8.01289 28.1005 8.86539 28.82C9.81069 29.6179 11.1156 29.7242 12.1712 29.1952C12.3451 29.567 12.598 29.8965 12.9123 30.1607C14.0968 31.1604 15.8346 31.0433 16.7938 29.9069L23.13 22.4C23.1959 23.3457 23.5993 24.2179 24.3299 24.9581C24.3908 25.0203 24.4547 25.0795 24.5214 25.1355C25.1576 25.6725 25.9614 25.8445 26.7262 25.6082C27.4883 25.3721 28.1013 24.7621 28.2879 24.0535C28.8451 21.9466 29.6868 20.5496 30.2715 19.682C30.6214 19.1632 30.7738 18.5866 30.7143 18.0084C30.7291 17.2258 30.7902 15.1306 30.9026 14.4386C31.3186 11.8915 29.612 8.34743 26.8456 6.01246C23.8438 3.47873 19.1521 2.16619 14.988 6.07734C12.12 8.77173 11.3143 9.97311 10.7298 10.8568V10.8568ZM15.6231 6.75074C16.7486 5.69329 17.817 5.07322 18.971 4.76966C21.7339 4.04337 26.5958 5.71295 28.902 10.2589C30.3557 13.1223 29.1399 16.6283 29.2529 18.1543C29.2809 18.5344 29.0686 19.0642 28.8187 19.4345C28.0739 20.5404 27.2528 22.0232 26.6991 24.1065C26.3502 25.4206 25.2208 24.5604 24.9838 24.3147C23.6054 22.8854 23.863 21.6607 24.6235 20.3231L24.6175 19.2202C24.3098 19.3492 23.4754 19.9275 22.7623 20.5076L15.6463 28.9384C15.089 29.5986 13.9686 29.8513 13.5153 29.4687C12.7009 28.7813 12.6 27.6364 13.244 26.8733L18.6947 20.4156C18.6735 20.5679 18.6375 20.7178 18.5873 20.8631C18.8216 20.731 18.9754 20.4791 19.0639 20.2309C19.1588 19.9812 19.1983 19.7297 19.2534 19.5001C19.3009 19.2668 19.3631 19.0521 19.4529 18.8437C19.5444 18.6348 19.6775 18.4388 19.8323 18.2225C19.5674 18.2895 19.3319 18.4417 19.1621 18.6558C19.0193 18.8265 11.8454 27.3243 11.8454 27.3243C11.1521 28.1457 9.86478 28.4633 9.45702 28.1191C8.51616 27.325 8.47827 26.0326 9.24245 25.1272L15.6598 17.5242C15.6373 17.6549 15.6037 17.7835 15.5594 17.9086C15.7948 17.7768 15.9483 17.5252 16.0378 17.2766C16.131 17.0267 16.1708 16.7755 16.2269 16.5455C16.2741 16.3119 16.3363 16.0972 16.4267 15.888C16.5183 15.6798 16.6503 15.4836 16.8051 15.2673C16.5403 15.3345 16.305 15.4869 16.1352 15.7009C15.9753 15.8926 9.2158 23.8987 9.2158 23.8987C8.62168 24.6026 7.53518 24.8833 7.0191 24.4477C6.2897 23.8321 6.45258 22.7743 7.04794 22.0689L13.1979 14.7827C13.1763 14.9364 13.1399 15.0875 13.0891 15.2341C13.3245 15.1023 13.4778 14.8494 13.5671 14.6018C13.6613 14.3515 13.7001 14.1007 13.7562 13.8708C13.8034 13.6371 13.8652 13.4228 13.9564 13.2136C14.0479 13.0047 14.1801 12.8098 14.3347 12.5928C14.07 12.6601 13.8346 12.8124 13.6649 13.0264C13.524 13.1949 7.79859 19.9766 7.79859 19.9766C7.25222 20.6239 6.32653 20.9631 5.78345 20.5047C5.17531 19.9914 5.30191 18.9796 5.84922 18.3312C5.84922 18.3312 10.2827 13.2421 11.5076 11.3708C12.0457 10.5481 12.7662 9.43493 15.6231 6.75074" fill="white" fill-opacity="0.3"/>
</svg>
