<svg width="92" height="103" viewBox="0 0 92 103" fill="none" xmlns="http://www.w3.org/2000/svg">
<path fill-rule="evenodd" clip-rule="evenodd" d="M46.3944 1.99944C46.7791 1.99944 47.091 1.70859 47.091 1.3498C47.091 0.991008 46.7791 0.700152 46.3944 0.700152C46.0096 0.700152 45.6977 0.991008 45.6977 1.3498C45.6977 1.70859 46.0096 1.99944 46.3944 1.99944ZM49.8719 2.167C49.8719 2.66548 49.4386 3.06958 48.9041 3.06958C48.3695 3.06958 47.9362 2.66548 47.9362 2.167C47.9362 1.66851 48.3695 1.26441 48.9041 1.26441C49.4386 1.26441 49.8719 1.66851 49.8719 2.167ZM51.8737 4.44573C52.5649 4.44573 53.1253 3.92316 53.1253 3.27853C53.1253 2.6339 52.5649 2.11133 51.8737 2.11133C51.1824 2.11133 50.6221 2.6339 50.6221 3.27853C50.6221 3.92316 51.1824 4.44573 51.8737 4.44573ZM57.4943 5.8491C57.4943 6.66659 56.7837 7.32929 55.9071 7.32929C55.0305 7.32929 54.3198 6.66659 54.3198 5.8491C54.3198 5.03161 55.0305 4.36891 55.9071 4.36891C56.7837 4.36891 57.4943 5.03161 57.4943 5.8491ZM60.1975 11.1919C61.382 11.1919 62.3423 10.2963 62.3423 9.19167C62.3423 8.08699 61.382 7.19147 60.1975 7.19147C59.0129 7.19147 58.0526 8.08699 58.0526 9.19167C58.0526 10.2963 59.0129 11.1919 60.1975 11.1919ZM67.0192 15.1255C67.0192 16.5461 65.7843 17.6977 64.261 17.6977C62.7377 17.6977 61.5028 16.5461 61.5028 15.1255C61.5028 13.7049 62.7377 12.5533 64.261 12.5533C65.7843 12.5533 67.0192 13.7049 67.0192 15.1255ZM71.4744 25.4363C73.4506 25.4363 75.0526 23.9424 75.0526 22.0995C75.0526 20.2566 73.4506 18.7626 71.4744 18.7626C69.4982 18.7626 67.8962 20.2566 67.8962 22.0995C67.8962 23.9424 69.4982 25.4363 71.4744 25.4363ZM82.0134 31.296C82.0134 33.5804 80.0276 35.4323 77.578 35.4323C75.1283 35.4323 73.1425 33.5804 73.1425 31.296C73.1425 29.0116 75.1283 27.1597 77.578 27.1597C80.0276 27.1597 82.0134 29.0116 82.0134 31.296ZM82.6011 47.0174C85.4521 47.0174 87.7634 44.862 87.7634 42.2032C87.7634 39.5445 85.4521 37.3891 82.6011 37.3891C79.75 37.3891 77.4388 39.5445 77.4388 42.2032C77.4388 44.862 79.75 47.0174 82.6011 47.0174ZM92 54.5262C92 57.4441 89.4635 59.8096 86.3345 59.8096C83.2056 59.8096 80.6691 57.4441 80.6691 54.5262C80.6691 51.6083 83.2056 49.2428 86.3345 49.2428C89.4635 49.2428 92 51.6083 92 54.5262ZM84.2345 72.9193C87.4847 72.9193 90.1195 70.4621 90.1195 67.4311C90.1195 64.4 87.4847 61.9428 84.2345 61.9428C80.9842 61.9428 78.3494 64.4 78.3494 67.4311C78.3494 70.4621 80.9842 72.9193 84.2345 72.9193ZM81.4613 78.8178C81.4613 82.0589 78.6439 84.6863 75.1684 84.6863C71.6929 84.6863 68.8755 82.0589 68.8755 78.8178C68.8755 75.5767 71.6929 72.9493 75.1684 72.9493C78.6439 72.9493 81.4613 75.5767 81.4613 78.8178ZM62.7962 94.3984C66.5569 94.3984 69.6055 91.5554 69.6055 88.0484C69.6055 84.5414 66.5569 81.6983 62.7962 81.6983C59.0356 81.6983 55.987 84.5414 55.987 88.0484C55.987 91.5554 59.0356 94.3984 62.7962 94.3984ZM45.8485 102.3C50.4448 102.3 54.1709 98.8256 54.1709 94.5392C54.1709 90.2529 50.4448 86.7781 45.8485 86.7781C41.2522 86.7781 37.5261 90.2529 37.5261 94.5392C37.5261 98.8256 41.2522 102.3 45.8485 102.3ZM35.7107 88.0484C35.7107 91.5554 32.6621 94.3984 28.9015 94.3984C25.1408 94.3984 22.0922 91.5554 22.0922 88.0484C22.0922 84.5414 25.1408 81.6983 28.9015 81.6983C32.6621 81.6983 35.7107 84.5414 35.7107 88.0484ZM16.8847 84.6863C20.3602 84.6863 23.1776 82.0589 23.1776 78.8178C23.1776 75.5767 20.3602 72.9493 16.8847 72.9493C13.4092 72.9493 10.5918 75.5767 10.5918 78.8178C10.5918 82.0589 13.4092 84.6863 16.8847 84.6863ZM13.5858 67.4311C13.5858 70.4621 10.951 72.9193 7.70071 72.9193C4.45047 72.9193 1.81563 70.4621 1.81563 67.4311C1.81563 64.4 4.45047 61.9428 7.70071 61.9428C10.951 61.9428 13.5858 64.4 13.5858 67.4311ZM5.66545 59.8096C8.7944 59.8096 11.3309 57.4441 11.3309 54.5262C11.3309 51.6083 8.7944 49.2428 5.66545 49.2428C2.53651 49.2428 0 51.6083 0 54.5262C0 57.4441 2.53651 59.8096 5.66545 59.8096ZM14.2591 42.2032C14.2591 44.862 11.9479 47.0174 9.09685 47.0174C6.24581 47.0174 3.93458 44.862 3.93458 42.2032C3.93458 39.5445 6.24581 37.3891 9.09685 37.3891C11.9479 37.3891 14.2591 39.5445 14.2591 42.2032ZM14.4226 35.4323C16.8722 35.4323 18.858 33.5804 18.858 31.296C18.858 29.0116 16.8722 27.1597 14.4226 27.1597C11.9729 27.1597 9.98713 29.0116 9.98713 31.296C9.98713 33.5804 11.9729 35.4323 14.4226 35.4323ZM24.1039 22.0995C24.1039 23.9424 22.5018 25.4363 20.5257 25.4363C18.5495 25.4363 16.9475 23.9424 16.9475 22.0995C16.9475 20.2566 18.5495 18.7626 20.5257 18.7626C22.5018 18.7626 24.1039 20.2566 24.1039 22.0995ZM26.9684 17.6977C28.4917 17.6977 29.7266 16.5461 29.7266 15.1255C29.7266 13.7049 28.4917 12.5533 26.9684 12.5533C25.4451 12.5533 24.2102 13.7049 24.2102 15.1255C24.2102 16.5461 25.4451 17.6977 26.9684 17.6977ZM33.3422 9.19172C33.3422 10.2964 32.3819 11.1919 31.1973 11.1919C30.0128 11.1919 29.0525 10.2964 29.0525 9.19172C29.0525 8.08705 30.0128 7.19153 31.1973 7.19153C32.3819 7.19153 33.3422 8.08705 33.3422 9.19172ZM36.6924 7.32929C37.569 7.32929 38.2796 6.66659 38.2796 5.8491C38.2796 5.03161 37.569 4.36891 36.6924 4.36891C35.8158 4.36891 35.1051 5.03161 35.1051 5.8491C35.1051 6.66659 35.8158 7.32929 36.6924 7.32929ZM41.8453 3.27859C41.8453 3.92321 41.2849 4.44579 40.5937 4.44579C39.9024 4.44579 39.3421 3.92321 39.3421 3.27859C39.3421 2.63396 39.9024 2.11139 40.5937 2.11139C41.2849 2.11139 41.8453 2.63396 41.8453 3.27859ZM43.9415 3.06958C44.476 3.06958 44.9093 2.66548 44.9093 2.16699C44.9093 1.66851 44.476 1.2644 43.9415 1.2644C43.407 1.2644 42.9736 1.66851 42.9736 2.16699C42.9736 2.66548 43.407 3.06958 43.9415 3.06958Z" fill="white"/>
</svg>
