<svg width="37" height="37" viewBox="0 0 37 37" fill="none" xmlns="http://www.w3.org/2000/svg">
<g opacity="0.46">
<path d="M5.07378 7.06566C4.99719 7.1423 4.98625 7.22989 5.0136 7.57475C5.07378 8.33018 5.48955 10.0983 5.89437 11.2698C7.76534 16.7767 11.1626 21.0301 15.9385 23.8602C16.584 24.2434 18.2416 25.0919 18.3456 25.0919C18.3729 25.0919 18.4003 25.1083 18.4003 25.1302C18.4003 25.1521 17.1803 26.3947 15.6923 27.8837C13.225 30.3525 12.9843 30.6098 12.9843 30.774C12.9843 30.9054 13.2743 31.4747 14.0566 32.8815C14.6474 33.9435 15.1671 34.8522 15.2164 34.9015C15.293 34.9945 15.5391 35 18.9474 35H22.5963L22.7057 34.8796C22.8643 34.6989 24.9104 31.0039 24.9487 30.8287C24.976 30.6919 24.7408 30.4401 22.2954 27.9548C20.8183 26.4549 19.6093 25.2068 19.6093 25.1849C19.6038 25.163 20.0141 24.9386 20.5174 24.6868C25.824 22.0538 29.637 17.8223 31.776 12.2004C32.3942 10.5746 32.9085 8.60388 32.9905 7.57475C33.0025 7.42355 33.0038 7.30795 32.9905 7.22048C32.9615 7.0293 32.8632 6.9726 32.6568 6.9726C32.3778 6.9726 32.3176 7.09303 32.1918 7.85941C31.7651 10.487 30.578 13.5689 29.0516 16.0049C26.8579 19.5192 23.7834 22.2618 20.0032 24.0901C19.4835 24.3419 19.0349 24.5445 19.0021 24.5445C18.9692 24.5445 18.5206 24.3419 18.0009 24.0901C14.2207 22.2618 11.1462 19.5192 8.95247 16.0049C7.42616 13.5689 6.23902 10.487 5.81231 7.85941C5.74667 7.44338 5.66461 7.12588 5.61537 7.06566C5.50049 6.94523 5.1996 6.94523 5.07378 7.06566ZM19.8227 28.4475C20.2165 29.4985 20.5338 30.3634 20.5174 30.3799C20.5065 30.3908 19.8172 30.3963 18.9911 30.3908L17.4867 30.3744L18.1103 28.7322C18.4495 27.8289 18.7942 26.9202 18.8762 26.7122C18.9856 26.4111 19.0294 26.3509 19.0568 26.4385C19.0786 26.4932 19.4233 27.4019 19.8227 28.4475ZM17.3882 28.4694L16.6661 30.3744L15.468 30.3908L14.2699 30.4018L16.1847 28.4858C17.235 27.4348 18.0994 26.5699 18.1049 26.5699C18.1103 26.5699 17.7876 27.4238 17.3882 28.4694ZM21.814 28.5679L23.6083 30.4018H22.4923H21.3818L20.7855 28.8252C20.4573 27.9603 20.1454 27.1392 20.0907 26.9914C20.036 26.8491 19.9977 26.7341 20.0087 26.7341C20.0141 26.7341 20.8293 27.5607 21.814 28.5679ZM17.5523 32.7282L18.3948 34.261L17.0709 34.2774C16.3488 34.2829 15.7361 34.2719 15.7142 34.25C15.665 34.1953 14.0839 31.3542 14.0402 31.2448C14.0183 31.1791 14.1988 31.1681 15.3641 31.1791L16.7099 31.1955L17.5523 32.7282ZM20.3971 31.2612C20.3697 31.3433 19.0677 33.741 19.0294 33.7847C19.0239 33.7902 18.7613 33.3359 18.455 32.772C18.1432 32.2082 17.8204 31.6115 17.7274 31.4528L17.5687 31.1681H19.0021C20.3424 31.1681 20.4354 31.1736 20.3971 31.2612ZM23.7232 31.5404C23.6083 31.7484 23.2199 32.4491 22.8589 33.1005L22.2024 34.2884H20.9277C20.1837 34.2884 19.6585 34.2665 19.6695 34.2391C19.6804 34.2117 20.0579 33.511 20.5065 32.679L21.3271 31.1736L22.6291 31.1681H23.9311L23.7232 31.5404Z" fill="white"/>
<path d="M5.61537 7.06566C5.50049 6.94523 5.1996 6.94523 5.07378 7.06566C4.09646 5.61644 17.0709 2 19.0568 2C21.0426 2 31.2 5.16438 32.1036 5.61644C32.8264 5.97808 32.996 6.83649 32.9905 7.22048C32.9615 7.0293 32.8632 6.9726 32.6568 6.9726C24.4261 3.35616 20.8118 3.35616 18.9474 3.35616C17.083 3.35616 11.5252 3.80822 5.61537 7.06566Z" fill="white"/>
</g>
<path opacity="0.46" d="M11.4572 22.1332C11.4088 22.2119 11.2392 22.5025 11.0758 22.781C10.7306 23.3683 10.2463 23.8709 9.73767 24.1736C9.53181 24.2947 9.24118 24.4642 9.08982 24.5611C8.8113 24.7185 8.80525 24.7367 8.82341 24.9849C8.84157 25.2332 8.84763 25.2392 9.36833 25.542C10.3431 26.099 10.6519 26.4078 11.215 27.3826C11.6752 28.1879 11.9234 28.1697 12.4138 27.2978C12.8134 26.5773 13.3826 26.0082 14.1092 25.5965C15.0295 25.0818 15.0295 24.8517 14.1092 24.3371C13.3765 23.9193 12.9043 23.4652 12.5349 22.8174C12.0869 22.0363 12.0506 22 11.7781 22C11.5965 22 11.5177 22.0302 11.4572 22.1332ZM12.5894 24.2705C12.8316 24.5006 13.1283 24.7488 13.2494 24.8154C13.3705 24.882 13.4734 24.9486 13.4734 24.9668C13.4734 24.9849 13.3705 25.0515 13.2494 25.1181C12.9467 25.2816 12.1959 26.0203 11.9779 26.3775L11.7963 26.6681L11.5843 26.3472C11.3119 25.9416 10.7367 25.3664 10.4037 25.1666C10.2584 25.0818 10.1433 24.991 10.1433 24.9668C10.1433 24.9425 10.2584 24.8517 10.4037 24.767C10.7367 24.5672 11.3119 23.992 11.5843 23.5863L11.7963 23.2654L11.9779 23.556C12.0748 23.7134 12.3533 24.0343 12.5894 24.2705Z" fill="white"/>
<path opacity="0.46" d="M8.64805 28.8902C8.53906 28.9568 8.44824 29.2414 8.44824 29.5139V29.75H8.12129C7.73379 29.75 7.60059 29.8469 7.60059 30.1375C7.60059 30.4221 7.75801 30.5371 8.12734 30.5371H8.43613L8.46035 30.8701C8.49062 31.2576 8.62988 31.4453 8.88418 31.4453C9.16269 31.4453 9.2959 31.2576 9.2959 30.8701V30.5371H9.6289C9.8832 30.5371 9.99219 30.5068 10.083 30.416C10.2283 30.2707 10.2404 30.0709 10.1072 29.8832C10.0285 29.7682 9.96191 29.75 9.65312 29.75H9.2959V29.3988C9.2959 29.1324 9.26562 29.0174 9.18691 28.9447C9.07187 28.8357 8.77519 28.8115 8.64805 28.8902Z" fill="white"/>
</svg>
