<svg width="106" height="109" viewBox="0 0 106 109" fill="none" xmlns="http://www.w3.org/2000/svg">
<path d="M81.022 29.022C85.8502 36.3234 103.166 56.2741 103.166 56.2741C106.905 60.7041 106.433 67.277 102.108 70.9272C101.286 71.6208 100.394 72.1603 99.4617 72.5562C102.188 77.1033 101.338 83.062 97.2123 86.544C95.7795 87.7533 94.1268 88.5236 92.4062 88.8747C93.1699 92.9864 91.7884 97.3534 88.4102 100.205C84.6643 103.367 79.4932 103.788 75.3105 101.691C74.6212 103.165 73.619 104.471 72.3736 105.517C67.6799 109.479 60.7934 109.015 56.9924 104.512L31.8839 74.7642C31.6228 78.5118 30.0245 81.9681 27.1292 84.9011C26.8878 85.1476 26.6346 85.3822 26.3705 85.6042C23.8493 87.7322 20.6641 88.4138 17.6334 87.4773C14.6136 86.5417 12.1843 84.1243 11.445 81.3165C9.23711 72.9674 5.90161 67.4315 3.58447 63.9937C2.19796 61.9379 1.59399 59.6531 1.82994 57.3617C1.77115 54.2605 1.52917 45.958 1.08359 43.2158C-0.564597 33.1225 6.19797 19.0783 17.1603 9.82558C29.0557 -0.214819 47.6473 -5.41596 64.1482 10.0827C75.5133 20.7597 78.7062 25.5204 81.022 29.022V29.022ZM61.6316 12.7511C57.1716 8.5608 52.9377 6.10366 48.3651 4.90073C37.4166 2.02268 18.1503 8.6387 9.01144 26.6528C3.25104 37.9997 8.06866 51.8927 7.6212 57.9399C7.51016 59.446 8.35154 61.5455 9.34162 63.0127C12.2931 67.3952 15.5468 73.2711 17.7408 81.5265C19.1234 86.734 23.5989 83.3251 24.5383 82.3516C30.0004 76.6877 28.9797 71.8346 25.9657 66.534L25.9898 62.1637C27.209 62.675 30.5155 64.9666 33.3412 67.2652L61.5396 100.674C63.748 103.29 68.188 104.291 69.984 102.775C73.2113 100.051 73.6113 95.5142 71.0592 92.4905L49.46 66.9006C49.5438 67.5041 49.6863 68.098 49.8855 68.6738C48.957 68.1505 48.3477 67.1521 47.9969 66.1688C47.6207 65.1793 47.4642 64.1825 47.246 63.273C47.0575 62.3483 46.8111 61.4976 46.4552 60.6717C46.0926 59.8438 45.5651 59.0673 44.952 58.2101C46.0016 58.4756 46.9349 59.0789 47.6078 59.9271C48.1737 60.6034 76.6013 94.2774 76.6013 94.2774C79.3488 97.5326 84.45 98.7911 86.0658 97.4272C89.7941 94.2803 89.9443 89.1589 86.9161 85.5712L61.4862 55.4429C61.5754 55.961 61.7084 56.4706 61.8838 56.9661C60.9513 56.4438 60.3431 55.4469 59.9884 54.4619C59.6191 53.4716 59.4612 52.476 59.2389 51.5648C59.052 50.6389 58.8056 49.7882 58.4471 48.9594C58.0843 48.1342 57.561 47.3567 56.9479 46.4995C57.997 46.766 58.9296 47.3696 59.6022 48.2177C60.2359 48.9773 87.0217 80.7032 87.0217 80.7032C89.376 83.4924 93.6814 84.6048 95.7265 82.8786C98.6169 80.439 97.9715 76.2475 95.6122 73.4523L71.242 44.5794C71.3273 45.1882 71.4717 45.7872 71.673 46.3681C70.7404 45.8457 70.1327 44.8434 69.779 43.8626C69.4058 42.8706 69.2518 41.8767 69.0295 40.9655C68.8426 40.0396 68.5974 39.1904 68.2363 38.3613C67.8737 37.5334 67.3499 36.7613 66.737 35.9014C67.7861 36.1679 68.7187 36.7715 69.3914 37.6196C69.9498 38.2872 92.6376 65.1608 92.6376 65.1608C94.8027 67.726 98.471 69.0701 100.623 67.2537C103.033 65.2196 102.531 61.2103 100.362 58.6408C100.362 58.6408 82.7938 38.4741 77.9399 31.059C75.8077 27.7988 72.9525 23.3877 61.6316 12.7511" fill="white"/>
</svg>
