<svg width="37" height="37" viewBox="0 0 37 37" fill="none" xmlns="http://www.w3.org/2000/svg">
<path d="M12.8857 29.6278C13.8656 29.7715 14.7704 29.3604 15.3669 28.5005C17.2092 25.8448 15.433 22.0403 15.433 22.0403L23.9667 27.9603C26.1269 29.4589 28.3451 27.7996 28.3036 26.1159C30.4894 26.8987 32.5646 24.0102 31.3234 22.3566C32.6156 21.9175 33.6454 19.5099 31.8695 17.9137C32.0787 17.7509 32.2619 17.5571 32.4128 17.3392C33.247 16.1365 32.9241 14.5174 31.6782 13.6531C31.6054 13.6043 25.7175 9.73307 23.8927 8.21474C21.9261 6.5787 19.6245 4.67565 16.5625 4.05666C13.9693 3.53245 11.0776 4.94802 9.19462 7.6624C6.86763 11.0168 6.66875 15.3091 8.66374 19.145C9.70963 21.1556 10.1735 23.4335 10.5466 25.2632C11.0363 27.6698 11.3902 29.4079 12.8857 29.6278V29.6278ZM23.4292 8.75611C25.2977 10.2458 29.0077 12.7684 30.9714 14.1306C32.7998 15.3991 31.3023 17.691 30.5333 17.1575L24.0516 12.8533L22.9417 12.8805L31.0144 18.4807C32.2806 19.3591 31.7033 21.5349 30.4288 21.6849L21.9747 15.8202L20.8366 15.9151L30.1107 22.3487C31.7768 23.5045 29.9092 26.3022 28.3542 25.2235L19.6435 19.1807L18.5155 19.2611L27.4851 25.4835C27.7638 26.2447 26.149 28.0587 24.7549 27.0916L15.593 20.7358C17.4349 18.2737 18.1271 13.1459 13.8473 10.9246C17.3144 13.8268 16.0836 18.2196 14.75 20.1419C14.2861 20.8107 14.4213 21.5432 14.4213 21.5432C14.4234 21.5419 14.4252 21.5409 14.4265 21.5389C14.4593 22.1108 16.2183 25.7513 14.8799 27.6805C14.4864 28.2477 13.5945 29.154 12.6161 27.6946C11.0765 25.3989 12.2426 22.658 9.84068 18.0831C7.14009 12.9384 9.83756 6.05355 14.3378 5.01466C17.8556 4.20368 21.8676 7.51109 23.4292 8.75611" fill="white" fill-opacity="0.3"/>
</svg>
