<svg width="194" height="62" viewBox="0 0 194 62" fill="none" xmlns="http://www.w3.org/2000/svg">
<path d="M0.126527 61.0933H-0.578096V61.7979H0.126527V61.0933ZM9.53244 61.0933V61.7979H10.2371V61.0933H9.53244ZM9.53244 45.3048V44.6002H8.82782V45.3048H9.53244ZM9.86837 45.3048L10.4611 44.9238L10.2531 44.6002H9.86837V45.3048ZM9.53244 18.7667V19.4713H9.95668L10.1552 19.0964L9.53244 18.7667ZM9.19652 18.7667H8.49189V19.4713H9.19652V18.7667ZM9.19652 14.0637H9.90114V13.3591H9.19652V14.0637ZM0.126527 14.0637V13.3591H-0.578096V14.0637H0.126527ZM0.126527 61.7979H9.53244V60.3887H0.126527V61.7979ZM10.2371 61.0933V45.3048H8.82782V61.0933H10.2371ZM9.53244 46.0094H9.86837V44.6002H9.53244V46.0094ZM9.86837 45.3048C9.27565 45.6858 9.27587 45.6862 9.2761 45.6865C9.2762 45.6867 9.27644 45.6871 9.27662 45.6874C9.27699 45.6879 9.27741 45.6886 9.27788 45.6893C9.27881 45.6907 9.27993 45.6924 9.28124 45.6944C9.28386 45.6984 9.28725 45.7036 9.2914 45.7098C9.29971 45.7222 9.31109 45.739 9.32558 45.7599C9.35458 45.8016 9.39606 45.8596 9.45039 45.9315C9.55902 46.0754 9.7192 46.2753 9.93373 46.5124C10.3626 46.9864 11.0104 47.611 11.8998 48.2335C13.6842 49.4827 16.4266 50.7124 20.2821 50.7124V49.3032C16.7472 49.3032 14.2827 48.1814 12.7079 47.079C11.9176 46.5258 11.3477 45.9747 10.9787 45.5669C10.7944 45.3631 10.6606 45.1956 10.575 45.0823C10.5323 45.0256 10.5016 44.9826 10.4827 44.9554C10.4732 44.9418 10.4667 44.9322 10.4631 44.9268C10.4613 44.9241 10.4603 44.9225 10.4599 44.922C10.4598 44.9218 10.4598 44.9218 10.46 44.9221C10.4601 44.9222 10.4602 44.9224 10.4604 44.9227C10.4605 44.9229 10.4607 44.9231 10.4607 44.9232C10.4609 44.9235 10.4611 44.9238 9.86837 45.3048ZM20.2821 50.7124C25.5526 50.7124 29.5385 48.4162 32.1858 44.8424C34.8165 41.291 36.1033 36.5134 36.1033 31.5319H34.6941C34.6941 36.2922 33.4615 40.7526 31.0533 44.0036C28.6617 47.2323 25.0893 49.3032 20.2821 49.3032V50.7124ZM36.1033 31.5319C36.1033 26.5503 34.8165 21.7728 32.1858 18.2213C29.5385 14.6475 25.5526 12.3513 20.2821 12.3513V13.7606C25.0893 13.7606 28.6617 15.8314 31.0533 19.0601C33.4615 22.3112 34.6941 26.7716 34.6941 31.5319H36.1033ZM20.2821 12.3513C16.2293 12.3513 13.3871 13.8538 11.5601 15.3689C10.65 16.1237 9.9939 16.8793 9.56319 17.4499C9.34762 17.7354 9.1878 17.9756 9.0802 18.1474C9.02639 18.2334 8.98557 18.3024 8.95731 18.3516C8.94318 18.3761 8.93219 18.3958 8.92427 18.4102C8.92031 18.4173 8.91713 18.4232 8.9147 18.4277C8.91349 18.4299 8.91247 18.4318 8.91163 18.4334C8.91122 18.4342 8.91085 18.4349 8.91053 18.4355C8.91037 18.4358 8.91016 18.4362 8.91008 18.4363C8.90989 18.4367 8.90971 18.437 9.53244 18.7667C10.1552 19.0964 10.155 19.0967 10.1549 19.097C10.1548 19.097 10.1547 19.0973 10.1546 19.0974C10.1545 19.0977 10.1544 19.0978 10.1544 19.0979C10.1543 19.0981 10.1544 19.0979 10.1546 19.0974C10.1552 19.0964 10.1564 19.0941 10.1584 19.0905C10.1624 19.0832 10.1694 19.0708 10.1793 19.0536C10.1991 19.0191 10.2307 18.9654 10.2747 18.8952C10.3626 18.7548 10.4993 18.5488 10.6879 18.2989C11.0655 17.7987 11.6482 17.1267 12.4597 16.4537C14.0759 15.1135 16.6086 13.7606 20.2821 13.7606V12.3513ZM9.53244 18.0621H9.19652V19.4713H9.53244V18.0621ZM9.90114 18.7667V14.0637H8.49189V18.7667H9.90114ZM9.19652 13.3591H0.126527V14.7684H9.19652V13.3591ZM-0.578096 14.0637V61.0933H0.831151V14.0637H-0.578096ZM9.90114 31.5319C9.90114 28.4599 10.5569 25.7573 11.8392 23.8454C13.1005 21.9649 14.9855 20.815 17.5947 20.815V19.4058C14.4931 19.4058 12.179 20.8089 10.6689 23.0604C9.17987 25.2803 8.49189 28.2884 8.49189 31.5319H9.90114ZM17.5947 20.815C20.2038 20.815 22.0888 21.9649 23.3501 23.8454C24.6324 25.7573 25.2882 28.4599 25.2882 31.5319H26.6974C26.6974 28.2884 26.0094 25.2803 24.5204 23.0604C23.0103 20.8089 20.6962 19.4058 17.5947 19.4058V20.815ZM25.2882 31.5319C25.2882 34.6038 24.6324 37.3065 23.3501 39.2184C22.0888 41.0988 20.2038 42.2487 17.5947 42.2487V43.658C20.6962 43.658 23.0103 42.2548 24.5204 40.0034C26.0094 37.7834 26.6974 34.7753 26.6974 31.5319H25.2882ZM17.5947 42.2487C14.9855 42.2487 13.1005 41.0988 11.8392 39.2184C10.5569 37.3065 9.90114 34.6038 9.90114 31.5319H8.49189C8.49189 34.7753 9.17987 37.7834 10.6689 40.0034C12.179 42.2548 14.4931 43.658 17.5947 43.658V42.2487ZM38.443 49H37.7384V49.7046H38.443V49ZM47.849 49V49.7046H48.5536V49H47.849ZM47.849 28.1726V27.468H47.1443V28.1726H47.849ZM67.3326 14.0637H68.0373V13.3591H67.3326V14.0637ZM57.9267 14.0637V13.3591H57.2221V14.0637H57.9267ZM47.849 21.4541H47.1443V22.1587H47.849V21.4541ZM47.849 14.0637H48.5536V13.3591H47.849V14.0637ZM38.443 14.0637V13.3591H37.7384V14.0637H38.443ZM38.443 49.7046H47.849V48.2954H38.443V49.7046ZM48.5536 49V28.1726H47.1443V49H48.5536ZM47.849 28.8772H54.9034V27.468H47.849V28.8772ZM54.9034 28.8772C59.7755 28.8772 63.118 28.3026 65.2187 26.5754C67.3672 24.8088 68.0373 22.0003 68.0373 18.0948H66.628C66.628 21.9157 65.9543 24.1461 64.3237 25.4868C62.6452 26.8669 59.7731 27.468 54.9034 27.468V28.8772ZM68.0373 18.0948V14.0637H66.628V18.0948H68.0373ZM67.3326 13.3591H57.9267V14.7684H67.3326V13.3591ZM57.2221 14.0637V17.0871H58.6313V14.0637H57.2221ZM57.2221 17.0871C57.2221 19.2819 56.8624 19.9954 56.367 20.3174C56.0877 20.499 55.6754 20.6204 55.0233 20.6846C54.3725 20.7487 53.5718 20.7495 52.5519 20.7495V22.1587C53.5476 22.1587 54.4265 22.1595 55.1614 22.0871C55.895 22.0149 56.5745 21.8633 57.135 21.499C58.3192 20.7293 58.6313 19.2593 58.6313 17.0871H57.2221ZM52.5519 20.7495H47.849V22.1587H52.5519V20.7495ZM48.5536 21.4541V14.0637H47.1443V21.4541H48.5536ZM47.849 13.3591H38.443V14.7684H47.849V13.3591ZM37.7384 14.0637V49H39.1477V14.0637H37.7384ZM78.0704 31.5319C78.0704 28.447 78.6639 25.746 79.9121 23.8387C81.1341 21.9716 83.012 20.815 85.7639 20.815V19.4058C82.5363 19.4058 80.2152 20.8023 78.733 23.067C77.277 25.2916 76.6612 28.3014 76.6612 31.5319H78.0704ZM85.7639 20.815C88.5158 20.815 90.3937 21.9716 91.6157 23.8387C92.864 25.746 93.4574 28.447 93.4574 31.5319H94.8667C94.8667 28.3014 94.2508 25.2916 92.7949 23.067C91.3127 20.8023 88.9915 19.4058 85.7639 19.4058V20.815ZM93.4574 31.5319C93.4574 34.6168 92.864 37.3178 91.6157 39.225C90.3937 41.0922 88.5158 42.2487 85.7639 42.2487V43.658C88.9915 43.658 91.3127 42.2615 92.7949 39.9967C94.2508 37.7721 94.8667 34.7624 94.8667 31.5319H93.4574ZM85.7639 42.2487C83.012 42.2487 81.1341 41.0922 79.9121 39.225C78.6639 37.3178 78.0704 34.6168 78.0704 31.5319H76.6612C76.6612 34.7624 77.277 37.7721 78.733 39.9967C80.2152 42.2615 82.5363 43.658 85.7639 43.658V42.2487ZM67.2552 31.5319C67.2552 36.7796 68.8786 41.5771 72.0304 45.0713C75.1912 48.5754 79.8391 50.7124 85.7639 50.7124V49.3032C80.2001 49.3032 75.946 47.3082 73.0769 44.1274C70.1989 40.9368 68.6645 36.4962 68.6645 31.5319H67.2552ZM85.7639 50.7124C91.6888 50.7124 96.3367 48.5754 99.4974 45.0713C102.649 41.5771 104.273 36.7796 104.273 31.5319H102.863C102.863 36.4962 101.329 40.9368 98.451 44.1274C95.5819 47.3082 91.3277 49.3032 85.7639 49.3032V50.7124ZM104.273 31.5319C104.273 26.2841 102.649 21.4867 99.4974 17.9924C96.3367 14.4883 91.6888 12.3513 85.7639 12.3513V13.7606C91.3277 13.7606 95.5819 15.7555 98.451 18.9363C101.329 22.127 102.863 26.5675 102.863 31.5319H104.273ZM85.7639 12.3513C79.8391 12.3513 75.1912 14.4883 72.0304 17.9924C68.8786 21.4867 67.2552 26.2841 67.2552 31.5319H68.6645C68.6645 26.5675 70.1989 22.127 73.0769 18.9363C75.946 15.7555 80.2001 13.7606 85.7639 13.7606V12.3513ZM122.718 14.0637H122.014V14.7684H122.718V14.0637ZM132.46 9.36078L132.289 10.0444L133.165 10.2632V9.36078H132.46ZM132.46 1.97042H133.165V1.50579L132.738 1.32277L132.46 1.97042ZM113.312 14.0637V14.7684H114.017V14.0637H113.312ZM103.907 14.0637V13.3591H103.202V14.0637H103.907ZM103.907 21.4541H103.202V22.1587H103.907V21.4541ZM113.312 21.4541H114.017V20.7495H113.312V21.4541ZM113.312 49H112.608V49.7046H113.312V49ZM122.718 49V49.7046H123.423V49H122.718ZM122.718 21.4541V20.7495H122.014V21.4541H122.718ZM132.46 21.4541V22.1587H133.165V21.4541H132.46ZM132.46 14.0637H133.165V13.3591H132.46V14.0637ZM123.423 14.0637V13.056H122.014V14.0637H123.423ZM123.423 13.056C123.423 11.6321 123.741 10.7621 124.266 10.2369C124.791 9.71183 125.662 9.39355 127.085 9.39355V7.98431C125.486 7.98431 124.172 8.33789 123.27 9.24045C122.367 10.143 122.014 11.4565 122.014 13.056H123.423ZM127.085 9.39355C128.376 9.39355 129.678 9.55539 130.665 9.71989C131.156 9.80182 131.566 9.88368 131.851 9.94479C131.993 9.97532 132.104 10.0006 132.179 10.0181C132.217 10.0268 132.245 10.0336 132.264 10.0381C132.273 10.0403 132.28 10.042 132.284 10.0431C132.286 10.0436 132.288 10.044 132.289 10.0442C132.289 10.0443 132.289 10.0444 132.289 10.0444C132.29 10.0444 132.29 10.0444 132.29 10.0444C132.289 10.0444 132.289 10.0444 132.289 10.0444C132.289 10.0444 132.289 10.0444 132.46 9.36078C132.631 8.6772 132.631 8.67717 132.631 8.67715C132.631 8.67714 132.631 8.67711 132.631 8.67709C132.63 8.67704 132.63 8.67698 132.63 8.67692C132.629 8.67678 132.629 8.67661 132.628 8.67639C132.626 8.67597 132.624 8.67538 132.621 8.67463C132.615 8.67315 132.606 8.67105 132.595 8.66837C132.573 8.66302 132.541 8.65536 132.5 8.64572C132.417 8.62645 132.297 8.59927 132.146 8.56682C131.843 8.50196 131.413 8.41585 130.896 8.32982C129.868 8.1584 128.482 7.98431 127.085 7.98431V9.39355ZM133.165 9.36078V1.97042H131.756V9.36078H133.165ZM132.46 1.97042C132.738 1.32277 132.738 1.32267 132.737 1.32257C132.737 1.32254 132.737 1.32243 132.737 1.32236C132.736 1.3222 132.736 1.32204 132.736 1.32186C132.735 1.32149 132.734 1.32107 132.733 1.32058C132.73 1.31961 132.727 1.31841 132.724 1.31698C132.717 1.31411 132.708 1.31032 132.696 1.30569C132.673 1.29641 132.641 1.28371 132.6 1.26809C132.517 1.23685 132.398 1.19392 132.244 1.14328C131.934 1.042 131.482 0.909855 130.891 0.778686C129.711 0.516296 127.98 0.258019 125.742 0.258019V1.66727C127.871 1.66727 129.499 1.91288 130.586 2.15438C131.129 2.27515 131.538 2.39495 131.805 2.48263C131.939 2.52646 132.038 2.56227 132.101 2.58614C132.133 2.59808 132.155 2.60703 132.169 2.61252C132.176 2.61526 132.18 2.61713 132.183 2.61808C132.184 2.61855 132.184 2.61879 132.184 2.61879C132.184 2.61879 132.184 2.61873 132.184 2.61861C132.184 2.61855 132.184 2.61848 132.183 2.61839C132.183 2.61834 132.183 2.61826 132.183 2.61824C132.183 2.61816 132.183 2.61807 132.46 1.97042ZM125.742 0.258019C121.441 0.258019 118.123 1.28979 115.885 3.48262C113.643 5.67819 112.608 8.91622 112.608 13.056H114.017C114.017 9.13349 114.997 6.32486 116.871 4.48933C118.747 2.65105 121.644 1.66727 125.742 1.66727V0.258019ZM112.608 13.056V14.0637H114.017V13.056H112.608ZM113.312 13.3591H103.907V14.7684H113.312V13.3591ZM103.202 14.0637V21.4541H104.611V14.0637H103.202ZM103.907 22.1587H113.312V20.7495H103.907V22.1587ZM112.608 21.4541V49H114.017V21.4541H112.608ZM113.312 49.7046H122.718V48.2954H113.312V49.7046ZM123.423 49V21.4541H122.014V49H123.423ZM122.718 22.1587H132.46V20.7495H122.718V22.1587ZM133.165 21.4541V14.0637H131.756V21.4541H133.165ZM132.46 13.3591H122.718V14.7684H132.46V13.3591ZM144.559 14.0637H145.263V13.3591H144.559V14.0637ZM135.153 14.0637V13.3591H134.448V14.0637H135.153ZM135.153 49H134.448V49.7046H135.153V49ZM144.559 49V49.7046H145.263V49H144.559ZM144.559 13.3591H135.153V14.7684H144.559V13.3591ZM134.448 14.0637V49H135.857V14.0637H134.448ZM135.153 49.7046H144.559V48.2954H135.153V49.7046ZM145.263 49V14.0637H143.854V49H145.263ZM133.776 6.33745C133.776 9.68275 136.511 12.4169 139.856 12.4169V11.0076C137.289 11.0076 135.186 8.90444 135.186 6.33745H133.776ZM139.856 12.4169C143.201 12.4169 145.935 9.68275 145.935 6.33745H144.526C144.526 8.90444 142.423 11.0076 139.856 11.0076V12.4169ZM145.935 6.33745C145.935 2.99215 143.201 0.258019 139.856 0.258019V1.66727C142.423 1.66727 144.526 3.77046 144.526 6.33745H145.935ZM139.856 0.258019C136.511 0.258019 133.776 2.99215 133.776 6.33745H135.186C135.186 3.77046 137.289 1.66727 139.856 1.66727V0.258019ZM147.275 14.0637V13.3591H146.57V14.0637H147.275ZM147.275 21.4541H146.57V22.1587H147.275V21.4541ZM158.025 21.4541H158.729V20.7495H158.025V21.4541ZM174.485 48.6641L174.747 49.3183L175.19 49.1411V48.6641H174.485ZM174.485 41.6096H175.19V40.632L174.262 40.9412L174.485 41.6096ZM167.431 21.4541V20.7495H166.726V21.4541H167.431ZM178.852 21.4541V22.1587H179.557V21.4541H178.852ZM178.852 14.0637H179.557V13.3591H178.852V14.0637ZM146.57 14.0637V21.4541H147.98V14.0637H146.57ZM147.275 22.1587H158.025V20.7495H147.275V22.1587ZM157.32 21.4541V39.5941H158.729V21.4541H157.32ZM157.32 39.5941C157.32 43.7478 158.45 46.4399 160.581 48.0505C162.666 49.6254 165.556 50.0405 168.774 50.0405V48.6313C165.61 48.6313 163.126 48.2066 161.431 46.9261C159.783 45.6814 158.729 43.5026 158.729 39.5941H157.32ZM168.774 50.0405C170.829 50.0405 172.299 49.8693 173.267 49.6933C173.751 49.6052 174.11 49.5161 174.353 49.4466C174.475 49.4118 174.567 49.382 174.633 49.3598C174.665 49.3486 174.691 49.3394 174.71 49.3324C174.719 49.3289 174.727 49.3259 174.733 49.3236C174.736 49.3224 174.739 49.3213 174.741 49.3205C174.742 49.32 174.743 49.3196 174.744 49.3193C174.745 49.3191 174.745 49.3189 174.746 49.3188C174.746 49.3187 174.746 49.3186 174.746 49.3185C174.746 49.3184 174.747 49.3183 174.485 48.6641C174.223 48.0098 174.224 48.0097 174.224 48.0096C174.224 48.0096 174.224 48.0095 174.224 48.0095C174.225 48.0093 174.225 48.0092 174.225 48.0091C174.226 48.0089 174.226 48.0088 174.226 48.0087C174.227 48.0084 174.227 48.0084 174.227 48.0084C174.226 48.0086 174.224 48.0094 174.22 48.0109C174.213 48.0137 174.198 48.0189 174.177 48.0261C174.135 48.0406 174.065 48.0633 173.966 48.0915C173.768 48.148 173.455 48.2268 173.015 48.3067C172.136 48.4666 170.751 48.6313 168.774 48.6313V50.0405ZM175.19 48.6641V41.6096H173.78V48.6641H175.19ZM174.485 41.6096C174.262 40.9412 174.262 40.9411 174.263 40.941C174.263 40.941 174.263 40.941 174.263 40.9409C174.263 40.9409 174.263 40.9408 174.264 40.9407C174.264 40.9406 174.264 40.9405 174.265 40.9404C174.265 40.9402 174.265 40.9401 174.266 40.9401C174.266 40.94 174.265 40.9403 174.263 40.9409C174.259 40.942 174.252 40.9443 174.24 40.9476C174.218 40.9543 174.179 40.965 174.125 40.9785C174.017 41.0056 173.846 41.0437 173.613 41.0826C173.147 41.1603 172.43 41.2409 171.462 41.2409V42.6502C172.509 42.6502 173.303 42.5629 173.845 42.4726C174.116 42.4275 174.323 42.3817 174.467 42.3457C174.539 42.3277 174.595 42.3122 174.635 42.3005C174.655 42.2947 174.671 42.2897 174.683 42.286C174.689 42.2841 174.695 42.2824 174.699 42.2811C174.701 42.2805 174.702 42.2799 174.704 42.2794C174.705 42.2791 174.705 42.2789 174.706 42.2787C174.706 42.2786 174.707 42.2785 174.707 42.2784C174.707 42.2783 174.707 42.2783 174.707 42.2782C174.708 42.2782 174.708 42.2781 174.485 41.6096ZM171.462 41.2409C169.989 41.2409 169.232 40.9864 168.811 40.5655C168.39 40.1446 168.135 39.3871 168.135 37.9145H166.726C166.726 39.4652 166.975 40.7232 167.814 41.562C168.653 42.4008 169.911 42.6502 171.462 42.6502V41.2409ZM168.135 37.9145V21.4541H166.726V37.9145H168.135ZM167.431 22.1587H178.852V20.7495H167.431V22.1587ZM179.557 21.4541V14.0637H178.147V21.4541H179.557ZM178.852 13.3591H147.275V14.7684H178.852V13.3591ZM181.843 44.297C181.843 47.6423 184.577 50.3765 187.922 50.3765V48.9672C185.355 48.9672 183.252 46.864 183.252 44.297H181.843ZM187.922 50.3765C191.267 50.3765 194.001 47.6423 194.001 44.297H192.592C192.592 46.864 190.489 48.9672 187.922 48.9672V50.3765ZM194.001 44.297C194.001 40.9517 191.267 38.2176 187.922 38.2176V39.6269C190.489 39.6269 192.592 41.73 192.592 44.297H194.001ZM187.922 38.2176C184.577 38.2176 181.843 40.9517 181.843 44.297H183.252C183.252 41.73 185.355 39.6269 187.922 39.6269V38.2176ZM181.843 19.4385C181.843 22.7838 184.577 25.518 187.922 25.518V24.1087C185.355 24.1087 183.252 22.0055 183.252 19.4385H181.843ZM187.922 25.518C191.267 25.518 194.001 22.7838 194.001 19.4385H192.592C192.592 22.0055 190.489 24.1087 187.922 24.1087V25.518ZM194.001 19.4385C194.001 16.0933 191.267 13.3591 187.922 13.3591V14.7684C190.489 14.7684 192.592 16.8716 192.592 19.4385H194.001ZM187.922 13.3591C184.577 13.3591 181.843 16.0933 181.843 19.4385H183.252C183.252 16.8716 185.355 14.7684 187.922 14.7684V13.3591Z" fill="white"/>
</svg>
