<svg width="447" height="579" viewBox="0 0 447 579" fill="none" xmlns="http://www.w3.org/2000/svg" preserveAspectRatio="xMinYMin slice">
<rect x="2.5" y="2.5" width="442" height="574" rx="22.5" fill="white" fill-opacity="0.3"/>
<path opacity="0.37" d="M329.579 252.078C332.325 253.592 334.34 255.171 335.537 256.799L335.201 257.046C336.014 258.151 336.41 259.248 336.401 260.34C336.393 261.335 336.049 262.33 335.36 263.324L335.703 263.562C334.649 265.083 332.867 266.551 330.429 267.952L330.221 267.59C328.487 268.587 326.408 269.554 324.011 270.484L324.162 270.873C322.182 271.641 319.991 272.382 317.605 273.093L317.486 272.693C315.411 273.311 313.187 273.907 310.823 274.478L310.921 274.884C308.778 275.402 306.522 275.9 304.159 276.376L304.076 275.967C301.902 276.405 299.637 276.825 297.286 277.226L297.357 277.637C295.149 278.014 292.866 278.373 290.515 278.714L290.455 278.301C288.231 278.624 285.944 278.93 283.599 279.219L283.65 279.634C281.41 279.91 279.116 280.171 276.773 280.416L276.73 280.001C275.595 280.12 274.448 280.235 273.29 280.346C272.193 280.451 271.087 280.552 269.971 280.65L270.007 281.066C267.826 281.258 265.608 281.436 263.356 281.6L263.325 281.183C261.139 281.342 258.921 281.488 256.672 281.621L256.696 282.038C254.502 282.167 252.28 282.283 250.031 282.385L250.012 281.968C247.816 282.069 245.594 282.156 243.349 282.23L243.363 282.648C241.161 282.721 238.936 282.781 236.691 282.828L236.683 282.411C234.479 282.457 232.256 282.491 230.015 282.511L230.018 282.929C227.811 282.949 225.585 282.957 223.344 282.952L223.345 282.535C222.237 282.532 221.126 282.527 220.01 282.518C218.726 282.508 217.447 282.494 216.173 282.475L216.167 282.893C213.594 282.856 211.041 282.802 208.513 282.732L208.524 282.315C205.946 282.244 203.392 282.156 200.866 282.052L200.849 282.469C198.267 282.363 195.714 282.24 193.192 282.1L193.215 281.683C190.637 281.541 188.093 281.381 185.584 281.205L185.555 281.621C182.965 281.44 180.413 281.241 177.904 281.025L177.94 280.609C175.355 280.387 172.815 280.147 170.324 279.89L170.281 280.305C167.686 280.037 165.144 279.751 162.659 279.448L162.71 279.034C160.121 278.718 157.595 278.383 155.135 278.03L155.076 278.443C152.471 278.069 149.94 277.675 147.49 277.263L147.559 276.851C144.957 276.413 142.445 275.953 140.032 275.473L139.951 275.883C137.338 275.363 134.839 274.821 132.464 274.257L132.56 273.851C129.94 273.228 127.472 272.58 125.167 271.909L125.05 272.31C122.412 271.541 119.986 270.742 117.79 269.915L117.937 269.525C115.269 268.521 112.949 267.48 111.006 266.408L110.805 266.774C108.059 265.26 106.044 263.681 104.846 262.054L105.183 261.806C104.37 260.702 103.974 259.604 103.983 258.513C103.991 257.421 104.404 256.33 105.234 255.238L104.902 254.986C106.125 253.377 108.164 251.83 110.934 250.359L111.13 250.728C113.089 249.688 115.425 248.683 118.108 247.721L117.968 247.328C120.177 246.536 122.615 245.775 125.264 245.049L125.375 245.451C127.69 244.816 130.168 244.207 132.798 243.626L132.708 243.218C135.091 242.692 137.598 242.188 140.22 241.71L140.295 242.121C142.715 241.679 145.233 241.259 147.842 240.862L147.779 240.449C150.236 240.075 152.772 239.721 155.383 239.388L155.436 239.802C157.901 239.488 160.432 239.193 163.025 238.917L162.981 238.502C165.471 238.238 168.017 237.992 170.616 237.765L170.652 238.181C173.147 237.963 175.69 237.763 178.278 237.582L178.249 237.165C180.761 236.989 183.315 236.83 185.908 236.689L185.931 237.106C188.442 236.969 190.989 236.85 193.568 236.748L193.552 236.331C196.075 236.231 198.63 236.148 201.214 236.082L201.224 236.499C203.752 236.435 206.306 236.387 208.886 236.357L208.881 235.939C211.41 235.909 213.963 235.896 216.537 235.899L216.536 236.317C217.81 236.318 219.089 236.324 220.373 236.334C221.657 236.344 222.936 236.359 224.21 236.377L224.216 235.959C226.79 235.996 229.342 236.05 231.871 236.12L231.859 236.537C234.438 236.608 236.991 236.696 239.517 236.8L239.535 236.383C242.117 236.489 244.67 236.613 247.192 236.752L247.169 237.169C249.746 237.312 252.291 237.471 254.799 237.647L254.829 237.231C257.419 237.413 259.97 237.612 262.48 237.827L262.444 238.243C265.029 238.466 267.569 238.706 270.06 238.963L270.103 238.547C272.697 238.815 275.239 239.101 277.724 239.404L277.674 239.819C280.262 240.135 282.789 240.47 285.248 240.822L285.308 240.409C287.913 240.783 290.444 241.177 292.894 241.59L292.824 242.001C295.427 242.44 297.938 242.899 300.351 243.379L300.433 242.969C303.046 243.489 305.545 244.031 307.92 244.596L307.824 245.002C310.444 245.624 312.912 246.272 315.217 246.944L315.334 246.543C317.972 247.311 320.397 248.11 322.594 248.937L322.447 249.328C325.114 250.331 327.434 251.373 329.377 252.444L329.579 252.078Z" stroke="white" stroke-width="0.834911" stroke-dasharray="7.33 7.33"/>
<g opacity="0.37" filter="url(#filter0_f_296_1688)">
<path d="M336.819 260.343C336.747 269.455 310.965 277.155 273.329 280.761C257.341 282.293 239.212 283.086 220.007 282.935C155.596 282.429 103.463 271.493 103.565 258.509C103.667 245.525 155.966 235.41 220.377 235.917C284.788 236.423 336.921 247.359 336.819 260.343Z" fill="#444040"/>
</g>
<rect x="2.5" y="2.5" width="442" height="574" rx="22.5" stroke="white" stroke-width="5"/>
<defs>
<filter id="filter0_f_296_1688" x="62.7458" y="195.078" width="314.895" height="128.697" filterUnits="userSpaceOnUse" color-interpolation-filters="sRGB">
<feFlood flood-opacity="0" result="BackgroundImageFix"/>
<feBlend mode="normal" in="SourceGraphic" in2="BackgroundImageFix" result="shape"/>
<feGaussianBlur stdDeviation="20.4103" result="effect1_foregroundBlur_296_1688"/>
</filter>
</defs>
</svg>
