<svg width="87" height="87" viewBox="0 0 87 87" fill="none" xmlns="http://www.w3.org/2000/svg">
<path fill-rule="evenodd" clip-rule="evenodd" d="M43.2399 86.4799C67.1207 86.4799 86.4799 67.1207 86.4799 43.2399C86.4799 19.3592 67.1207 0 43.2399 0C19.3592 0 0 19.3592 0 43.2399C0 67.1207 19.3592 86.4799 43.2399 86.4799ZM49.9921 59.1809C49.1643 61.5258 50.3942 64.0978 52.7391 64.9256C55.084 65.7534 57.656 64.5235 58.4838 62.1786L61.5484 53.4975L63.247 54.0971L61.3 59.6125C60.7371 61.207 61.5734 62.956 63.1679 63.5189C64.7624 64.0818 66.5114 63.2455 67.0743 61.6509L69.0213 56.1356L69.8822 56.4395C71.8456 57.1326 73.999 56.1028 74.6921 54.1395C75.3852 52.1762 74.3555 50.0227 72.3922 49.3296L71.5313 49.0257L73.4784 43.5101C74.0413 41.9156 73.205 40.1666 71.6104 39.6037C70.0159 39.0408 68.2669 39.8771 67.704 41.4717L65.7569 46.9872L64.0583 46.3876L67.2371 37.383C68.0649 35.0381 66.8351 32.4661 64.4902 31.6383C62.1453 30.8105 59.5733 32.0404 58.7455 34.3853L55.5667 43.3899L33.8288 35.7159L37.0076 26.7115C37.8354 24.3666 36.6055 21.7946 34.2606 20.9668C31.9157 20.139 29.3437 21.3689 28.5159 23.7138L25.3372 32.7182L23.6386 32.1186L25.5858 26.6029C26.1487 25.0084 25.3124 23.2595 23.7178 22.6966C22.1233 22.1337 20.3743 22.97 19.8114 24.5645L17.8643 30.0801L15.6449 29.2966C13.6815 28.6035 11.5281 29.6333 10.835 31.5966C10.1419 33.56 11.1716 35.7134 13.1349 36.4065L15.3544 37.19L13.4074 42.7053C12.8445 44.2998 13.6808 46.0488 15.2753 46.6117C16.8698 47.1746 18.6188 46.3383 19.1817 44.7437L21.1287 39.2285L22.8272 39.8281L19.7626 48.5094C18.9348 50.8543 20.1646 53.4263 22.5095 54.2541C24.8544 55.0819 27.4264 53.852 28.2542 51.5071L31.3189 42.8258L53.0568 50.4998L49.9921 59.1809Z" fill="#E9E9E9"/>
</svg>
