<svg width="109" height="127" viewBox="0 0 109 127" fill="none" xmlns="http://www.w3.org/2000/svg">
<g filter="url(#filter0_d_52_8)">
<path d="M6.80865 107.762C-0.327076 94.2708 0.583471 71.758 1.93071 62.188C5.38705 65.5328 14.3346 68.2273 18.3764 69.1564C17.8189 77.2399 18.6361 77.3792 18.7754 80.4454C18.9148 83.5115 28.6707 84.3477 27.9738 80.4454C27.4163 77.3235 27.8999 74.1273 28.1322 72.3619C46.763 77.6966 54.8718 78.2073 60.6053 69.8533L57.5392 124.765C35.7976 126.103 14.6598 113.987 6.80865 107.762Z" fill="#FFB800"/>
<path d="M6.80865 107.762C-0.327076 94.2708 0.583471 71.758 1.93071 62.188C5.38705 65.5328 14.3346 68.2273 18.3764 69.1564C17.8189 77.2399 18.6361 77.3792 18.7754 80.4454C18.9148 83.5115 28.6707 84.3477 27.9738 80.4454C27.4163 77.3235 27.8999 74.1273 28.1322 72.3619C46.763 77.6966 54.8718 78.2073 60.6053 69.8533L57.5392 124.765C35.7976 126.103 14.6598 113.987 6.80865 107.762Z" fill="url(#paint0_linear_52_8)" fill-opacity="0.78"/>
<path d="M20.1882 62.188C8.92709 60.181 5.1827 55.5911 4.71813 53.547C9.62394 25.2271 33.4283 19.448 44.7172 20.0983C69.1348 25.7846 76.3541 31.2944 76.9116 33.3385C63.5321 33.7566 60.6053 51.7352 59.351 58.0069C58.3475 63.0242 57.1675 64.836 56.703 65.1147C52.1317 72.3619 36.6802 68.1344 29.5259 65.1147C29.0799 64.3343 33.0566 57.0777 35.1007 53.547C34.4039 51.7352 28.1322 49.366 26.0417 51.7352C24.3692 53.6307 21.4425 59.4935 20.1882 62.188Z" fill="#FFB800"/>
<path d="M20.1882 62.188C8.92709 60.181 5.1827 55.5911 4.71813 53.547C9.62394 25.2271 33.4283 19.448 44.7172 20.0983C69.1348 25.7846 76.3541 31.2944 76.9116 33.3385C63.5321 33.7566 60.6053 51.7352 59.351 58.0069C58.3475 63.0242 57.1675 64.836 56.703 65.1147C52.1317 72.3619 36.6802 68.1344 29.5259 65.1147C29.0799 64.3343 33.0566 57.0777 35.1007 53.547C34.4039 51.7352 28.1322 49.366 26.0417 51.7352C24.3692 53.6307 21.4425 59.4935 20.1882 62.188Z" fill="url(#paint1_linear_52_8)" fill-opacity="0.78"/>
<path d="M54.7518 17.5897C53.1909 17.5897 49.4558 16.2889 47.7833 15.6385C48.8983 2.48203 51.8715 0.0291292 53.2187 0.447239C61.7203 -0.667718 68.41 3.09526 69.2462 3.09526C72.2566 5.88265 73.288 18.3795 73.4273 24.2794L64.647 21.0739C64.5077 18.0078 64.1174 11.2902 63.6715 8.94877C63.114 6.02201 57.5392 6.02201 55.8668 6.71886C54.1943 7.41571 54.7518 16.8928 54.7518 17.5897Z" fill="#FFB800"/>
<path d="M54.7518 17.5897C53.1909 17.5897 49.4558 16.2889 47.7833 15.6385C48.8983 2.48203 51.8715 0.0291292 53.2187 0.447239C61.7203 -0.667718 68.41 3.09526 69.2462 3.09526C72.2566 5.88265 73.288 18.3795 73.4273 24.2794L64.647 21.0739C64.5077 18.0078 64.1174 11.2902 63.6715 8.94877C63.114 6.02201 57.5392 6.02201 55.8668 6.71886C54.1943 7.41571 54.7518 16.8928 54.7518 17.5897Z" fill="url(#paint2_linear_52_8)" fill-opacity="0.78"/>
<path d="M85.6919 106.647C87.1413 52.014 81.4643 39.0991 78.4446 39.4707C73.288 38.6345 69.525 46.8573 67.9919 49.9234C66.7655 52.3763 65.0652 99.7248 64.3683 123.092C75.3785 120.723 76.2147 119.19 78.0265 118.354C79.8383 117.518 80.9533 111.804 81.7895 109.574C82.4585 107.79 84.6698 106.879 85.6919 106.647Z" fill="#FFB800"/>
<path d="M85.6919 106.647C87.1413 52.014 81.4643 39.0991 78.4446 39.4707C73.288 38.6345 69.525 46.8573 67.9919 49.9234C66.7655 52.3763 65.0652 99.7248 64.3683 123.092C75.3785 120.723 76.2147 119.19 78.0265 118.354C79.8383 117.518 80.9533 111.804 81.7895 109.574C82.4585 107.79 84.6698 106.879 85.6919 106.647Z" fill="url(#paint3_linear_52_8)" fill-opacity="0.78"/>
<path d="M82.9045 31.3873C82.6815 29.8263 79.8383 27.2062 78.4446 26.0912C88.0333 17.5061 95.3548 20.8416 97.817 23.5826C106.597 27.2062 107.712 70.9682 107.434 81.2816C107.211 89.5323 105.111 94.8469 104.089 96.4729C102.416 102.382 94.8438 104.789 91.2666 105.253V95.3579C103.917 97.5865 97.1861 39.9665 94.4721 33.3385C91.7864 26.7794 85.7848 29.2503 82.9045 31.3873Z" fill="#FFB800"/>
<path d="M82.9045 31.3873C82.6815 29.8263 79.8383 27.2062 78.4446 26.0912C88.0333 17.5061 95.3548 20.8416 97.817 23.5826C106.597 27.2062 107.712 70.9682 107.434 81.2816C107.211 89.5323 105.111 94.8469 104.089 96.4729C102.416 102.382 94.8438 104.789 91.2666 105.253V95.3579C103.917 97.5865 97.1861 39.9665 94.4721 33.3385C91.7864 26.7794 85.7848 29.2503 82.9045 31.3873Z" fill="url(#paint4_linear_52_8)" fill-opacity="0.78"/>
</g>
<defs>
<filter id="filter0_d_52_8" x="0.190162" y="0.240723" width="108.09" height="126.246" filterUnits="userSpaceOnUse" color-interpolation-filters="sRGB">
<feFlood flood-opacity="0" result="BackgroundImageFix"/>
<feColorMatrix in="SourceAlpha" type="matrix" values="0 0 0 0 0 0 0 0 0 0 0 0 0 0 0 0 0 0 127 0" result="hardAlpha"/>
<feOffset dy="0.809838"/>
<feGaussianBlur stdDeviation="0.404919"/>
<feComposite in2="hardAlpha" operator="out"/>
<feColorMatrix type="matrix" values="0 0 0 0 0 0 0 0 0 0 0 0 0 0 0 0 0 0 0.25 0"/>
<feBlend mode="normal" in2="BackgroundImageFix" result="effect1_dropShadow_52_8"/>
<feBlend mode="normal" in="SourceGraphic" in2="effect1_dropShadow_52_8" result="shape"/>
</filter>
<linearGradient id="paint0_linear_52_8" x1="72.3833" y1="0.240723" x2="72.3833" y2="106.753" gradientUnits="userSpaceOnUse">
<stop stop-color="#ECFF80" stop-opacity="0"/>
<stop offset="1" stop-color="#ECFF80"/>
</linearGradient>
<linearGradient id="paint1_linear_52_8" x1="72.3833" y1="0.240723" x2="72.3833" y2="106.753" gradientUnits="userSpaceOnUse">
<stop stop-color="#ECFF80" stop-opacity="0"/>
<stop offset="1" stop-color="#ECFF80"/>
</linearGradient>
<linearGradient id="paint2_linear_52_8" x1="72.3833" y1="0.240723" x2="72.3833" y2="106.753" gradientUnits="userSpaceOnUse">
<stop stop-color="#ECFF80" stop-opacity="0"/>
<stop offset="1" stop-color="#ECFF80"/>
</linearGradient>
<linearGradient id="paint3_linear_52_8" x1="72.3833" y1="0.240723" x2="72.3833" y2="106.753" gradientUnits="userSpaceOnUse">
<stop stop-color="#ECFF80" stop-opacity="0"/>
<stop offset="1" stop-color="#ECFF80"/>
</linearGradient>
<linearGradient id="paint4_linear_52_8" x1="72.3833" y1="0.240723" x2="72.3833" y2="106.753" gradientUnits="userSpaceOnUse">
<stop stop-color="#ECFF80" stop-opacity="0"/>
<stop offset="1" stop-color="#ECFF80"/>
</linearGradient>
</defs>
</svg>
