<svg width="63" height="63" viewBox="0 0 63 63" fill="none" xmlns="http://www.w3.org/2000/svg">
<path d="M31.386 0C14.0536 0 0 14.0536 0 31.386C0 48.7184 14.0536 62.772 31.386 62.772C48.7184 62.772 62.772 48.7184 62.772 31.386C62.772 14.0536 48.7184 0 31.386 0ZM31.386 49.6011C29.8377 49.6011 28.5837 48.3471 28.5837 46.7988C28.5837 45.2505 29.8377 43.9965 31.386 43.9965C32.9343 43.9965 34.1883 45.2505 34.1883 46.7988C34.1883 48.3471 32.9343 49.6011 31.386 49.6011ZM35.7927 34.2234C35.1582 34.4684 34.6123 34.8989 34.2261 35.4587C33.84 36.0186 33.6315 36.6818 33.6279 37.362V38.9523C33.6279 39.2605 33.3757 39.5127 33.0674 39.5127H29.7046C29.3964 39.5127 29.1442 39.2605 29.1442 38.9523V37.446C29.1442 35.8277 29.6135 34.2304 30.5383 32.8993C31.4421 31.5962 32.7031 30.6014 34.1883 30.0339C36.5703 29.1161 38.1116 27.1195 38.1116 24.9407C38.1116 21.8511 35.0921 19.336 31.386 19.336C27.6799 19.336 24.6604 21.8511 24.6604 24.9407V25.4731C24.6604 25.7814 24.4082 26.0336 24.1 26.0336H20.7372C20.4289 26.0336 20.1767 25.7814 20.1767 25.4731V24.9407C20.1767 22.1874 21.3817 19.6163 23.5675 17.7037C25.6693 15.8611 28.4436 14.8523 31.386 14.8523C34.3285 14.8523 37.1027 15.8682 39.2045 17.7037C41.3903 19.6163 42.5953 22.1874 42.5953 24.9407C42.5953 28.99 39.9261 32.633 35.7927 34.2234Z" fill="#C5E60B"/>
</svg>
