<svg width="57" height="46" viewBox="0 0 57 46" fill="none" xmlns="http://www.w3.org/2000/svg">
<path d="M56.8798 11.8547V36.9031C56.8798 39.2334 55.954 41.4683 54.3063 43.116C52.6585 44.7638 50.4236 45.6895 48.0933 45.6895H9.43293C7.10262 45.6895 4.86775 44.7638 3.21998 43.116C1.5722 41.4683 0.646484 39.2334 0.646484 36.9031V11.8547L27.8704 27.8741C28.1409 28.0336 28.4491 28.1178 28.7631 28.1178C29.0771 28.1178 29.3854 28.0336 29.6558 27.8741L56.8798 11.8547ZM48.0933 1.08786e-07C50.2553 -0.000339916 52.3415 0.796427 53.9528 2.23787C55.5642 3.67932 56.5875 5.66424 56.827 7.81291L28.7631 24.3209L0.699203 7.81291C0.938751 5.66424 1.96208 3.67932 3.57341 2.23787C5.18474 0.796427 7.27095 -0.000339916 9.43293 1.08786e-07H48.0933Z" fill="#FFB800"/>
</svg>
