<svg width="22" height="22" viewBox="0 0 22 22" fill="none" xmlns="http://www.w3.org/2000/svg">
<path fill-rule="evenodd" clip-rule="evenodd" d="M20.2144 10.8615C20.2144 16.0269 16.0269 20.2144 10.8615 20.2144C5.69598 20.2144 1.50854 16.0269 1.50854 10.8615C1.50854 5.69598 5.69598 1.50854 10.8615 1.50854C16.0269 1.50854 20.2144 5.69598 20.2144 10.8615ZM21.7229 10.8615C21.7229 16.8601 16.8601 21.7229 10.8615 21.7229C4.86284 21.7229 0 16.8601 0 10.8615C0 4.86284 4.86284 0 10.8615 0C16.8601 0 21.7229 4.86284 21.7229 10.8615ZM11.6156 6.33583C11.6156 5.91926 11.2779 5.58156 10.8613 5.58156C10.4447 5.58156 10.107 5.91926 10.107 6.33583V10.258H6.03397C5.6174 10.258 5.2797 10.5957 5.2797 11.0123C5.2797 11.4289 5.6174 11.7666 6.03397 11.7666H10.107V15.6888C10.107 16.1053 10.4447 16.443 10.8613 16.443C11.2779 16.443 11.6156 16.1053 11.6156 15.6888V11.7666H15.6886C16.1052 11.7666 16.4429 11.4289 16.4429 11.0123C16.4429 10.5957 16.1052 10.258 15.6886 10.258H11.6156V6.33583Z" fill="white"/>
</svg>
