<svg width="447" height="579" viewBox="0 0 447 579" fill="none" xmlns="http://www.w3.org/2000/svg">
<g clip-path="url(#clip0_296_1798)">
<rect width="447" height="579" rx="25" fill="#FFA216" fill-opacity="0.3"/>
<g opacity="0.37" filter="url(#filter0_f_296_1798)">
<path d="M434.392 275.143C437.554 299.226 423.51 322.314 400.322 335.848C390.47 341.599 378.968 345.625 366.434 347.27C324.396 352.791 286.665 329.448 282.159 295.133C277.653 260.818 308.079 228.525 350.117 223.005C392.155 217.485 429.886 240.828 434.392 275.143Z" fill="#F9A629" fill-opacity="0.32"/>
</g>
<g opacity="0.37" filter="url(#filter1_f_296_1798)">
<path d="M346.722 437.818C351.961 477.717 328.695 515.966 290.278 538.39C273.957 547.916 254.902 554.586 234.136 557.313C164.491 566.458 101.982 527.785 94.5166 470.936C87.0516 414.086 137.458 360.586 207.103 351.441C276.747 342.296 339.257 380.968 346.722 437.818Z" fill="#F9BF29" fill-opacity="0.32"/>
</g>
<g opacity="0.37" filter="url(#filter2_f_296_1798)">
<path d="M162.49 47.2663C167.339 84.1926 149.272 119.137 118.785 139.224C105.833 147.758 90.6399 153.61 74.0095 155.794C18.2341 163.118 -32.5816 126.403 -39.4905 73.7887C-46.3993 21.1746 -6.78504 -27.4148 48.9904 -34.7387C104.766 -42.0627 155.582 -5.34782 162.49 47.2663Z" fill="#F9E429" fill-opacity="0.32"/>
</g>
<g opacity="0.37" filter="url(#filter3_f_296_1798)">
<path d="M210.163 93.1522C212.563 111.429 203.621 128.725 188.531 138.667C182.121 142.891 174.601 145.788 166.369 146.869C138.763 150.494 113.611 132.321 110.192 106.28C106.772 80.2379 126.379 56.1883 153.986 52.5632C181.592 48.9382 206.744 67.1105 210.163 93.1522Z" fill="#F9BF29" fill-opacity="0.32"/>
</g>
<g opacity="0.37" filter="url(#filter4_f_296_1798)">
<path d="M452.523 54.7592C454.751 71.7208 446.452 87.7718 432.448 96.9986C426.499 100.919 419.52 103.607 411.881 104.61C386.261 107.974 362.92 91.1095 359.746 66.9419C356.573 42.7743 374.769 20.4554 400.389 17.0913C426.008 13.7271 449.35 30.5916 452.523 54.7592Z" fill="#F9BF29" fill-opacity="0.32"/>
</g>
<g opacity="0.37" filter="url(#filter5_f_296_1798)">
<path d="M142.582 426.095C145.692 449.781 134.103 472.195 114.548 485.08C106.24 490.553 96.4943 494.307 85.827 495.708C50.0506 500.406 17.4556 476.856 13.0241 443.107C8.5925 409.359 34.0025 378.192 69.7789 373.494C105.555 368.796 138.15 392.346 142.582 426.095Z" fill="#F9BF29" fill-opacity="0.32"/>
</g>
<g opacity="0.37" filter="url(#filter6_f_296_1798)">
<path d="M103.563 241.005C105.294 254.186 98.8445 266.659 87.9621 273.829C83.3389 276.876 77.9155 278.965 71.9793 279.744C52.0702 282.358 33.9314 269.253 31.4653 250.472C28.9992 231.692 43.1396 214.347 63.0487 211.733C82.9579 209.119 101.097 222.224 103.563 241.005Z" fill="#F9BF29" fill-opacity="0.32"/>
</g>
<path opacity="0.37" d="M290.694 281.935C293.052 283.848 294.702 285.698 295.565 287.454L295.202 287.632C295.787 288.824 295.977 289.937 295.782 290.976C295.604 291.923 295.105 292.812 294.278 293.642L294.565 293.928C293.3 295.196 291.351 296.29 288.787 297.208L288.651 296.828C286.827 297.481 284.681 298.047 282.237 298.523L282.314 298.92C280.296 299.312 278.082 299.644 275.685 299.913L275.64 299.511C273.558 299.745 271.336 299.932 268.985 300.072L269.009 300.475C266.879 300.602 264.643 300.69 262.309 300.739L262.301 300.335C260.153 300.381 257.923 300.393 255.614 300.373L255.611 300.777C253.442 300.758 251.206 300.709 248.906 300.632L248.92 300.228C246.745 300.154 244.514 300.055 242.229 299.929L242.207 300.333C240.025 300.213 237.794 300.069 235.519 299.902L235.549 299.498C234.447 299.417 233.334 299.33 232.211 299.238C231.149 299.15 230.077 299.058 228.997 298.96L228.96 299.363C226.849 299.172 224.704 298.962 222.53 298.732L222.572 298.33C220.461 298.108 218.322 297.867 216.156 297.608L216.108 298.01C213.995 297.757 211.858 297.487 209.697 297.2L209.75 296.799C207.64 296.519 205.508 296.222 203.355 295.909L203.297 296.309C201.186 296.001 199.056 295.678 196.908 295.338L196.971 294.939C194.864 294.606 192.739 294.257 190.599 293.894L190.532 294.292C188.424 293.934 186.302 293.56 184.167 293.172L184.239 292.774C183.184 292.582 182.126 292.387 181.064 292.187C179.842 291.958 178.626 291.725 177.415 291.49L177.338 291.887C174.891 291.411 172.468 290.923 170.07 290.423L170.153 290.028C167.708 289.518 165.289 288.998 162.9 288.466L162.812 288.861C160.369 288.317 157.957 287.763 155.578 287.198L155.671 286.805C153.239 286.227 150.841 285.64 148.481 285.043L148.382 285.435C145.944 284.818 143.547 284.191 141.192 283.556L141.298 283.166C138.872 282.512 136.493 281.848 134.163 281.177L134.051 281.565C131.624 280.866 129.25 280.158 126.934 279.444L127.053 279.057C124.64 278.313 122.29 277.561 120.007 276.804L119.879 277.188C117.46 276.386 115.116 275.577 112.852 274.764L112.988 274.384C110.583 273.52 108.268 272.652 106.051 271.782L105.903 272.159C103.502 271.216 101.213 270.271 99.0463 269.327L99.2078 268.957C96.8171 267.915 94.5757 266.875 92.4941 265.84L92.3142 266.202C89.932 265.019 87.757 263.842 85.8054 262.678L86.0124 262.331C83.6419 260.918 81.6093 259.528 79.9409 258.175L79.6862 258.488C77.3284 256.576 75.6782 254.726 74.8159 252.97L75.1787 252.792C74.5934 251.6 74.4039 250.486 74.5989 249.447C74.7939 248.409 75.3746 247.439 76.3523 246.541L76.0788 246.244C77.5192 244.92 79.7282 243.794 82.6192 242.867L82.7426 243.252C84.7883 242.596 87.1865 242.039 89.9082 241.581L89.8413 241.183C92.082 240.806 94.5358 240.498 97.1852 240.259L97.2215 240.662C99.5366 240.453 102.003 240.297 104.608 240.193L104.592 239.789C106.954 239.695 109.429 239.645 112.009 239.638L112.01 240.042C114.392 240.036 116.864 240.066 119.419 240.134L119.43 239.73C121.835 239.794 124.312 239.891 126.858 240.021L126.837 240.424C129.24 240.547 131.703 240.699 134.221 240.881L134.25 240.477C136.668 240.652 139.137 240.853 141.652 241.082L141.615 241.485C144.03 241.704 146.488 241.949 148.986 242.219L149.029 241.817C151.454 242.079 153.915 242.365 156.41 242.674L156.361 243.075C158.777 243.375 161.224 243.697 163.7 244.041L163.756 243.641C166.178 243.978 168.627 244.336 171.1 244.716L171.039 245.115C173.459 245.487 175.901 245.879 178.365 246.291L178.431 245.892C180.847 246.297 183.282 246.721 185.735 247.165L185.663 247.562C186.876 247.782 188.094 248.007 189.316 248.236C190.538 248.466 191.755 248.698 192.966 248.934L193.043 248.537C195.489 249.013 197.912 249.501 200.31 250L200.228 250.396C202.673 250.905 205.091 251.426 207.481 251.958L207.569 251.563C210.011 252.106 212.423 252.661 214.803 253.226L214.709 253.619C217.142 254.196 219.539 254.784 221.9 255.381L221.999 254.989C224.436 255.606 226.834 256.232 229.188 256.867L229.083 257.258C231.508 257.912 233.888 258.575 236.218 259.247L236.329 258.858C238.756 259.558 241.13 260.265 243.446 260.98L243.327 261.366C245.74 262.11 248.09 262.862 250.374 263.619L250.501 263.236C252.92 264.038 255.265 264.846 257.529 265.659L257.392 266.04C259.798 266.903 262.112 267.771 264.33 268.641L264.477 268.265C266.879 269.207 269.167 270.152 271.334 271.096L271.173 271.467C273.563 272.508 275.805 273.549 277.886 274.583L278.066 274.221C280.449 275.405 282.624 276.582 284.575 277.745L284.368 278.093C286.739 279.506 288.771 280.896 290.44 282.249L290.694 281.935Z" stroke="white" stroke-width="0.808408" stroke-dasharray="7.09 7.09"/>
<path opacity="0.37" d="M356.499 232.361L360.234 246.779L360.272 246.924L360.405 246.995L370.819 252.5L360.405 258.005L360.272 258.076L360.234 258.221L356.499 272.639L352.765 258.221L352.727 258.076L352.594 258.005L342.179 252.5L352.594 246.995L352.727 246.924L352.765 246.779L356.499 232.361Z" stroke="white" stroke-width="0.682301"/>
<path opacity="0.37" d="M383.9 225.076L386.853 236.476L386.883 236.591L386.988 236.647L395.223 241L386.988 245.353L386.883 245.409L386.853 245.524L383.9 256.924L380.947 245.524L380.917 245.409L380.812 245.353L372.577 241L380.812 236.647L380.917 236.591L380.947 236.476L383.9 225.076Z" stroke="white" stroke-width="0.539494"/>
</g>
<rect x="2.5" y="2.5" width="442" height="574" rx="22.5" stroke="#FFA216" stroke-width="5"/>
<defs>
<filter id="filter0_f_296_1798" x="242.715" y="183.197" width="231.121" height="203.882" filterUnits="userSpaceOnUse" color-interpolation-filters="sRGB">
<feFlood flood-opacity="0" result="BackgroundImageFix"/>
<feBlend mode="normal" in="SourceGraphic" in2="BackgroundImageFix" result="shape"/>
<feGaussianBlur stdDeviation="19.5" result="effect1_foregroundBlur_296_1798"/>
</filter>
<filter id="filter1_f_296_1798" x="29.1736" y="285.491" width="382.895" height="337.772" filterUnits="userSpaceOnUse" color-interpolation-filters="sRGB">
<feFlood flood-opacity="0" result="BackgroundImageFix"/>
<feBlend mode="normal" in="SourceGraphic" in2="BackgroundImageFix" result="shape"/>
<feGaussianBlur stdDeviation="32.3058" result="effect1_foregroundBlur_296_1798"/>
</filter>
<filter id="filter2_f_296_1798" x="-79.2734" y="-74.6689" width="281.547" height="270.393" filterUnits="userSpaceOnUse" color-interpolation-filters="sRGB">
<feFlood flood-opacity="0" result="BackgroundImageFix"/>
<feBlend mode="normal" in="SourceGraphic" in2="BackgroundImageFix" result="shape"/>
<feGaussianBlur stdDeviation="19.5" result="effect1_foregroundBlur_296_1798"/>
</filter>
<filter id="filter3_f_296_1798" x="77.8047" y="20.1025" width="164.746" height="159.227" filterUnits="userSpaceOnUse" color-interpolation-filters="sRGB">
<feFlood flood-opacity="0" result="BackgroundImageFix"/>
<feBlend mode="normal" in="SourceGraphic" in2="BackgroundImageFix" result="shape"/>
<feGaussianBlur stdDeviation="16" result="effect1_foregroundBlur_296_1798"/>
</filter>
<filter id="filter4_f_296_1798" x="329.69" y="-13.033" width="152.89" height="147.767" filterUnits="userSpaceOnUse" color-interpolation-filters="sRGB">
<feFlood flood-opacity="0" result="BackgroundImageFix"/>
<feBlend mode="normal" in="SourceGraphic" in2="BackgroundImageFix" result="shape"/>
<feGaussianBlur stdDeviation="14.8485" result="effect1_foregroundBlur_296_1798"/>
</filter>
<filter id="filter5_f_296_1798" x="-28.9468" y="331.427" width="213.499" height="206.348" filterUnits="userSpaceOnUse" color-interpolation-filters="sRGB">
<feFlood flood-opacity="0" result="BackgroundImageFix"/>
<feBlend mode="normal" in="SourceGraphic" in2="BackgroundImageFix" result="shape"/>
<feGaussianBlur stdDeviation="20.7351" result="effect1_foregroundBlur_296_1798"/>
</filter>
<filter id="filter6_f_296_1798" x="-21.8125" y="158.401" width="178.656" height="174.675" filterUnits="userSpaceOnUse" color-interpolation-filters="sRGB">
<feFlood flood-opacity="0" result="BackgroundImageFix"/>
<feBlend mode="normal" in="SourceGraphic" in2="BackgroundImageFix" result="shape"/>
<feGaussianBlur stdDeviation="26.5" result="effect1_foregroundBlur_296_1798"/>
</filter>
<clipPath id="clip0_296_1798">
<rect width="447" height="579" rx="25" fill="white"/>
</clipPath>
</defs>
</svg>
