<svg width="82" height="82" viewBox="0 0 82 82" fill="none" xmlns="http://www.w3.org/2000/svg">
<path fill-rule="evenodd" clip-rule="evenodd" d="M41 82C63.6437 82 82 63.6437 82 41C82 18.3563 63.6437 0 41 0C18.3563 0 0 18.3563 0 41C0 63.6437 18.3563 82 41 82ZM67.5605 39.9759C67.9495 40.2706 68.2752 40.6405 68.5182 41.0638C68.7595 41.4863 68.9142 41.9527 68.9731 42.4358C69.032 42.9188 68.994 43.4087 68.8612 43.8769C68.0607 46.7587 65.5449 52.2935 58.0889 56.5933C50.6329 60.893 44.0461 60.893 40.5239 60.893H40.4782H40.4228C36.8878 60.8931 30.3757 60.8934 22.9131 56.5933C15.4114 52.2706 12.9413 46.7587 12.1408 43.8769C12.0065 43.4083 11.9677 42.9175 12.0269 42.4336C12.086 41.9498 12.2418 41.4827 12.485 41.0603C12.7283 40.6378 13.0539 40.2686 13.4427 39.9745C13.8315 39.6804 14.2754 39.4675 14.7481 39.3484C16.8323 38.8235 18.9948 38.6839 21.1292 38.9367C20.577 35.8159 20.7809 32.6082 21.7238 29.5824C21.999 28.7218 22.5847 27.9944 23.3669 27.5419C24.1491 27.0895 25.0717 26.9446 25.955 27.1352C28.0802 27.6059 30.1077 28.4417 31.9472 29.6053C33.4137 26.5163 35.5929 23.8197 38.3054 21.7376C38.9373 21.259 39.7083 21 40.501 21C41.2937 21 42.0647 21.259 42.6967 21.7376C45.4092 23.8197 47.5884 26.5163 49.0548 29.6053C50.8944 28.4417 52.9219 27.6059 55.0471 27.1352C55.9303 26.9446 56.8529 27.0895 57.6351 27.5419C58.4173 27.9944 59.0031 28.7218 59.2782 29.5824C60.2211 32.6082 60.4251 35.8159 59.8729 38.9367C62.0072 38.6839 64.1698 38.8235 66.2539 39.3484C66.7271 39.4678 67.1715 39.6812 67.5605 39.9759ZM55.7332 40.5377C57.0369 36.1007 56.4422 32.6472 55.8018 30.726C53.8665 31.1526 52.0331 31.9528 50.4042 33.0817C51.1359 35.577 51.4981 38.1661 51.4792 40.7664C51.4792 44.8832 50.6787 48.2453 49.5123 50.9898C51.0464 49.3952 52.3826 47.6213 53.4918 45.7066C54.4057 44.158 55.135 42.5077 55.6646 40.7893L55.7332 40.5377ZM47.8198 40.7664C47.8198 31.1606 42.6967 26.3119 40.501 24.6651C38.3054 26.3119 33.1823 31.0462 33.1823 40.7664C33.1823 50.4867 38.374 55.3125 40.501 56.8677C42.628 55.3125 47.8198 50.3723 47.8198 40.7664ZM30.5978 33.0817C28.969 31.9528 27.1355 31.1526 25.2002 30.726C24.5598 32.6472 23.9423 36.1007 25.2688 40.5606L25.3375 40.7664C25.8624 42.4938 26.5918 44.1523 27.5102 45.7066C28.6195 47.6213 29.9556 49.3952 31.4898 50.9898C30.3234 48.2453 29.5229 44.8832 29.5229 40.7664C29.504 38.1661 29.8661 35.577 30.5978 33.0817ZM22.1355 42.7562C19.2766 42.2531 17.0581 42.5275 15.6401 42.8934C16.3262 45.2263 18.3846 49.7319 24.7428 53.4142C26.9965 54.7257 29.421 55.7186 31.9472 56.3645C28.8901 53.9186 26.3152 50.9248 24.354 47.5363C23.4592 46.0197 22.7161 44.4186 22.1355 42.7562ZM49.0548 56.3645C51.5811 55.7186 54.0056 54.7257 56.2592 53.4142C62.6174 49.7319 64.6758 45.2263 65.3391 42.8706C63.2128 42.3843 61.0087 42.3453 58.8666 42.7562C58.286 44.4186 57.5429 46.0197 56.6481 47.5363C54.6869 50.9248 52.1119 53.9186 49.0548 56.3645Z" fill="#FAC642"/>
</svg>
